<svg version="1.1">
<polygon points="43.24203,5.56282 41.68848,10.07467 41.68848,10.07467 37.01773,8.28174 37.01773,8.28174 38.48368,4.02431 38.48368,4.02431 28,0 28,0 12.7,0 12.7,0 12.7,5 12.7,5 7.7,5 7.7,5 7.7,0 7.7,0 5.5,0 5.5,-2.384186E-07 5.001699,0.03565335 4.51355,0.1418877 4.045498,0.3165385 3.60708,0.5560475 3.207227,0.855535 2.854086,1.208899 2.554852,1.608941 2.31562,2.047511 2.141265,2.515673 2.035339,3.003889 2,3.5 2,22 2,22 2.035654,22.4983 2.141888,22.98645 2.316539,23.4545 2.556047,23.89292 2.855535,24.29277 3.208899,24.64591 3.608941,24.94515 4.047511,25.18438 4.515673,25.35874 5.003889,25.46466 5.5,25.5 20.9265,25.5 20.9265,25.5 34.73942,30.25617 34.73942,30.25617 28.78207,47.55758 28.78207,47.55758 25,46.25531 25,46.25531 25,43.5 25,43.5 22,40.5 22,40.5 14,40.5 14,40.5 14,45.5 14,45.5 9,45.5 9,45.5 9,40.5 9,40.5 3.5,40.5 3.5,40.5 3.001699,40.53565 2.51355,40.64189 2.045499,40.81654 1.60708,41.05605 1.207228,41.35553 0.8540866,41.7089 0.5548519,42.10894 0.3156201,42.54751 0.1412652,43.01567 0.03533939,43.50389 0,44 0,61.5 1.907348E-06,61.5 0.03565549,61.9983 0.1418899,62.48645 0.3165406,62.9545 0.5560496,63.39292 0.8555371,63.79277 1.208902,64.14591 1.608944,64.44514 2.047513,64.68438 2.515675,64.85873 3.003891,64.96466 3.5,65 18.9238,65 18.9238,65 22.91352,66.37377 22.91352,66.37377 16.5,85 16.5,85 12.5,85 12.5,85 12.5,78 12.5,78 3.5,78 3.5,78 3.001699,78.03565 2.51355,78.14188 2.045498,78.31654 1.60708,78.55605 1.207227,78.85553 0.8540857,79.20889 0.5548509,79.60894 0.3156192,80.04751 0.1412645,80.51567 0.03533893,81.00388 0,81.5 0,96.5 3.099447E-06,96.5 0.03565568,96.9983 0.1418892,97.48645 0.3165394,97.9545 0.5560479,98.39292 0.855535,98.79277 1.208899,99.14591 1.608941,99.44515 2.047511,99.68438 2.515672,99.85873 3.003889,99.96466 3.5,100 26,100 26,100 26,93.5 26,93.5 31,93.5 31,93.5 31,100 31,100 425,100 425,100 425,93.5 425,93.5 430,93.5 430,93.5 430,100 430,100 431.5,100 431.5,99.99999 431.9983,99.96434 432.4865,99.85811 432.9545,99.68346 433.3929,99.44395 433.7928,99.14447 434.1459,98.79111 434.4452,98.39107 434.6844,97.95249 434.8587,97.48433 434.9647,96.99612 435,96.5 435,67.5 435,67.5 434.9644,67.0017 434.8581,66.51355 434.6835,66.04549 434.444,65.60708 434.1445,65.20722 433.7911,64.85408 433.3911,64.55485 432.9525,64.31561 432.4843,64.14127 431.9961,64.03534 431.5,64 265.0044,64 265.0044,64 264.5044,63.99972 264.0044,63.99889 263.5044,63.9975 263.0044,63.99556 262.5044,63.99306 262.0045,63.99 261.5045,63.98639 261.0045,63.98222 260.5045,63.9775 260.0045,63.97222 259.5045,63.96639 259.0046,63.96 258.5046,63.95306 258.0047,63.94556 257.5048,63.9375 257.0049,63.92889 256.5049,63.91972 256.005,63.91 255.5051,63.89973 255.0052,63.88889 254.5054,63.87751 254.0055,63.86556 253.5057,63.85307 253.0058,63.84001 252.506,63.8264 252.0062,63.81224 251.5065,63.79752 251.0067,63.78224 250.5069,63.76641 250.0072,63.75002 249.5075,63.73308 249.0078,63.71558 248.5081,63.69753 248.0085,63.67893 247.5088,63.65976 247.0092,63.64005 246.5096,63.61977 246.0101,63.59895 245.5105,63.57756 245.011,63.55563 244.5115,63.53313 244.012,63.51009 243.5126,63.48648 243.0132,63.46233 242.5138,63.43762 242.0144,63.41235 241.5151,63.38653 241.0158,63.36015 240.5165,63.33322 240.0173,63.30573 239.5181,63.27769 239.0189,63.2491 238.5197,63.21995 238.0206,63.19024 237.5215,63.15998 237.0225,63.12917 236.5235,63.0978 236.0245,63.06588 235.5255,63.0334 235.0266,63.00037 234.5278,62.96679 234.0289,62.93264 233.5301,62.89795 233.0314,62.8627 232.5327,62.8269 232.034,62.79054 231.5353,62.75363 231.0367,62.71616 230.5382,62.67815 230.0397,62.63957 229.5412,62.60045 229.0428,62.56077 228.5444,62.52053 228.0461,62.47974 227.5478,62.4384 227.0495,62.39651 226.5514,62.35406 226.0532,62.31105 225.5551,62.2675 225.0571,62.22339 224.5591,62.17873 224.0611,62.13351 223.5632,62.08774 223.0654,62.04142 222.5676,61.99454 222.0698,61.94712 221.5721,61.89914 221.0745,61.8506 220.5769,61.80151 220.0794,61.75187 219.5819,61.70168 219.0845,61.65093 218.5871,61.59963 218.0898,61.54778 217.5926,61.49538 217.0954,61.44242 216.5982,61.38892 216.1012,61.33485 215.6042,61.28024 215.1072,61.22507 214.6103,61.16936 214.1135,61.11309 213.6167,61.05627 213.12,60.99889 212.6234,60.94097 212.1268,60.88249 211.6303,60.82346 211.1339,60.76388 210.6375,60.70375 210.1412,60.64307 209.645,60.58183 209.1488,60.52005 208.6527,60.45771 208.1567,60.39482 207.6607,60.33138 207.1648,60.26739 206.669,60.20285 206.1733,60.13775 205.6776,60.07211 205.182,60.00592 204.6865,59.93917 204.191,59.87188 203.6956,59.80403 203.2003,59.73563 202.7051,59.66669 202.21,59.59719 201.7149,59.52715 201.2199,59.45655 200.725,59.3854 200.2302,59.31371 199.7354,59.24146 199.2407,59.16866 198.7462,59.09532 198.2516,59.02142 197.7572,58.94698 197.2629,58.87198 196.7686,58.79644 196.2744,58.72035 195.7803,58.64371 195.2863,58.56652 194.7924,58.48878 194.2986,58.41049 193.8048,58.33165 193.3112,58.25227 192.8176,58.17234 192.3241,58.09185 191.8307,58.01082 191.3374,57.92924 190.8442,57.84712 190.3511,57.76445 189.8581,57.68122 189.3651,57.59745 188.8723,57.51313 188.3796,57.42827 187.8869,57.34286 187.3943,57.2569 186.9019,57.17039 186.4095,57.08334 185.9173,56.99574 185.4251,56.90759 184.933,56.81889 184.4411,56.72965 183.9492,56.63986 183.4574,56.54953 182.9657,56.45864 182.4742,56.36722 181.9827,56.27525 181.4913,56.18273 181.0001,56.08966 180.5089,55.99605 180.0179,55.90189 179.5269,55.80719 179.0361,55.71194 178.5453,55.61615 178.0547,55.51981 177.5642,55.42293 177.0737,55.3255 176.5834,55.22753 176.0932,55.12901 175.6031,55.02995 175.1132,54.93034 174.6233,54.83018 174.1335,54.72949 173.6439,54.62825 173.1544,54.52647 172.665,54.42414 172.1757,54.32127 171.6865,54.21785 171.1974,54.1139 170.7084,54.00939 170.2196,53.90435 169.7309,53.79876 169.2423,53.69263 168.7538,53.58596 168.2654,53.47874 167.7771,53.37098 167.289,53.26268 166.801,53.15384 166.3131,53.04445 165.8253,52.93452 165.3377,52.82405 164.8502,52.71304 164.3628,52.60149 163.8755,52.48939 163.3884,52.37675 162.9014,52.26358 162.4144,52.14986 161.9277,52.0356 161.441,51.9208 160.9545,51.80546 160.4681,51.68958 159.9819,51.57315 159.4957,51.45619 159.0098,51.33869 158.5239,51.22065 158.0381,51.10207 157.5526,50.98294 157.0671,50.86329 156.5817,50.74308 156.0965,50.62234 155.6115,50.50107 155.1265,50.37925 154.6417,50.25689 154.1571,50.134 153.6725,50.01057 153.1882,49.88659 152.7039,49.76208 152.2198,49.63704 151.7358,49.51145 151.252,49.38533 150.7683,49.25867 150.2848,49.13147 149.8013,49.00374 149.3181,48.87547 148.835,48.74666 148.352,48.61731 147.8691,48.48743 147.3864,48.35701 146.9039,48.22606 146.4215,48.09456 145.9392,47.96254 145.4571,47.82998 144.9752,47.69688 144.4934,47.56324 144.0117,47.42907 143.5302,47.29437 143.0488,47.15913 142.5676,47.02336 142.0865,46.88705 141.6056,46.75021 141.1249,46.61283 140.6443,46.47492 140.1638,46.33647 139.6835,46.19749 139.2034,46.05798 138.7234,45.91793 138.2436,45.77736 137.7639,45.63625 137.2844,45.4946 136.805,45.35242 136.3258,45.20971 135.8468,45.06647 135.3679,44.9227 134.8892,44.77839 134.4106,44.63355 133.9322,44.48818 133.454,44.34228 132.9759,44.19585 132.498,44.04888 132.0202,43.90139 131.5426,43.75336 131.0652,43.6048 130.588,43.45572 130.1109,43.3061 129.6339,43.15595 129.1572,43.00528 128.6806,42.85407 128.2042,42.70234 127.7279,42.55007 127.2518,42.39727 126.7759,42.24395 126.3002,42.0901 125.8246,41.93572 125.3492,41.78081 124.874,41.62537 124.3989,41.46941 123.9241,41.31292 123.4493,41.1559 122.9748,40.99835 122.5005,40.84028 122.0263,40.68167 121.5523,40.52255 121.0785,40.36289 120.6048,40.20271 120.1313,40.042 119.658,39.88077 119.1849,39.71901 118.712,39.55673 118.2393,39.39392 117.7667,39.23058 117.2943,39.06672 116.8221,38.90234 116.3501,38.73743 115.8782,38.57199 115.4066,38.40604 114.9351,38.23956 114.4638,38.07255 113.9927,37.90502 113.5218,37.73697 113.0511,37.56839 112.5805,37.39929 112.1102,37.22967 111.64,37.05953 111.1701,36.88886 110.7003,36.71767 110.2307,36.54596 109.7613,36.37373 109.2921,36.20098 108.8231,36.0277 108.3542,35.85391 107.8856,35.67959 107.4172,35.50475 106.9489,35.3294 106.4809,35.15352 106.013,34.97712 105.5454,34.80021 105.0779,34.62277 104.6107,34.44481 104.1436,34.26634 103.6767,34.08735 103.2101,33.90783 102.7436,33.7278 102.2773,33.54725 101.8113,33.36618 101.3454,33.1846 100.8798,33.0025 100.4143,32.81988 99.94904,32.63674 99.48399,32.45309 99.01914,32.26892 98.5545,32.08423 98.09007,31.89903 97.62584,31.71331 97.16181,31.52708 96.698,31.34033 96.23439,31.15306 95.77099,30.96528 95.3078,30.77699 94.84482,30.58818 94.38205,30.39886 93.91949,30.20902 93.45714,30.01867 92.995,29.8278 92.53307,29.63642 92.07137,29.44453 91.60986,29.25213 91.14857,29.05921 90.68751,28.86578 90.22665,28.67184 89.76601,28.47738 89.3056,28.28242 88.84538,28.08694 88.3854,27.89095 87.92563,27.69445 87.46608,27.49744 87.00674,27.29992 86.54763,27.10189 86.08874,26.90335 85.63007,26.7043 85.17162,26.50474 84.71339,26.30467 84.25539,26.1041 83.7976,25.90301 83.34004,25.70141 82.88271,25.49931 82.4256,25.2967 81.96871,25.09358 81.51205,24.88995 81.05563,24.68582 80.59942,24.48118 80.14345,24.27603 79.6877,24.07038 79.23218,23.86421 78.77689,23.65755 78.32182,23.45037 77.867,23.2427 77.4124,23.03451 76.95803,22.82582 76.50389,22.61663 76.04999,22.40693 75.59632,22.19673 75.14288,21.98603 74.68968,21.77482 74.23672,21.5631 73.78399,21.35089 73.3315,21.13817 72.87923,20.92495 72.42722,20.71123 71.97543,20.497 71.52389,20.28227 71.07259,20.06704 70.62151,19.85131 70.17069,19.63508 69.7201,19.41835 69.26976,19.20111 68.81966,18.98338 68.3698,18.76515 67.92018,18.54642 67.4708,18.32718 67.02168,18.10745 66.57278,17.88722 66.12415,17.66649 65.67575,17.44526 65.2276,17.22354 64.77969,17.00132 64.33204,16.77859 63.88463,16.55538 63.43747,16.33166 62.99056,16.10745 62.5439,15.88274 62.09748,15.65754 61.65133,15.43184 61.20541,15.20564 60.75975,14.97895 60.31435,14.75176 59.86919,14.52408 59.42429,14.29591 58.97965,14.06724 58.53526,13.83807 58.09112,13.60842 57.64724,13.37827 57.20361,13.14762 56.76024,12.91649 56.31713,12.68486 55.87428,12.45274 55.43168,12.22012 54.98934,11.98702 54.54726,11.75342 54.10544,11.51934 53.66388,11.28476 53.22259,11.04969 52.78155,10.81413 52.34077,10.57808 51.90026,10.34155 51.46002,10.10452 51.02003,9.867002 50.58031,9.628996 50.14085,9.390503 49.70166,9.151522 49.26274,8.912052 48.82408,8.672095 48.38569,8.431651 47.94757,8.19072 47.50971,7.949302 47.07212,7.707397 46.6348,7.465007 46.19775,7.222131 45.76097,6.97877 45.32447,6.734923 44.88823,6.490592 44.45227,6.245776 44.01657,6.000475 43.58115,5.754691 "/>
<polygon points="390.9,89.9 390.8633,89.4018 390.754,88.91436 390.5744,88.44819 390.3285,88.01337 390.0215,87.61926 389.6601,87.2744 389.2521,86.98621 388.8062,86.76093 388.3322,86.60342 387.8401,86.51707 387.3408,86.50374 386.8448,86.56373 386.363,86.69575 385.9058,86.89693 385.4829,87.16294 385.1037,87.48804 384.7761,87.86521 384.5074,88.28631 384.3032,88.74223 384.1681,89.22316 384.1049,89.7187 384.1149,90.21814 384.1981,90.71072 384.3525,91.1858 384.5749,91.63313 384.8604,92.04303 385.2029,92.40668 385.595,92.71621 386.0283,92.96495 386.4932,93.14752 386.9799,93.25999 387.4779,93.29993 387.9763,93.26646 388.4645,93.16032 388.9318,92.98381 389.3682,92.74072 389.7643,92.43631 390.1115,92.07715 390.4023,91.67098 390.6305,91.22659 390.7911,90.75356 390.8806,90.2621 "/>
<polygon points="8.5,55.5 8.450167,55.00333 8.302652,54.52645 8.063339,54.08839 7.741767,53.70661 7.350756,53.39632 6.905894,53.1699 6.424918,53.03638 5.927001,53.00106 5.431994,53.06538 4.959632,53.22676 4.528747,53.47876 4.156515,53.81134 3.857778,54.21125 3.644444,54.66253 3.525018,55.1472 3.504263,55.64594 3.583005,56.13885 3.758104,56.6063 4.022581,57.02964 4.365891,57.39201 4.774347,57.67894 5.231667,57.87901 5.719617,57.98423 6.218746,57.99041 6.709153,57.89731 7.171289,57.70864 7.58673,57.43191 7.938913,57.07817 8.213798,56.66151 8.400425,56.19854 8.491355,55.70773 "/>
</svg>
