<svg version="1.1">
<polygon points="179.696,180.4888 179.696,183.7874 179.696,183.7874 181.296,183.7874 181.296,183.7874 181.296,200.1874 181.296,200.1874 155.796,200.1874 155.796,200.1874 155.796,183.7874 155.796,183.7874 156.896,183.7874 156.896,183.7874 156.896,180.4888 156.896,180.4888 153.5974,180.4888 153.5974,180.4888 153.5974,182.0888 153.5974,182.0888 155.1973,182.0888 155.1973,182.0888 155.1973,189.5888 155.1973,189.5888 155.1807,190.0884 155.1308,190.5858 155.0478,191.0788 154.9323,191.5651 154.7845,192.0427 154.6053,192.5094 154.3954,192.9631 154.1557,193.4018 153.8874,193.8236 153.5915,194.2265 153.2695,194.6089 152.9226,194.9689 152.5526,195.3051 152.161,195.6158 151.7496,195.8998 151.3202,196.1557 150.8747,196.3825 150.415,196.5791 149.9433,196.7446 149.4616,196.8783 148.9721,196.9796 148.4769,197.0481 147.9783,197.0835 147.6973,197.0888 45.69735,197.0888 45.69735,197.0888 45.19772,197.0721 44.70031,197.0222 44.20732,196.9393 43.72097,196.8237 43.24339,196.6759 42.77671,196.4967 42.32301,196.2868 41.8843,196.0471 41.46253,195.7788 41.05957,195.4829 40.67722,195.1609 40.31718,194.8141 39.98103,194.444 39.67028,194.0524 39.38631,193.641 39.13038,193.2116 38.90363,192.7661 38.70705,192.3064 38.54154,191.8347 38.40781,191.353 38.30647,190.8635 38.23797,190.3683 38.20261,189.8697 38.19735,189.5888 38.19735,182.0888 38.19735,182.0888 39.79734,182.0888 39.79734,182.0888 39.79734,180.4888 39.79734,180.4888 36.49867,180.4888 36.49867,180.4888 36.49867,183.0888 36.49867,183.0888 13.69867,183.0888 13.69867,183.0888 13.69867,182.0888 13.69867,182.0888 0,182.0888 0,182.0888 0,168.5888 0,168.5888 0.08256897,168.098 0.3211764,167.6612 0.6895552,167.3266 1.147153,167.1309 1.5,167.0888 4.5,167.0888 4.5,167.0888 4.990793,167.0062 5.427557,166.7676 5.762209,166.3992 5.957909,165.9416 6,165.5888 6,153.5888 6.000004,153.5888 5.917436,153.098 5.678829,152.6612 5.310451,152.3266 4.852854,152.1309 4.5,152.0888 1.5,152.0888 1.5,152.0888 1.009207,152.0062 0.5724436,151.7676 0.2377913,151.3992 0.04209174,150.9416 0,150.5888 0,143.5888 0,143.5888 0.08256897,143.098 0.3211764,142.6612 0.6895552,142.3266 1.147153,142.1309 1.5,142.0888 4.5,142.0888 4.5,142.0888 4.990793,142.0062 5.427557,141.7676 5.762209,141.3992 5.957909,140.9416 6,140.5888 6,128.5888 6.000004,128.5888 5.917436,128.098 5.678829,127.6612 5.310451,127.3266 4.852854,127.1309 4.5,127.0888 1.5,127.0888 1.5,127.0888 1.009208,127.0062 0.5724449,126.7676 0.2377926,126.3992 0.04209163,125.9416 0,125.5888 0,18.08876 0,18.08876 13.69867,18.08876 13.69867,18.08876 13.69867,17.08876 13.69867,17.08876 36.49867,17.08876 36.49867,17.08876 36.49867,19.68876 36.49867,19.68876 39.79734,19.68876 39.79734,19.68876 39.79734,18.08876 39.79734,18.08876 38.19735,18.08876 38.19735,18.08876 38.19735,10.58876 38.19735,10.58876 38.214,10.08913 38.26391,9.591724 38.34684,9.098744 38.46243,8.612384 38.61017,8.134804 38.78939,7.668126 38.9993,7.214425 39.23896,6.775714 39.50732,6.353945 39.80319,5.95099 40.12524,5.56864 40.47204,5.208593 40.84206,4.872449 41.23365,4.561701 41.64508,4.277731 42.0745,4.0218 42.52002,3.795043 42.97966,3.598471 43.45137,3.432954 43.93306,3.29923 44.42259,3.197891 44.91778,3.129389 45.41644,3.094027 45.69735,3.088764 147.6973,3.088764 147.6973,3.088764 148.197,3.105424 148.6944,3.155332 149.1874,3.238265 149.6737,3.353854 150.1513,3.501587 150.618,3.680806 151.0717,3.890717 151.5104,4.130385 151.9322,4.398746 152.3351,4.694609 152.7175,5.016658 153.0775,5.363463 153.4137,5.733483 153.7244,6.125074 154.0084,6.536496 154.2643,6.965921 154.4911,7.411442 154.6876,7.87108 154.8531,8.342791 154.9869,8.824481 155.0882,9.314009 155.1567,9.8092 155.1921,10.30786 155.1973,10.58876 155.1973,18.08876 155.1973,18.08876 153.5974,18.08876 153.5974,18.08876 153.5974,19.68876 153.5974,19.68876 156.896,19.68876 156.896,19.68876 156.896,16.4 156.896,16.4 155.796,16.4 155.796,16.4 155.796,1.07E-14 155.796,1.07E-14 181.296,1.07E-14 181.296,1.07E-14 181.296,16.4 181.296,16.4 179.696,16.4 179.696,16.4 179.696,19.68876 179.696,19.68876 182.9848,19.68876 182.9848,19.68876 182.9848,18.08876 182.9848,18.08876 199.3848,18.08876 199.3848,18.08876 199.3848,30.08876 199.3848,30.08876 165.296,30.08876 165.296,30.08876 165.296,170.0888 165.296,170.0888 199.3919,170.0888 199.3919,170.0888 199.3919,182.0888 199.3919,182.0888 182.9919,182.0888 182.9919,182.0888 182.9919,180.4888 182.9919,180.4888 179.7031,180.4888 "/>
<polygon points="145.9076,193.6888 149.4871,193.6888 149.4871,193.6888 151.2769,190.5888 151.2769,190.5888 149.4871,187.4888 149.4871,187.4888 145.9076,187.4888 145.9076,187.4888 144.1178,190.5888 144.1178,190.5888 145.9076,193.6888 "/>
<polygon points="124.2597,173.9901 124.2118,173.4931 124.0698,173.0145 123.8389,172.5719 123.5277,172.1815 123.1476,171.8579 122.7127,171.6128 122.2389,171.4554 121.7438,171.3914 121.2456,171.4233 120.7626,171.5497 120.3128,171.7662 119.9126,172.0646 119.5768,172.434 119.3178,172.8608 119.1451,173.3293 119.0652,173.8221 119.0809,174.321 119.1917,174.8078 119.3935,175.2645 119.6788,175.6741 120.0372,176.0217 120.4554,176.2943 120.918,176.482 121.4079,176.5778 121.9072,176.5783 122.3973,176.4833 122.8602,176.2963 123.2788,176.0244 123.6378,175.6774 123.9238,175.2683 124.1264,174.812 124.238,174.3254 "/>
<polygon points="124.2597,26.18746 124.2118,25.69054 124.0698,25.21194 123.8389,24.7693 123.5277,24.37895 123.1476,24.05527 122.7127,23.81021 122.2389,23.65279 121.7438,23.58883 121.2456,23.62066 120.7626,23.74714 120.3128,23.96358 119.9126,24.26202 119.5768,24.63144 119.3178,25.05823 119.1451,25.52666 119.0652,26.01945 119.0809,26.51843 119.1917,27.00521 119.3935,27.46184 119.6788,27.87149 120.0372,28.21905 120.4554,28.4917 120.918,28.67941 121.4079,28.77524 121.9072,28.77566 122.3973,28.68066 122.8602,28.49374 123.2788,28.22179 123.6378,27.87484 123.9238,27.46568 124.1264,27.00939 124.238,26.5228 "/>
<polygon points="7.6,24.08876 7.552071,23.59184 7.410051,23.11324 7.179177,22.6706 6.867959,22.28025 6.487873,21.95658 6.052932,21.71151 5.57917,21.55409 5.084056,21.49012 4.585842,21.52196 4.102898,21.64844 3.653028,21.86488 3.25282,22.16331 2.917027,22.53274 2.65803,22.95953 2.485377,23.42795 2.405435,23.92074 2.42115,24.41972 2.531944,24.9065 2.733731,25.36314 3.019072,25.77278 3.377446,26.12034 3.795642,26.393 4.258241,26.58071 4.748187,26.67654 5.247417,26.67697 5.737525,26.58197 6.200442,26.39505 6.6191,26.1231 6.978065,25.77615 7.264101,25.36698 7.466663,24.91069 7.578284,24.4241 "/>
<polygon points="56.84814,174.0917 56.80022,173.5947 56.6582,173.1161 56.42732,172.6735 56.1161,172.2831 55.73602,171.9595 55.30107,171.7144 54.82732,171.557 54.3322,171.493 53.83399,171.5249 53.35104,171.6513 52.90117,171.8678 52.50097,172.1662 52.16517,172.5356 51.90617,172.9624 51.73352,173.4308 51.65358,173.9236 51.6693,174.4226 51.78009,174.9094 51.98188,175.366 52.26722,175.7757 52.6256,176.1232 53.04379,176.3959 53.50639,176.5836 53.99634,176.6794 54.49557,176.6799 54.98568,176.5849 55.44859,176.3979 55.86725,176.126 56.22622,175.779 56.51225,175.3699 56.71481,174.9136 56.82643,174.427 "/>
<polygon points="7.6,176.0888 7.552071,175.5918 7.410051,175.1132 7.179177,174.6706 6.867959,174.2802 6.487873,173.9566 6.052932,173.7115 5.57917,173.5541 5.084056,173.4901 4.585842,173.522 4.102898,173.6484 3.653028,173.8649 3.25282,174.1633 2.917027,174.5327 2.65803,174.9595 2.485377,175.4279 2.405435,175.9207 2.42115,176.4197 2.531944,176.9065 2.733731,177.3631 3.019072,177.7728 3.377446,178.1203 3.795642,178.393 4.258241,178.5807 4.748187,178.6765 5.247417,178.677 5.737525,178.582 6.200442,178.3951 6.6191,178.1231 6.978065,177.7761 7.264101,177.367 7.466663,176.9107 7.578284,176.4241 "/>
<polygon points="56.74654,26.08586 56.69862,25.58894 56.55659,25.11034 56.32572,24.6677 56.0145,24.27735 55.63442,23.95367 55.19947,23.70861 54.72572,23.55119 54.2306,23.48722 53.73239,23.51906 53.24944,23.64554 52.79957,23.86198 52.39936,24.16042 52.06357,24.52984 51.80457,24.95663 51.63192,25.42506 51.55198,25.91784 51.5677,26.41683 51.67849,26.90361 51.88028,27.36024 52.16562,27.76989 52.524,28.11745 52.94219,28.3901 53.40479,28.57781 53.89474,28.67364 54.39397,28.67406 54.88408,28.57906 55.34699,28.39214 55.76565,28.12019 56.12461,27.77324 56.41065,27.36408 56.61321,26.90779 56.72483,26.4212 "/>
<polygon points="190.9848,24.08876 190.9369,23.59184 190.7948,23.11324 190.564,22.6706 190.2527,22.28025 189.8727,21.95657 189.4377,21.71151 188.964,21.55409 188.4688,21.49012 187.9706,21.52195 187.4877,21.64842 187.0378,21.86487 186.6376,22.1633 186.3018,22.53272 186.0428,22.95951 185.8702,23.42793 185.7902,23.92072 185.8059,24.4197 185.9167,24.90648 186.1185,25.36312 186.4038,25.77277 186.7622,26.12033 187.1804,26.393 187.643,26.58071 188.1329,26.67654 188.6322,26.67698 189.1223,26.58198 189.5852,26.39507 190.0039,26.12313 190.3628,25.77618 190.6489,25.36703 190.8514,24.91074 190.9631,24.42415 "/>
<polygon points="190.9919,176.0888 190.944,175.5918 190.802,175.1132 190.5711,174.6706 190.2599,174.2802 189.8798,173.9566 189.4448,173.7115 188.9711,173.5541 188.476,173.4901 187.9777,173.522 187.4948,173.6484 187.0449,173.8649 186.6447,174.1633 186.3089,174.5327 186.0499,174.9595 185.8773,175.4279 185.7973,175.9207 185.813,176.4197 185.9238,176.9065 186.1256,177.3631 186.4109,177.7728 186.7693,178.1203 187.1875,178.393 187.6501,178.5807 188.14,178.6765 188.6393,178.677 189.1294,178.582 189.5923,178.3951 190.011,178.1231 190.3699,177.7762 190.656,177.367 190.8586,176.9107 190.9702,176.4241 "/>
<polygon points="64.19734,191.0888 64.14751,190.5921 63.99999,190.1152 63.76068,189.6772 63.43911,189.2954 63.0481,188.9851 62.60323,188.7587 62.12226,188.6251 61.62434,188.5898 61.12933,188.6541 60.65697,188.8155 60.22609,189.0675 59.85386,189.4001 59.55512,189.8 59.34179,190.2513 59.22236,190.736 59.20161,191.2347 59.28035,191.7276 59.45545,192.1951 59.71993,192.6184 60.06324,192.9808 60.4717,193.2677 60.92902,193.4678 61.41697,193.573 61.9161,193.5792 62.40651,193.4861 62.86864,193.2974 63.28408,193.0207 63.63626,192.6669 63.91114,192.2502 64.09777,191.7873 64.1887,191.2965 "/>
<polygon points="64.19734,9.088764 64.14751,8.592091 63.99999,8.115218 63.76068,7.677158 63.43911,7.295374 63.0481,6.985087 62.60323,6.758667 62.12226,6.625141 61.62434,6.589832 61.12933,6.654148 60.65697,6.815524 60.22609,7.067527 59.85386,7.400111 59.55512,7.800017 59.34179,8.251301 59.22236,8.735971 59.20161,9.234707 59.28035,9.727624 59.45545,10.19507 59.71993,10.61841 60.06324,10.98078 60.4717,11.26771 60.92902,11.46777 61.41697,11.57299 61.9161,11.57917 62.40651,11.48607 62.86864,11.29739 63.28408,11.02067 63.63626,10.66692 63.91114,10.25026 64.09777,9.787288 64.1887,9.296472 "/>
<polygon points="134.1973,9.088764 134.1475,8.592091 134,8.115218 133.7607,7.677158 133.4391,7.295374 133.0481,6.985086 132.6032,6.758667 132.1223,6.62514 131.6243,6.58983 131.1293,6.654145 130.657,6.815521 130.2261,7.067523 129.8539,7.400107 129.5551,7.800012 129.3418,8.251295 129.2224,8.735966 129.2016,9.2347 129.2803,9.727617 129.4554,10.19507 129.7199,10.61841 130.0632,10.98077 130.4717,11.2677 130.929,11.46777 131.417,11.57299 131.9161,11.57918 132.4065,11.48608 132.8686,11.2974 133.2841,11.02068 133.6363,10.66693 133.9111,10.25027 134.0978,9.787307 134.1887,9.296492 "/>
<polygon points="134.1973,191.0888 134.1475,190.5921 134,190.1152 133.7607,189.6772 133.4391,189.2954 133.0481,188.9851 132.6032,188.7587 132.1223,188.6251 131.6243,188.5898 131.1293,188.6541 130.657,188.8155 130.2261,189.0675 129.8539,189.4001 129.5551,189.8 129.3418,190.2513 129.2224,190.736 129.2016,191.2347 129.2803,191.7276 129.4554,192.1951 129.7199,192.6184 130.0632,192.9808 130.4717,193.2677 130.929,193.4678 131.417,193.573 131.9161,193.5792 132.4065,193.4861 132.8686,193.2974 133.2841,193.0207 133.6363,192.6669 133.9111,192.2503 134.0978,191.7873 134.1887,191.2965 "/>
</svg>
