<svg version="1.1">
<polygon points="0,0 0,35 0,35 9.5,35 9.5,35 9.5,15 9.5,15 65.5,15 65.5,15 65.5,35 65.5,35 75,35 75,35 75,0 75,0 0,0 "/>
<polygon points="70.5,30 70.41743,29.50921 70.17883,29.07244 69.81046,28.73779 69.35286,28.54209 68.85641,28.50689 68.37578,28.63605 67.96386,28.91537 67.66601,29.31409 67.51501,29.78832 67.52749,30.28585 67.70207,30.75191 68.01953,31.1352 68.44493,31.39352 68.93144,31.49843 69.42549,31.43839 69.8727,31.21999 70.22385,30.8673 70.44025,30.41912 "/>
<polygon points="17.5,7.5 17.41743,7.009208 17.17883,6.572445 16.81045,6.237793 16.35286,6.042093 15.85641,6.006888 15.37578,6.136054 14.96386,6.415371 14.66601,6.814091 14.51501,7.28832 14.52749,7.785851 14.70207,8.251915 15.01953,8.635203 15.44493,8.893521 15.93144,8.998432 16.42549,8.938387 16.87271,8.719995 17.22384,8.367297 17.44026,7.919123 "/>
<polygon points="7.5,30 7.417436,29.50921 7.178831,29.07244 6.810453,28.73779 6.352856,28.54209 5.856415,28.50689 5.37578,28.63605 4.963863,28.91537 4.66601,29.31409 4.515011,29.78832 4.527489,30.28585 4.70207,30.75191 5.019535,31.1352 5.444935,31.39352 5.93144,31.49843 6.425493,31.43839 6.872705,31.21999 7.223845,30.8673 7.440256,30.41912 "/>
<polygon points="60.5,7.5 60.41743,7.009208 60.17883,6.572445 59.81046,6.237793 59.35286,6.042093 58.85641,6.006888 58.37578,6.136054 57.96386,6.415371 57.66601,6.814091 57.51501,7.28832 57.52749,7.785851 57.70207,8.251915 58.01954,8.635203 58.44493,8.893521 58.93144,8.998432 59.42549,8.938387 59.8727,8.719995 60.22384,8.367297 60.44025,7.919123 "/>
</svg>
