<svg version="1.1">
<polygon points="0,170 0.002499979,170.5 0.009999666,170.9999 0.02249831,171.4998 0.03999466,171.9995 0.06248698,172.499 0.089973,172.9982 0.12245,173.4971 0.1599147,173.9957 0.2023633,174.4939 0.2497917,174.9917 0.3021951,175.4889 0.3595683,175.9856 0.4219054,176.4817 0.4892003,176.9772 0.5614463,177.4719 0.6386361,177.9659 0.720762,178.4591 0.8078157,178.9515 0.8997887,179.4429 0.9966716,179.9335 1.098455,180.423 1.205128,180.9115 1.316681,181.3989 1.433102,181.8851 1.554379,182.3702 1.680501,182.854 1.811455,183.3366 1.947228,183.8178 2.087806,184.2976 2.233175,184.776 2.383321,185.2529 2.538229,185.7283 2.697882,186.2021 2.862266,186.6743 3.031363,187.1449 3.205158,187.6137 3.383631,188.0808 3.566767,188.546 3.754545,189.0094 3.946949,189.4709 4.143957,189.9305 4.345551,190.388 4.55171,190.8435 4.762414,191.297 4.977642,191.7483 5.197372,192.1974 5.421582,192.6443 5.65025,193.089 5.883353,193.5313 6.120868,193.9713 6.362771,194.4089 6.609036,194.844 6.859642,195.2767 7.114561,195.7068 7.373769,196.1344 7.637239,196.5593 7.904945,196.9816 8.176862,197.4012 8.45296,197.818 8.733212,198.2321 9.017592,198.6434 9.30607,199.0517 9.598618,199.4572 9.895205,199.8598 10.1958,200.2593 10.50038,200.6558 10.80891,201.0493 11.12136,201.4396 11.43769,201.8268 11.75788,202.2109 12.0819,202.5917 12.4097,202.9692 12.74127,203.3435 13.07656,203.7144 13.41555,204.0819 13.75819,204.4461 14.10445,204.8067 14.45431,205.164 14.80772,205.5177 15.16465,205.8678 15.52506,206.2143 15.88893,206.5573 16.2562,206.8966 16.62684,207.2321 17.00083,207.564 17.37811,207.8921 17.75866,208.2164 18.14243,208.5369 18.52938,208.8536 18.91949,209.1663 19.31269,209.4752 19.70897,209.7801 20.10828,210.081 20.51058,210.3779 20.91583,210.6708 21.32398,210.9596 21.735,211.2443 22.14885,211.5249 22.56549,211.8013 22.98486,212.0735 23.40694,212.3416 23.83168,212.6054 24.25904,212.8649 24.68896,213.1202 25.12142,213.3712 25.55637,213.6178 25.99376,213.86 26.43356,214.0979 26.87571,214.3313 27.32017,214.5603 27.7669,214.7849 28.21585,215.005 28.66698,215.2206 29.12025,215.4317 29.5756,215.6382 30.033,215.8401 30.49239,216.0375 30.95373,216.2303 31.41698,216.4184 31.88208,216.6019 32.349,216.7808 32.81768,216.955 33.28808,217.1244 33.76015,217.2892 34.23385,217.4492 34.70912,217.6045 35.18592,217.755 35.66421,217.9008 36.14392,218.0417 36.62502,218.1779 37.10746,218.3092 37.59119,218.4357 38.07616,218.5574 38.56232,218.6742 39.04963,218.7862 39.53803,218.8932 40.02748,218.9954 40.51792,219.0927 41.00931,219.185 41.50161,219.2725 41.99474,219.355 42.48869,219.4326 42.98338,219.5052 43.47878,219.5729 43.97482,219.6357 44.47147,219.6934 44.96867,219.7462 45.46638,219.794 45.96453,219.8369 46.4631,219.8747 46.96201,219.9076 47.46123,219.9355 47.9607,219.9584 48.46038,219.9763 48.96021,219.9892 49.46015,219.9971 49.96014,220 50.46013,219.9979 50.96008,219.9908 51.45994,219.9787 51.95965,219.9616 52.45916,219.9395 52.95843,219.9124 53.4574,219.8803 53.95603,219.8432 54.45426,219.8012 54.95205,219.7542 55.44934,219.7022 55.94608,219.6452 56.44223,219.5832 56.93774,219.5163 57.43255,219.4445 57.92662,219.3677 58.4199,219.2859 58.91233,219.1993 59.40387,219.1077 59.89448,219.0112 60.38409,218.9098 60.87267,218.8035 61.36015,218.6924 61.8465,218.5763 62.33167,218.4554 62.81561,218.3297 63.29826,218.1991 63.77958,218.0637 64.25953,217.9235 64.73804,217.7785 65.21509,217.6288 65.69061,217.4743 66.16457,217.315 66.6369,217.151 67.10757,216.9822 67.57654,216.8088 68.04375,216.6307 68.50915,216.4479 68.9727,216.2605 69.43435,216.0685 69.89406,215.8718 70.35178,215.6706 70.80746,215.4648 71.26107,215.2545 71.71255,215.0396 72.16186,214.8202 72.60895,214.5964 73.05377,214.368 73.4963,214.1353 73.93647,213.8981 74.37425,213.6566 74.8096,213.4106 75.24246,213.1604 75.6728,212.9058 76.10057,212.6469 76.52573,212.3838 76.94824,212.1164 77.36805,211.8448 77.78513,211.5691 78.19942,211.2891 78.6109,211.0051 79.01952,210.7169 79.42524,210.4247 79.82801,210.1284 80.2278,209.8281 80.62457,209.5239 81.01827,209.2157 81.40887,208.9035 81.79633,208.5875 82.18062,208.2676 82.56168,207.9439 82.93948,207.6164 83.314,207.2851 83.68518,206.9501 84.05299,206.6114 84.4174,206.269 84.77837,205.923 85.13586,205.5735 85.48983,205.2203 85.84026,204.8637 86.1871,204.5035 86.53033,204.1399 86.8699,203.7729 87.20578,203.4025 87.53794,203.0288 87.86635,202.6518 88.19097,202.2715 88.51177,201.888 88.82873,201.5013 89.14179,201.1114 89.45095,200.7184 89.75616,200.3224 90.05739,199.9233 90.35462,199.5213 90.64781,199.1162 90.93694,198.7083 91.22198,198.2975 91.50288,197.8839 91.77965,197.4675 92.05223,197.0483 92.32061,196.6264 92.58475,196.2019 92.84464,195.7747 93.10024,195.345 93.35154,194.9127 93.5985,194.478 93.84109,194.0408 94.07931,193.6012 94.31311,193.1592 94.54249,192.7149 94.76741,192.2683 94.98785,191.8196 95.2038,191.3686 95.41522,190.9155 95.6221,190.4603 95.82442,190.0031 96.02216,189.5438 96.21529,189.0826 96.40381,188.6195 96.58768,188.1546 96.7669,187.6878 96.94144,187.2192 97.11128,186.7489 97.27641,186.277 97.43681,185.8034 97.59248,185.3283 97.74338,184.8516 97.8895,184.3734 98.03085,183.8938 98.16738,183.4128 98.2991,182.9305 98.42599,182.4468 98.54803,181.962 98.66522,181.4759 98.77755,180.9887 98.88499,180.5003 98.98756,180.011 99.08521,179.5206 99.17796,179.0293 99.2658,178.537 99.3487,178.044 99.42667,177.5501 99.4997,177.0554 99.56779,176.5601 99.63091,176.0641 99.68906,175.5675 99.74226,175.0703 99.79047,174.5726 99.83371,174.0745 99.87196,173.576 99.90523,173.0771 99.9335,172.5779 99.95678,172.0784 99.97507,171.5788 99.98836,171.0789 99.99665,170.579 99.99994,170.079 100,170 100,15 100,15 85,0 85,0 15,0 15,0 0,15 0,15 0,170 "/>
<polygon points="75,170 74.995,169.5 74.98,169.0003 74.95502,168.5009 74.92004,168.0021 74.87511,167.5042 74.82021,167.0072 74.7554,166.5114 74.68068,166.017 74.59609,165.5243 74.50166,165.0333 74.39744,164.5443 74.28345,164.0574 74.15975,163.573 74.02638,163.0911 73.88342,162.612 73.73089,162.1358 73.56886,161.6628 73.39742,161.1931 73.21661,160.727 73.02653,160.2645 72.82722,159.806 72.61879,159.3515 72.40131,158.9013 72.17487,158.4555 71.93956,158.0144 71.69548,157.578 71.44272,157.1466 71.18138,156.7204 70.91157,156.2994 70.63339,155.8839 70.34696,155.4741 70.0524,155.0701 69.74981,154.6721 69.43932,154.2802 69.12106,153.8946 68.79514,153.5154 68.46172,153.1428 68.1209,152.777 67.77284,152.418 67.41767,152.0661 67.05553,151.7214 66.68658,151.3839 66.31094,151.0539 65.92878,150.7315 65.54025,150.4168 65.14551,150.11 64.74471,149.8111 64.33801,149.5202 63.92557,149.2376 63.50756,148.9632 63.08416,148.6973 62.65551,148.4399 62.22181,148.1911 61.78322,147.9511 61.33991,147.7198 60.89207,147.4975 60.43987,147.2842 59.9835,147.0799 59.52313,146.8849 59.05896,146.699 58.59116,146.5225 58.11992,146.3554 57.64544,146.1977 57.16789,146.0496 56.68748,145.9111 56.2044,145.7821 55.71883,145.6629 55.23098,145.5534 54.74104,145.4537 54.2492,145.3638 53.75565,145.2837 53.26061,145.2135 52.76426,145.1533 52.26681,145.103 51.76845,145.0626 51.26938,145.0322 50.7698,145.0119 50.26992,145.0014 49.76993,145.0011 49.27003,145.0107 48.77042,145.0303 48.27131,145.0598 47.77288,145.0994 47.27535,145.1489 46.77891,145.2084 46.28375,145.2778 45.79008,145.357 45.2981,145.4461 44.80799,145.5451 44.31997,145.6538 43.83421,145.7723 43.35093,145.9004 42.8703,146.0382 42.39252,146.1856 41.91778,146.3425 41.44628,146.5089 40.9782,146.6846 40.51373,146.8697 40.05305,147.064 39.59635,147.2675 39.14381,147.4802 38.69562,147.7018 38.25195,147.9323 37.81297,148.1717 37.37887,148.4198 36.94982,148.6765 36.52599,148.9417 36.10754,149.2154 35.69466,149.4974 35.28749,149.7876 34.88622,150.0858 34.49098,150.3921 34.10195,150.7062 33.71928,151.028 33.34312,151.3573 32.97363,151.6942 32.61094,152.0384 32.25521,152.3897 31.90657,152.7481 31.56518,153.1134 31.23116,153.4854 30.90464,153.8641 30.58576,154.2492 30.27465,154.6406 29.97143,155.0382 29.67622,155.4417 29.38914,155.8511 29.1103,156.2661 28.83982,156.6866 28.5778,157.1124 28.32435,157.5434 28.07957,157.9794 27.84356,158.4202 27.61641,158.8656 27.39821,159.3155 27.18906,159.7696 26.98903,160.2278 26.7982,160.69 26.61665,161.1559 26.44445,161.6253 26.28168,162.098 26.1284,162.5739 25.98466,163.0528 25.85053,163.5345 25.72606,164.0187 25.61129,164.5054 25.50628,164.9942 25.41108,165.485 25.3257,165.9777 25.25019,166.472 25.18459,166.9676 25.12891,167.4645 25.08317,167.9624 25.04741,168.4611 25.02162,168.9604 25.00583,169.4602 25.00003,169.9601 25.00423,170.4601 25.01843,170.9599 25.04263,171.4593 25.07681,171.9581 25.12095,172.4562 25.17505,172.9532 25.23907,173.4491 25.313,173.9436 25.39681,174.4366 25.49046,174.9277 25.5939,175.4169 25.70712,175.9039 25.83005,176.3885 25.96264,176.8706 26.10486,177.35 26.25663,177.8264 26.41789,178.2997 26.58859,178.7696 26.76866,179.2361 26.95801,179.6988 27.15659,180.1577 27.3643,180.6125 27.58106,181.063 27.80679,181.5092 28.0414,181.9507 28.2848,182.3875 28.53687,182.8193 28.79754,183.246 29.06668,183.6673 29.3442,184.0833 29.62998,184.4935 29.92391,184.898 30.22586,185.2965 30.53573,185.6889 30.85338,186.075 31.1787,186.4547 31.51154,186.8279 31.85177,187.1942 32.19926,187.5537 32.55388,187.9062 32.91547,188.2515 33.2839,188.5896 33.65901,188.9202 34.04066,189.2432 34.4287,189.5585 34.82296,189.866 35.22329,190.1655 35.62953,190.457 36.04152,190.7403 36.4591,191.0153 36.88208,191.2819 37.31032,191.54 37.74364,191.7895 38.18185,192.0302 38.62479,192.2622 39.07229,192.4852 39.52415,192.6993 39.98021,192.9042 40.44027,193.1 40.90415,193.2866 41.37168,193.4639 41.84265,193.6317 42.31689,193.7901 42.7942,193.939 43.27439,194.0783 43.75728,194.208 44.24266,194.328 44.73034,194.4383 45.22013,194.5388 45.71184,194.6295 46.20526,194.7103 46.7002,194.7813 47.19645,194.8423 47.69383,194.8934 48.19213,194.9345 48.69115,194.9657 49.1907,194.9869 49.69057,194.9981 50.19057,194.9993 50.69048,194.9905 51.19013,194.9716 51.68929,194.9429 52.18778,194.9041 52.6854,194.8553 53.18194,194.7967 53.67721,194.7281 54.17101,194.6496 54.66314,194.5612 55.1534,194.4631 55.6416,194.3551 56.12755,194.2374 56.61104,194.11 57.09189,193.973 57.56991,193.8264 58.04489,193.6702 58.51666,193.5046 58.98502,193.3296 59.44979,193.1452 59.91078,192.9516 60.3678,192.7488 60.82068,192.5369 61.26923,192.316 61.71327,192.0862 62.15262,191.8475 62.58712,191.6001 63.01657,191.3441 63.44083,191.0795 63.85971,190.8065 64.27304,190.5251 64.68066,190.2356 65.08241,189.9379 65.47813,189.6323 65.86766,189.3188 66.25084,188.9976 66.62753,188.6688 66.99755,188.3326 67.36079,187.989 67.71707,187.6382 68.06627,187.2803 68.40824,186.9156 68.74285,186.5441 69.06997,186.1659 69.38945,185.7813 69.70118,185.3904 70.00503,184.9933 70.30088,184.5902 70.58861,184.1813 70.8681,183.7667 71.13924,183.3466 71.40193,182.9212 71.65606,182.4906 71.90153,182.055 72.13823,181.6146 72.36608,181.1695 72.58498,180.72 72.79486,180.2662 72.99561,179.8083 73.18716,179.3464 73.36945,178.8808 73.54238,178.4117 73.70589,177.9392 73.85992,177.4635 74.00442,176.9848 74.13931,176.5034 74.26453,176.0193 74.38007,175.5329 74.48584,175.0442 74.58182,174.5535 74.66797,174.061 74.74425,173.5668 74.81063,173.0712 74.86709,172.5744 74.9136,172.0766 74.95015,171.578 74.97672,171.0787 74.99329,170.5789 74.99988,170.079 "/>
<polygon points="89,25 88.96879,24.5013 88.87565,24.01038 88.72203,23.53491 88.51033,23.0823 88.24385,22.65961 87.92676,22.27345 87.56399,21.92983 87.16121,21.63412 86.72471,21.39093 86.26129,21.20406 85.77819,21.07643 85.28295,21.01002 84.78329,21.00587 84.28702,21.06406 83.80186,21.18366 83.33541,21.36281 82.89494,21.59872 82.4873,21.88771 82.11889,22.22526 81.79543,22.60611 81.52197,23.02432 81.30279,23.47335 81.1413,23.94621 81.04003,24.43552 81.00055,24.93363 81.02348,25.43278 81.10847,25.92517 81.25417,26.40313 81.45834,26.85919 81.71776,27.28624 82.0284,27.67762 82.38542,28.02721 82.78324,28.32956 83.21564,28.57996 83.6759,28.77449 84.15681,28.91012 84.65089,28.98474 85.15041,28.99717 85.64758,28.94723 86.13464,28.8357 86.604,28.66431 87.04834,28.43574 87.46071,28.15356 87.83468,27.82216 88.16441,27.44673 88.44476,27.03312 88.67137,26.58778 88.84068,26.11767 88.95006,25.63011 88.9978,25.13272 "/>
<polygon points="54,25 53.96879,24.5013 53.87565,24.01038 53.72203,23.53491 53.51033,23.0823 53.24385,22.65961 52.92675,22.27345 52.56399,21.92983 52.16121,21.63412 51.7247,21.39093 51.26129,21.20406 50.77819,21.07643 50.28295,21.01002 49.78329,21.00587 49.28702,21.06406 48.80187,21.18366 48.33541,21.36281 47.89494,21.59872 47.4873,21.88771 47.11889,22.22526 46.79543,22.60611 46.52197,23.02432 46.30279,23.47335 46.1413,23.94621 46.04003,24.43552 46.00055,24.93363 46.02348,25.43278 46.10846,25.92517 46.25417,26.40313 46.45833,26.85919 46.71776,27.28624 47.02841,27.67762 47.38542,28.02721 47.78324,28.32956 48.21564,28.57996 48.6759,28.77449 49.15681,28.91012 49.65088,28.98474 50.15041,28.99717 50.64758,28.94723 51.13464,28.8357 51.604,28.66431 52.04834,28.43574 52.4607,28.15356 52.83467,27.82216 53.16441,27.44673 53.44477,27.03312 53.67137,26.58778 53.84068,26.11767 53.95006,25.63011 53.9978,25.13272 "/>
<polygon points="19,25 18.96879,24.5013 18.87565,24.01038 18.72203,23.53491 18.51033,23.0823 18.24385,22.65961 17.92676,22.27345 17.56399,21.92983 17.16121,21.63412 16.72471,21.39093 16.26129,21.20406 15.77819,21.07643 15.28295,21.01002 14.78329,21.00587 14.28702,21.06406 13.80187,21.18366 13.33541,21.36281 12.89494,21.59872 12.48731,21.88771 12.11889,22.22526 11.79543,22.60611 11.52197,23.02432 11.30279,23.47335 11.1413,23.94621 11.04003,24.43552 11.00055,24.93363 11.02348,25.43278 11.10846,25.92517 11.25417,26.40313 11.45833,26.85919 11.71776,27.28624 12.02841,27.67762 12.38542,28.02721 12.78324,28.32956 13.21565,28.57996 13.6759,28.77449 14.15681,28.91012 14.65088,28.98474 15.1504,28.99717 15.64758,28.94723 16.13464,28.8357 16.60401,28.66431 17.04834,28.43574 17.4607,28.15356 17.83467,27.82216 18.16441,27.44673 18.44477,27.03312 18.67137,26.58778 18.84068,26.11767 18.95006,25.63011 18.9978,25.13272 "/>
</svg>
