<svg version="1.1">
<polygon points="110.322,127.2641 101.3156,97.68485 101.3156,97.68485 89.83598,101.1802 89.83598,101.1802 86.8838,91.48444 86.8838,91.48444 86.4827,91.18594 86.09143,90.87469 85.71037,90.551 85.33991,90.21523 84.98045,89.86772 84.63235,89.50882 84.29598,89.13891 83.97169,88.75837 83.6598,88.3676 83.36065,87.96699 83.07454,87.55697 82.80177,87.13795 82.54261,86.71038 82.29735,86.27469 82.06622,85.83134 81.84949,85.38078 81.64735,84.92348 81.46004,84.45992 81.28773,83.99057 81.13061,83.51592 80.98884,83.03647 80.86257,82.5527 80.75193,82.06511 80.65703,81.57423 80.57796,81.08054 80.51483,80.58456 80.46768,80.08681 80.43656,79.5878 80.42152,79.08805 80.42256,78.58807 80.43969,78.08839 80.47288,77.58951 80.52209,77.09196 80.5873,76.59624 80.66841,76.10289 80.76536,75.6124 80.87803,75.12528 81.00632,74.64204 81.15008,74.16318 81.30917,73.68919 81.48344,73.22056 81.67268,72.75777 81.87672,72.30132 82.09533,71.85167 82.32829,71.40929 82.57537,70.97462 82.8363,70.54813 83.11082,70.13026 83.39864,69.72143 83.69946,69.32207 84.01296,68.93259 84.33884,68.55341 84.67675,68.1849 85.02634,67.82745 85.38725,67.48144 85.75909,67.14722 86.1415,66.82513 86.53407,66.5155 86.8838,66.25636 89.83598,56.56059 89.83598,56.56059 101.3156,60.05595 101.3156,60.05595 110.322,30.4767 110.322,30.4767 10.22853,0 10.22853,0 0,33.59318 0,33.59318 0,124.1476 0,124.1476 10.22853,157.7408 10.22853,157.7408 110.322,127.2641 "/>
<polygon points="23.06,78.8704 23.01976,78.37257 22.9001,77.88765 22.70412,77.42825 22.43691,77.00629 22.1054,76.63271 21.7182,76.31721 21.28536,76.068 20.81811,75.89153 20.32859,75.79239 19.82951,75.77315 19.33381,75.8343 18.85436,75.97427 18.40362,76.18941 17.99327,76.47415 17.63398,76.82109 17.33507,77.22123 17.1043,77.66418 16.94765,78.13844 16.8692,78.6317 16.87099,79.13115 16.95295,79.62384 17.11298,80.09697 17.3469,80.53825 17.64867,80.93625 18.01042,81.28062 18.42279,81.56242 18.87506,81.77435 19.35549,81.91089 19.85162,81.96851 20.35055,81.9457 20.83935,81.84306 21.30533,81.66326 21.73638,81.41096 22.12132,81.09272 22.45015,80.71679 22.71435,80.29292 22.90704,79.83214 23.02324,79.34638 "/>
<polygon points="53.06,78.8704 53.01976,78.37257 52.9001,77.88765 52.70412,77.42825 52.4369,77.00629 52.1054,76.63271 51.7182,76.31721 51.28535,76.068 50.81811,75.89153 50.32859,75.79239 49.8295,75.77315 49.33381,75.8343 48.85436,75.97427 48.40361,76.18942 47.99327,76.47416 47.63398,76.8211 47.33507,77.22124 47.10429,77.66418 46.94765,78.13844 46.86921,78.63171 46.87099,79.13116 46.95296,79.62385 47.11298,80.09698 47.34691,80.53826 47.64867,80.93626 48.01043,81.28062 48.4228,81.56242 48.87507,81.77435 49.3555,81.91089 49.85162,81.96851 50.35056,81.94569 50.83936,81.84306 51.30533,81.66326 51.73638,81.41096 52.12132,81.09271 52.45015,80.71678 52.71435,80.29292 52.90704,79.83212 53.02324,79.34637 "/>
</svg>
