<svg version="1.1">
<polygon points="23.85388,82.51566 23.35449,82.53717 22.85862,82.60017 22.36972,82.70423 21.89117,82.84862 21.4263,83.03234 20.97834,83.25413 20.5504,83.51242 20.14544,83.80544 19.76627,84.13116 19.41553,84.4873 19.09566,84.8714 18.80886,85.2808 18.55714,85.71264 18.34223,86.16394 18.16564,86.63156 18.02858,87.11226 17.93201,87.6027 17.8766,88.09947 17.86215,88.52392 17.89522,112.5239 17.89521,112.5239 17.91672,113.0233 17.97972,113.5192 18.08378,114.0081 18.22818,114.4866 18.4119,114.9515 18.63368,115.3994 18.89198,115.8274 19.185,116.2323 19.51071,116.6115 19.86686,116.9622 20.25096,117.2821 20.66035,117.5689 21.0922,117.8206 21.5435,118.0355 22.01112,118.2121 22.49182,118.3492 22.98225,118.4458 23.47903,118.5012 23.90347,118.5156 88.72749,118.4263 88.72749,118.4263 89.22688,118.4048 89.72275,118.3418 90.21165,118.2378 90.6902,118.0934 91.15507,117.9096 91.60303,117.6879 91.99398,117.4538 105.8896,108.4027 105.8896,108.4027 121.3896,108.3813 121.3896,108.3813 121.4034,118.3813 121.4034,118.3813 185.4033,118.2931 185.4033,118.2931 185.9027,118.2716 186.3986,118.2086 186.8875,118.1046 187.366,117.9602 187.8309,117.7765 188.2789,117.5547 188.7068,117.2964 189.1118,117.0034 189.4909,116.6776 189.8417,116.3215 190.1615,115.9374 190.4483,115.528 190.7001,115.0962 190.915,114.6449 191.0916,114.1772 191.2286,113.6965 191.3252,113.2061 191.3806,112.7093 191.3951,112.2849 191.3055,47.27023 191.3055,47.27023 191.284,46.77083 191.221,46.27496 191.1169,45.78606 190.9725,45.30751 190.7888,44.84265 190.567,44.39469 190.3087,43.96674 190.0157,43.56178 189.69,43.18261 189.5423,43.03001 154.5088,8.092958 154.5088,8.092958 154.1405,7.755043 153.7453,7.448959 153.326,7.176831 152.8855,6.940548 152.4269,6.741751 151.9534,6.581817 151.4681,6.461858 150.9745,6.382706 150.4761,6.344911 150.2638,6.341445 107.3543,6.400558 107.3543,6.400558 106.8549,6.422067 106.359,6.485069 105.8701,6.589127 105.3916,6.733519 104.9267,6.917242 104.4787,7.139022 104.0508,7.397319 103.6458,7.690341 103.2667,8.016054 102.9159,8.372197 102.596,8.756299 102.3092,9.165693 102.061,9.591023 63.44393,82.46112 63.44393,82.46112 23.85388,82.51566 "/>
<polygon points="41.88418,104.4977 41.8592,103.9986 41.78451,103.5044 41.66086,103.0201 41.48948,102.5506 41.27209,102.1006 41.01086,101.6745 40.70839,101.2766 40.36771,100.9109 39.99223,100.5811 39.58569,100.2904 39.15216,100.0417 38.69596,99.83753 38.22167,99.67993 37.73401,99.57048 37.23786,99.51025 36.73818,99.49986 36.23996,99.53941 35.74817,99.62849 35.26773,99.76623 34.80344,99.95124 34.35995,100.1817 33.94167,100.4552 33.5528,100.7692 33.19721,101.1204 32.87846,101.5054 32.59974,101.9202 32.36382,102.3608 32.17307,102.8228 32.02939,103.3015 31.93422,103.7921 31.8885,104.2898 31.8927,104.7896 31.94678,105.2865 32.05019,105.7754 32.20189,106.2516 32.40039,106.7103 32.64368,107.1469 32.92934,107.557 33.25452,107.9366 33.61596,108.2817 34.01006,108.5891 34.43288,108.8556 34.88018,109.0786 35.34752,109.2557 35.8302,109.3854 36.32342,109.4662 36.82224,109.4973 37.32168,109.4785 37.81675,109.41 38.30249,109.2923 38.77407,109.1268 39.22677,108.915 39.65606,108.6591 40.05765,108.3615 40.42753,108.0254 40.76201,107.6541 41.05775,107.2511 41.31178,106.8207 41.52158,106.3671 41.68503,105.8948 41.80052,105.4085 41.86689,104.9132 "/>
<polygon points="171.8372,70.31867 171.8122,69.8195 171.7375,69.32533 171.6139,68.84107 171.4425,68.37158 171.2251,67.92155 170.9639,67.49546 170.6614,67.09758 170.3208,66.73189 169.9453,66.40204 169.5387,66.11132 169.1052,65.86263 168.649,65.65848 168.1747,65.50088 167.6871,65.39143 167.1909,65.3312 166.6912,65.3208 166.193,65.36035 165.7012,65.44943 165.2208,65.58717 164.7565,65.77219 164.313,66.00262 163.8947,66.27619 163.5058,66.59015 163.1503,66.94135 162.8315,67.32631 162.5528,67.74117 162.3169,68.18177 162.1261,68.64373 161.9824,69.12242 161.8873,69.61307 161.8415,70.11076 161.8457,70.61054 161.8998,71.1074 162.0032,71.59637 162.1549,72.07259 162.3534,72.53127 162.5967,72.96785 162.8824,73.37796 163.2076,73.7575 163.569,74.10268 163.9631,74.41006 164.3859,74.67655 164.8332,74.89951 165.3006,75.07668 165.7832,75.20632 166.2765,75.28712 166.7753,75.31829 167.2747,75.29949 167.7698,75.23093 168.2555,75.11329 168.7271,74.94775 169.1798,74.73594 169.6091,74.48 170.0107,74.18249 170.3806,73.84637 170.7151,73.475 171.0108,73.07209 171.2648,72.64167 171.4746,72.18804 171.6381,71.71574 171.7536,71.22947 171.8199,70.73411 "/>
</svg>
