<svg version="1.1">
<polygon points="23.47084,77.45556 22.47084,77.45438 22.47084,77.45438 22.46027,86.45438 22.46026,86.45438 22.48466,86.95358 22.55876,87.44784 22.68184,87.93224 22.85267,88.40193 23.06953,88.85222 23.33027,89.27861 23.63227,89.67684 23.97251,90.04294 24.34761,90.37323 24.75381,90.66443 25.18704,90.91362 25.64299,91.11832 26.1171,91.27647 26.60463,91.3865 27.10071,91.44731 27.45439,91.46025 46.45438,91.48257 46.45438,91.48257 46.44967,95.48257 46.44967,95.48257 71.44965,95.51195 71.44965,95.51195 71.40844,130.5993 71.40844,130.5993 71.90005,130.5083 72.39413,130.4317 72.89026,130.3697 73.38799,130.3223 73.88689,130.2895 74.38655,130.2715 74.88652,130.2681 75.38638,130.2795 75.88567,130.3056 76.384,130.3463 76.88091,130.4017 77.37596,130.4716 77.86875,130.5562 78.35884,130.6551 78.84581,130.7685 79.32923,130.8961 79.80869,131.0378 80.28378,131.1937 80.75407,131.3634 81.21916,131.5469 81.67866,131.744 82.13216,131.9545 82.57928,132.1783 83.01962,132.4151 83.4528,132.6647 83.87844,132.927 84.2962,133.2018 84.70568,133.4886 85.10655,133.7874 85.49846,134.0979 85.88107,134.4198 86.25404,134.7527 86.61707,135.0966 86.83304,135.311 92.33183,135.3175 92.33183,135.3175 92.83103,135.2931 93.32529,135.219 93.80969,135.0959 94.27939,134.9251 94.72968,134.7082 95.15607,134.4475 95.5543,134.1455 95.86909,133.8572 108.9555,120.8015 108.9555,120.8015 109.2912,120.4312 109.5883,120.0293 109.8438,119.5998 110.0552,119.1469 110.2202,118.6751 110.3373,118.1892 110.4054,117.6941 110.4241,117.2677 110.5366,21.55782 110.5366,21.55782 110.5122,21.05862 110.4381,20.56436 110.315,20.07996 110.1442,19.61027 109.9273,19.15998 109.6666,18.73359 109.3646,18.33535 109.0243,17.96926 108.6492,17.63897 108.243,17.34777 107.8098,17.09858 107.3538,16.89388 106.8797,16.73573 106.3922,16.6257 105.8961,16.56489 105.5425,16.55195 86.54247,16.52962 86.54247,16.52962 86.04327,16.55402 85.54901,16.62812 85.06461,16.75121 84.59492,16.92203 84.14463,17.1389 83.71824,17.39963 83.32001,17.70163 82.95391,18.04188 82.62362,18.41697 82.33242,18.82317 82.08323,19.2564 81.87853,19.71236 81.72038,20.18646 81.61035,20.67399 81.54954,21.17007 81.5366,21.52375 81.51662,38.52374 81.51662,38.52374 51.51665,38.48848 51.51665,38.48848 51.01745,38.51287 50.52319,38.58698 50.03878,38.71006 49.56909,38.88089 49.1188,39.09775 48.69241,39.35849 48.29418,39.66049 47.92809,40.00073 47.59779,40.37583 47.30659,40.78202 47.0574,41.21526 46.85271,41.67122 46.69455,42.14532 46.58452,42.63285 46.52371,43.12893 46.51077,43.4826 46.50137,51.4826 46.50137,51.4826 27.50139,51.46028 27.50139,51.46028 27.00219,51.48467 26.50792,51.55878 26.02352,51.68186 25.55383,51.85268 25.10354,52.06955 24.67715,52.33028 24.27892,52.63228 23.91283,52.97253 23.58253,53.34762 23.29133,53.75382 23.04214,54.18706 22.83745,54.64301 22.6793,55.11712 22.56927,55.60464 22.50846,56.10072 22.49552,56.4544 22.48612,64.45439 22.48612,64.45439 23.48611,64.45557 23.48611,64.45557 23.9856,64.47537 24.48208,64.53351 24.97263,64.62962 25.45435,64.76315 25.92437,64.9333 26.37993,65.13907 26.81833,65.37924 27.23698,65.65239 27.6334,65.9569 28.00525,66.29098 28.35032,66.65264 28.66659,67.03976 28.95216,67.45003 29.20537,67.88103 29.4247,68.33022 29.60887,68.79493 29.75678,69.27242 29.86756,69.75986 29.94055,70.25439 29.97533,70.75305 29.97168,71.25291 29.92963,71.75102 29.84942,72.24442 29.73154,72.73019 29.57667,73.20548 29.38574,73.66746 29.15987,74.11339 28.9004,74.54065 28.60886,74.94671 28.28698,75.32916 27.93666,75.68575 27.55998,76.01436 27.15916,76.31306 26.73656,76.58006 26.2947,76.8138 25.83619,77.0129 25.36373,77.17617 24.88012,77.30265 24.38822,77.39159 23.89093,77.44247 "/>
<polygon points="96.46375,83.53663 96.43253,83.03793 96.33939,82.54701 96.18578,82.07154 95.97408,81.61893 95.7076,81.19624 95.3905,80.81007 95.02773,80.46645 94.62495,80.17075 94.18845,79.92756 93.72504,79.74069 93.24194,79.61306 92.7467,79.54665 92.24704,79.5425 91.75076,79.60069 91.26561,79.72028 90.79916,79.89944 90.35868,80.13535 89.95105,80.42433 89.58263,80.76189 89.25917,81.14274 88.98572,81.56094 88.76653,82.00998 88.60505,82.48284 88.50378,82.97215 88.46429,83.47026 88.48723,83.96941 88.57221,84.4618 88.71792,84.93976 88.92208,85.39582 89.1815,85.82287 89.49215,86.21425 89.84917,86.56384 90.24699,86.86619 90.67939,87.11658 91.13964,87.31112 91.62056,87.44675 92.11463,87.52136 92.61415,87.5338 93.11132,87.48386 93.59839,87.37233 94.06775,87.20094 94.51208,86.97237 94.92445,86.69019 95.29842,86.3588 95.62816,85.98336 95.90851,85.56975 96.13512,85.12441 96.30443,84.6543 96.4138,84.16674 96.46154,83.66935 "/>
<polygon points="78.99136,60.01667 78.95571,59.51837 78.84947,59.03022 78.67483,58.56217 78.43532,58.12375 78.13583,57.7239 77.78246,57.37076 77.38242,57.07152 76.94386,56.83229 76.47569,56.65794 75.98747,56.55201 75.48915,56.51667 74.99088,56.55264 74.50279,56.65918 74.03485,56.83413 73.59658,57.07391 73.19692,57.37366 72.844,57.72725 72.54502,58.12748 72.30607,58.5662 72.132,59.03447 72.02639,59.52275 71.99136,60.0211 72.02765,60.51935 72.1345,61.00737 72.30975,61.4752 72.5498,61.91331 72.8498,62.31279 73.20361,62.66548 73.60403,62.96421 74.04291,63.20288 74.51128,63.37665 74.99963,63.48196 75.49801,63.51666 75.99624,63.48006 76.48418,63.37291 76.9519,63.19736 77.38987,62.95702 77.78915,62.65678 78.14162,62.30275 78.44009,61.90213 78.6785,61.46311 78.85196,60.99462 78.95696,60.5062 "/>
<polygon points="106.9913,60.04957 106.9557,59.55127 106.8495,59.06312 106.6748,58.59507 106.4353,58.15665 106.1358,57.7568 105.7824,57.40366 105.3824,57.10442 104.9438,56.86519 104.4757,56.69084 103.9875,56.58491 103.4891,56.54957 102.9909,56.58554 102.5028,56.69209 102.0348,56.86703 101.5966,57.10682 101.1969,57.40656 100.844,57.76015 100.545,58.16038 100.3061,58.5991 100.132,59.06737 100.0264,59.55565 99.99135,60.054 100.0276,60.55225 100.1345,61.04027 100.3097,61.5081 100.5498,61.94621 100.8498,62.34569 101.2036,62.69838 101.604,62.99711 102.0429,63.23579 102.5113,63.40955 102.9996,63.51486 103.498,63.54956 103.9962,63.51297 104.4842,63.40581 104.9519,63.23027 105.3899,62.98993 105.7891,62.68968 106.1416,62.33565 106.4401,61.93504 106.6785,61.49601 106.8519,61.02752 106.9569,60.5391 "/>
</svg>
