<svg version="1.1">
<polygon points="11.16336,1.180573 10.66357,1.19307 10.16503,1.230531 9.668979,1.292862 9.176666,1.379907 8.68932,1.491448 8.208158,1.627208 7.734381,1.786846 7.269176,1.969963 6.813704,2.176102 6.369103,2.404747 5.936487,2.655328 5.516934,2.927217 5.111495,3.219735 4.721182,3.532151 4.346971,3.863685 3.989798,4.213506 3.650555,4.580741 3.33009,4.964473 3.029205,5.363741 2.74865,5.777549 2.489128,6.204861 2.251287,6.64461 2.035721,7.095697 1.842969,7.556993 1.673514,8.027347 1.527779,8.505582 1.406127,8.990503 1.308863,9.480898 1.23623,9.975541 1.18841,10.4732 1.165522,10.97262 1.167624,11.47256 1.194709,11.97178 1.246711,12.46902 1.3235,12.96303 1.424883,13.45259 1.550607,13.93647 1.700359,14.41347 1.873763,14.88238 2.070386,15.34204 2.289737,15.7913 2.531267,16.22904 2.794373,16.65415 3.078398,17.06559 3.38263,17.46231 3.706311,17.84334 4.04863,18.20771 4.408732,18.55451 4.785717,18.88289 5.178644,19.19201 5.586529,19.48111 6.008353,19.74946 6.443062,19.9964 6.889569,20.2213 7.346759,20.4236 7.813488,20.6028 8.28859,20.75845 8.770878,20.89016 9.259145,20.9976 9.752172,21.0805 10.24873,21.13866 10.74757,21.17192 11.16336,21.18057 52.30274,21.18057 52.30274,21.18057 52.30274,1.180572 52.30274,1.180572 11.16336,1.180572 "/>
<polygon points="14.16336,11.18057 14.12771,10.68227 14.02147,10.19412 13.84682,9.72607 13.60731,9.287652 13.30782,8.887799 12.95446,8.534658 12.55442,8.235423 12.11585,7.996192 11.64769,7.821837 11.15947,7.715911 10.66115,7.680572 10.16287,7.716541 9.674788,7.823084 9.206846,7.998031 8.768579,8.237817 8.368916,8.537557 8.015998,8.891145 7.717016,9.291376 7.478061,9.730098 7.304003,10.19837 7.198386,10.68665 7.163363,11.185 7.199646,11.68325 7.306498,12.17127 7.481741,12.6391 7.721804,13.07721 8.021797,13.47669 8.375608,13.82938 8.776029,14.12811 9.214901,14.36679 9.683284,14.54055 10.17163,14.64586 10.67,14.68056 11.16823,14.64397 11.65618,14.53681 12.1239,14.36127 12.56186,14.12093 12.96115,13.82068 13.31362,13.46665 13.61209,13.06604 13.85049,12.62701 14.02396,12.15852 14.12896,11.6701 "/>
</svg>
