<svg version="1.1">
<polygon points="109.4585,102.3874 132.3215,125.2504 132.3215,125.2504 132.6494,124.873 132.9748,124.4934 133.2977,124.1116 133.618,123.7277 133.9358,123.3417 134.251,122.9535 134.5636,122.5633 134.8736,122.1709 135.1809,121.7766 135.4856,121.3801 135.7877,120.9817 136.0871,120.5813 136.3838,120.1788 136.6779,119.7744 136.9692,119.3681 137.2578,118.9598 137.5437,118.5496 137.8269,118.1375 138.1073,117.7235 138.3849,117.3077 138.6597,116.89 138.9318,116.4705 139.2011,116.0492 139.4675,115.6261 139.7311,115.2013 139.9919,114.7747 140.2498,114.3463 140.5049,113.9163 140.7571,113.4845 141.0064,113.0511 141.2529,112.6161 141.4964,112.1794 141.737,111.7411 141.9445,111.3574 149.0631,109.9765 149.0631,109.9765 151.7419,103.5093 151.7419,103.5093 147.6847,97.49922 147.6847,97.49922 147.8273,97.01999 147.9667,96.53981 148.1029,96.05872 148.2359,95.57673 148.3656,95.09386 148.4922,94.61014 148.6155,94.12558 148.7355,93.64022 148.8524,93.15406 148.966,92.66714 149.0763,92.17947 149.1834,91.69107 149.2873,91.20197 149.3878,90.7122 149.4852,90.22176 149.5792,89.73068 149.67,89.23899 149.7574,88.7467 149.8416,88.25385 149.9225,87.76043 150.0002,87.26649 150.0745,86.77205 150.1455,86.27712 150.2132,85.78173 150.2776,85.2859 150.3388,84.78964 150.3966,84.293 150.451,83.79597 150.5022,83.29861 150.5501,82.8009 150.5946,82.30289 150.6358,81.80459 150.6737,81.30603 150.7041,80.87093 120.479,80.87093 120.479,80.87093 119.9803,80.83972 119.4893,80.74658 119.0139,80.59296 118.5613,80.38126 118.1386,80.11478 118.0003,80.01043 113.7513,76.65581 113.7513,76.65581 113.4508,76.26265 113.3757,75.77358 113.5442,75.30835 113.7513,75.08606 118.0003,71.73144 118.0003,71.73144 118.4111,71.44691 118.8541,71.21581 119.3225,71.04176 119.8089,70.92745 120.3058,70.87468 120.479,70.87093 150.7041,70.87093 150.7041,70.87093 150.6691,70.37216 150.6308,69.87363 150.5891,69.37537 150.5442,68.8774 150.4959,68.37974 150.4443,67.88241 150.3894,67.38543 150.3311,66.88883 150.2696,66.39264 150.2048,65.89686 150.1366,65.40153 150.0652,64.90665 149.9904,64.41228 149.9124,63.9184 149.8311,63.42506 149.7464,62.93228 149.6586,62.44006 149.5674,61.94845 149.4729,61.45745 149.3752,60.9671 149.2742,60.47741 149.17,59.9884 149.0624,59.50009 148.9517,59.01252 148.8377,58.52569 148.7204,58.03963 148.5999,57.55437 148.4762,57.06992 148.3492,56.58631 148.2191,56.10355 148.0857,55.62167 147.9491,55.1407 147.8093,54.66064 147.6847,54.24263 151.7419,48.23253 151.7419,48.23253 149.0631,41.76537 149.0631,41.76537 141.9444,40.38444 141.9444,40.38444 141.7064,39.94474 141.4654,39.50664 141.2215,39.07016 140.9748,38.63531 140.7251,38.20211 140.4725,37.77059 140.2171,37.34076 139.9588,36.91265 139.6976,36.48626 139.4337,36.06163 139.1669,35.63877 138.8972,35.21769 138.6248,34.79842 138.3496,34.38098 138.0716,33.96538 137.7909,33.55164 137.5074,33.13979 137.2211,32.72983 136.9321,32.32179 136.6405,31.91569 136.3461,31.51154 136.049,31.10936 135.7493,30.70917 135.4469,30.31099 135.1418,29.91483 134.8341,29.52071 134.5238,29.12866 134.2109,28.73868 133.8954,28.3508 133.5773,27.96502 133.2566,27.58138 132.9334,27.19989 132.6077,26.82056 132.3215,26.49144 109.4585,49.35443 109.4585,49.35443 109.0879,49.68973 108.6856,49.98636 108.2558,50.24134 107.8026,50.45214 107.3307,50.61665 106.8447,50.73322 106.3494,50.80068 105.85,50.81837 105.3512,50.7861 104.8582,50.70421 104.3758,50.5735 103.9088,50.39529 103.462,50.17135 103.0398,49.90392 102.6464,49.59568 102.2857,49.24969 101.9614,48.86943 101.6766,48.45869 101.4343,48.02158 101.2368,47.56246 101.0862,47.08591 100.9838,46.59671 100.9309,46.09973 100.9278,45.59995 100.9746,45.10236 101.0708,44.61192 101.2156,44.13354 101.4073,43.67201 101.6442,43.23193 101.9239,42.81769 102.2435,42.43344 102.3874,42.28336 125.2504,19.42037 125.2504,19.42037 124.873,19.09243 124.4934,18.76702 124.1116,18.44414 123.7277,18.12381 123.3417,17.80606 122.9535,17.49088 122.5633,17.17829 122.1709,16.86832 121.7766,16.56096 121.3801,16.25624 120.9817,15.95418 120.5813,15.65477 120.1788,15.35804 119.7744,15.06401 119.3681,14.77267 118.9598,14.48405 118.5496,14.19816 118.1375,13.915 117.7235,13.63461 117.3077,13.35697 116.89,13.08212 116.4705,12.81006 116.0492,12.5408 115.6261,12.27435 115.2013,12.01073 114.7747,11.74995 114.3463,11.49202 113.9163,11.23695 113.4845,10.98475 113.0511,10.73544 112.6161,10.48902 112.1794,10.24551 111.7411,10.00491 111.3574,9.797416 109.9765,2.678783 109.9765,2.678783 103.5093,0 103.5093,0 97.49922,4.057166 97.49922,4.057166 97.01999,3.914574 96.53981,3.775181 96.05872,3.638991 95.57673,3.506012 95.09386,3.37625 94.61014,3.249709 94.12558,3.126396 93.64022,3.006316 93.15406,2.889474 92.66714,2.775876 92.17947,2.665526 91.69107,2.558431 91.20197,2.454593 90.7122,2.354018 90.22176,2.256711 89.73068,2.162676 89.23899,2.071916 88.7467,1.984436 88.25385,1.90024 87.76043,1.819332 87.26649,1.741715 86.77205,1.667392 86.27712,1.596367 85.78173,1.528644 85.2859,1.464224 84.78964,1.403112 84.293,1.345309 83.79597,1.290818 83.29861,1.239643 82.8009,1.191783 82.30289,1.147243 81.80459,1.106025 81.30603,1.068128 80.87093,1.037786 80.87093,31.26291 80.87093,31.26291 80.83972,31.7616 80.74658,32.25252 80.59296,32.728 80.38126,33.18061 80.11478,33.60329 80.01043,33.74153 76.65581,37.99059 76.65581,37.99059 76.26265,38.29102 75.77358,38.36618 75.30835,38.19767 75.08606,37.99059 71.73144,33.74153 71.73144,33.74153 71.44691,33.33077 71.21582,32.88775 71.04176,32.41937 70.92745,31.93295 70.87469,31.43607 70.87093,31.26291 70.87093,1.037786 70.87093,1.037787 70.37216,1.072783 69.87363,1.111104 69.37537,1.152747 68.8774,1.197711 68.37974,1.245993 67.88241,1.297592 67.38543,1.352506 66.88883,1.410732 66.39264,1.472266 65.89686,1.537108 65.40153,1.605253 64.90666,1.676699 64.41228,1.751442 63.91841,1.82948 63.42507,1.910808 62.93228,1.995423 62.44007,2.083322 61.94845,2.1745 61.45745,2.268954 60.9671,2.366678 60.47741,2.46767 59.9884,2.571924 59.50009,2.679435 59.01252,2.7902 58.52569,2.904212 58.03963,3.021468 57.55437,3.141961 57.06992,3.265687 56.58631,3.392639 56.10355,3.522813 55.62167,3.656202 55.1407,3.792801 54.66064,3.932603 54.24263,4.057171 48.23253,6.354313E-06 48.23253,6.354313E-06 41.76537,2.678791 41.76537,2.678791 40.38444,9.797424 40.38444,9.797424 39.94474,10.03547 39.50664,10.27644 39.07016,10.52032 38.63531,10.76711 38.20211,11.01679 37.77059,11.26936 37.34076,11.52479 36.91265,11.78309 36.48627,12.04423 36.06163,12.30821 35.63877,12.57502 35.21769,12.84464 34.79843,13.11706 34.38098,13.39227 33.96539,13.67025 33.55165,13.951 33.13979,14.23451 32.72984,14.52075 32.32179,14.80972 31.91569,15.1014 31.51154,15.39578 31.10936,15.69285 30.70917,15.9926 30.31099,16.29501 29.91483,16.60006 29.52071,16.90775 29.12866,17.21806 28.73868,17.53098 28.3508,17.84649 27.96503,18.16457 27.58138,18.48523 27.19989,18.80843 26.82056,19.13417 26.49144,19.42037 49.35443,42.28336 49.35443,42.28336 49.68973,42.65399 49.98636,43.05624 50.24134,43.4861 50.45214,43.93925 50.61665,44.4112 50.73321,44.89721 50.80067,45.39243 50.81836,45.8919 50.7861,46.39065 50.7042,46.88369 50.57349,47.36609 50.39528,47.83303 50.17134,48.27984 49.90391,48.70206 49.59567,49.09548 49.24969,49.45616 48.86943,49.78049 48.45869,50.06525 48.02157,50.30758 47.56245,50.50505 47.0859,50.6557 46.5967,50.75803 46.09972,50.811 45.59994,50.8141 45.10235,50.76729 44.61191,50.67103 44.13354,50.52629 43.672,50.33452 43.23192,50.09763 42.81768,49.81799 42.43343,49.49839 42.28336,49.35443 19.42037,26.49144 19.42037,26.49144 19.09243,26.86887 18.76702,27.24848 18.44414,27.63025 18.12381,28.01417 17.80605,28.40021 17.49088,28.78836 17.17829,29.1786 16.86831,29.57092 16.56096,29.9653 16.25624,30.36172 15.95418,30.76016 15.65477,31.1606 15.35804,31.56303 15.064,31.96743 14.77267,32.37378 14.48405,32.78207 14.19816,33.19227 13.915,33.60437 13.63461,34.01834 13.35697,34.43418 13.08212,34.85186 12.81006,35.27135 12.5408,35.69266 12.27435,36.11575 12.01073,36.54061 11.74995,36.96721 11.49202,37.39555 11.23695,37.82559 10.98475,38.25733 10.73544,38.69073 10.48902,39.12579 10.24551,39.56248 10.00491,40.00079 9.797416,40.38445 2.678783,41.76539 2.678783,41.76539 0,48.23255 0,48.23255 4.057166,54.24265 4.057167,54.24265 3.914575,54.72189 3.775181,55.20206 3.638992,55.68316 3.506013,56.16515 3.37625,56.64801 3.249709,57.13173 3.126396,57.61629 3.006316,58.10165 2.889474,58.58781 2.775876,59.07473 2.665526,59.5624 2.55843,60.0508 2.454592,60.5399 2.354017,61.02968 2.25671,61.52011 2.162675,62.01119 2.071915,62.50289 1.984435,62.99517 1.900239,63.48803 1.819331,63.98144 1.741714,64.47538 1.667391,64.96983 1.596367,65.46475 1.528643,65.96014 1.464224,66.45598 1.403111,66.95222 1.345308,67.44888 1.290818,67.9459 1.239642,68.44327 1.191783,68.94097 1.147243,69.43899 1.106024,69.93729 1.068128,70.43584 1.037786,70.87093 31.26291,70.87093 31.26291,70.87093 31.7616,70.90215 32.25252,70.99529 32.728,71.1489 33.18061,71.3606 33.60329,71.62708 33.74153,71.73144 37.99059,75.08606 37.99059,75.08606 38.29102,75.47922 38.36618,75.96828 38.19767,76.43352 37.99059,76.65581 33.74153,80.01043 33.74153,80.01043 33.33077,80.29495 32.88775,80.52605 32.41937,80.70011 31.93295,80.81441 31.43607,80.86718 31.26291,80.87093 1.037786,80.87093 1.037787,80.87093 1.072783,81.36971 1.111104,81.86823 1.152747,82.36649 1.197711,82.86447 1.245993,83.36213 1.297592,83.85946 1.352506,84.35644 1.410732,84.85303 1.472266,85.34923 1.537108,85.84501 1.605253,86.34034 1.676699,86.83521 1.751442,87.32959 1.82948,87.82346 1.910808,88.3168 1.995423,88.80959 2.083322,89.3018 2.1745,89.79342 2.268954,90.28441 2.366678,90.77477 2.46767,91.26446 2.571924,91.75347 2.679435,92.24178 2.7902,92.72935 2.904212,93.21618 3.021468,93.70223 3.141961,94.18749 3.265687,94.67194 3.392639,95.15556 3.522813,95.63831 3.656202,96.12019 3.792801,96.60117 3.932603,97.08122 4.057171,97.49924 6.354313E-06,103.5093 6.354313E-06,103.5093 2.678791,109.9765 2.678791,109.9765 9.797424,111.3574 9.797424,111.3574 10.03547,111.7971 10.27644,112.2352 10.52032,112.6717 10.76711,113.1066 11.01679,113.5398 11.26936,113.9713 11.52479,114.4011 11.78309,114.8292 12.04423,115.2556 12.30821,115.6802 12.57502,116.1031 12.84464,116.5242 13.11706,116.9434 13.39227,117.3609 13.67025,117.7765 13.951,118.1902 14.23451,118.6021 14.52075,119.012 14.80972,119.4201 15.1014,119.8262 15.39578,120.2303 15.69285,120.6325 15.9926,121.0327 16.29501,121.4309 16.60006,121.827 16.90775,122.2212 17.21806,122.6132 17.53098,123.0032 17.84649,123.3911 18.16458,123.7768 18.48523,124.1605 18.80843,124.542 19.13417,124.9213 19.42037,125.2504 42.28336,102.3874 42.28336,102.3874 42.65399,102.0521 43.05624,101.7555 43.4861,101.5005 43.93926,101.2897 44.4112,101.1252 44.89721,101.0087 45.39243,100.9412 45.89191,100.9235 46.39066,100.9558 46.88369,101.0377 47.36609,101.1684 47.83303,101.3466 48.27984,101.5705 48.70206,101.838 49.09548,102.1462 49.45616,102.4922 49.7805,102.8724 50.06525,103.2832 50.30758,103.7203 50.50505,104.1794 50.6557,104.656 50.75803,105.1452 50.81101,105.6421 50.8141,106.1419 50.76729,106.6395 50.67103,107.13 50.52629,107.6083 50.33452,108.0699 50.09763,108.5099 49.81799,108.9242 49.49839,109.3084 49.35443,109.4585 26.49144,132.3215 26.49144,132.3215 26.86887,132.6494 27.24848,132.9748 27.63025,133.2977 28.01417,133.618 28.40021,133.9358 28.78836,134.251 29.1786,134.5636 29.57092,134.8736 29.9653,135.1809 30.36172,135.4856 30.76016,135.7877 31.1606,136.0871 31.56303,136.3838 31.96743,136.6779 32.37378,136.9692 32.78207,137.2578 33.19227,137.5437 33.60437,137.8269 34.01834,138.1073 34.43418,138.3849 34.85186,138.6597 35.27135,138.9318 35.69266,139.2011 36.11575,139.4675 36.54061,139.7311 36.96721,139.9919 37.39555,140.2498 37.82559,140.5049 38.25733,140.7571 38.69073,141.0064 39.12579,141.2529 39.56248,141.4964 40.00079,141.737 40.38445,141.9445 41.76539,149.0631 41.76539,149.0631 48.23255,151.7419 48.23255,151.7419 54.24265,147.6847 54.24265,147.6847 54.72189,147.8273 55.20206,147.9667 55.68316,148.1029 56.16515,148.2359 56.64801,148.3656 57.13173,148.4922 57.61629,148.6155 58.10165,148.7356 58.58781,148.8524 59.07473,148.966 59.5624,149.0764 60.0508,149.1834 60.5399,149.2873 61.02968,149.3879 61.52011,149.4852 62.01119,149.5792 62.50289,149.67 62.99517,149.7574 63.48803,149.8416 63.98144,149.9225 64.47538,150.0002 64.96983,150.0745 65.46475,150.1455 65.96014,150.2132 66.45598,150.2776 66.95222,150.3388 67.44888,150.3966 67.9459,150.451 68.44327,150.5022 68.94097,150.5501 69.43899,150.5946 69.93729,150.6358 70.43584,150.6738 70.87093,150.7041 70.87093,120.479 70.87093,120.479 70.90215,119.9803 70.99529,119.4893 71.1489,119.0139 71.3606,118.5613 71.62708,118.1386 71.73144,118.0003 75.08606,113.7513 75.08606,113.7513 75.47922,113.4508 75.96828,113.3757 76.43352,113.5442 76.65581,113.7513 80.01043,118.0003 80.01043,118.0003 80.29495,118.4111 80.52605,118.8541 80.70011,119.3225 80.81441,119.8089 80.86719,120.3058 80.87093,120.479 80.87093,150.7041 80.87093,150.7041 81.36971,150.6691 81.86823,150.6308 82.36649,150.5891 82.86447,150.5442 83.36213,150.4959 83.85946,150.4443 84.35644,150.3894 84.85303,150.3311 85.34923,150.2696 85.84501,150.2048 86.34034,150.1366 86.83521,150.0652 87.32959,149.9904 87.82346,149.9124 88.3168,149.8311 88.80959,149.7464 89.3018,149.6586 89.79342,149.5674 90.28442,149.4729 90.77477,149.3752 91.26447,149.2742 91.75347,149.17 92.24178,149.0624 92.72935,148.9517 93.21618,148.8377 93.70223,148.7204 94.18749,148.5999 94.67194,148.4762 95.15556,148.3492 95.63831,148.2191 96.12019,148.0857 96.60117,147.9491 97.08122,147.8093 97.49924,147.6847 103.5093,151.7419 103.5093,151.7419 109.9765,149.0631 109.9765,149.0631 111.3574,141.9444 111.3574,141.9444 111.7971,141.7064 112.2352,141.4654 112.6717,141.2215 113.1066,140.9748 113.5398,140.7251 113.9713,140.4725 114.4011,140.2171 114.8292,139.9588 115.2556,139.6976 115.6802,139.4337 116.1031,139.1669 116.5242,138.8972 116.9434,138.6248 117.3609,138.3496 117.7765,138.0716 118.1902,137.7909 118.6021,137.5074 119.012,137.2211 119.4201,136.9321 119.8262,136.6405 120.2303,136.3461 120.6325,136.049 121.0327,135.7493 121.4309,135.4469 121.827,135.1418 122.2212,134.8341 122.6132,134.5238 123.0032,134.2109 123.3911,133.8954 123.7768,133.5773 124.1605,133.2566 124.542,132.9334 124.9213,132.6077 125.2504,132.3215 102.3874,109.4585 102.3874,109.4585 102.0521,109.0879 101.7555,108.6856 101.5005,108.2558 101.2897,107.8026 101.1252,107.3307 101.0087,106.8447 100.9412,106.3494 100.9235,105.85 100.9558,105.3512 101.0377,104.8582 101.1684,104.3758 101.3466,103.9088 101.5705,103.462 101.838,103.0398 102.1462,102.6464 102.4922,102.2857 102.8724,101.9614 103.2832,101.6766 103.7203,101.4343 104.1794,101.2368 104.656,101.0862 105.1452,100.9838 105.6422,100.9309 106.1419,100.9278 106.6395,100.9746 107.13,101.0708 107.6083,101.2156 108.0699,101.4074 108.51,101.6442 108.9242,101.9239 109.3084,102.2435 "/>
<polygon points="129.2849,105.3319 129.0416,105.7688 128.7948,106.2036 128.5444,106.6363 128.2904,107.0671 128.033,107.4957 127.772,107.9222 127.6486,108.121 127.3175,108.4953 127.0343,108.907 126.8034,109.3501 126.628,109.818 126.5109,110.3038 126.4537,110.8002 126.4574,111.2999 126.5218,111.7954 126.646,112.2794 126.8282,112.7447 127.0657,113.1843 127.3548,113.5919 127.6914,113.9612 128.0704,114.2868 128.4863,114.5639 128.9327,114.7884 129.4031,114.9568 129.8906,115.0668 130.3878,115.1167 130.8873,115.1057 131.3818,115.0341 131.864,114.9028 132.3266,114.7138 132.7627,114.4699 133.1659,114.1748 133.5303,113.8329 133.8503,113.4491 134.1213,113.0293 134.3392,112.5796 134.408,112.4005 134.6712,111.9754 134.9313,111.5484 135.1882,111.1195 135.4421,110.6887 135.6928,110.2561 135.9404,109.8217 136.1849,109.3856 136.4261,108.9476 136.6642,108.5079 136.8991,108.0666 137.1308,107.6235 137.3593,107.1787 137.5846,106.7324 137.8066,106.2844 138.0253,105.8347 138.2408,105.3836 138.453,104.9308 138.662,104.4766 138.8676,104.0208 139.0699,103.5636 139.269,103.1049 139.4646,102.6448 139.657,102.1833 139.846,101.7204 140.0316,101.2561 140.2139,100.7905 140.3928,100.3236 140.5683,99.85542 140.7404,99.38598 140.9091,98.9153 141.0743,98.44341 141.2362,97.97033 141.3946,97.49609 141.5496,97.02072 141.7011,96.54424 141.8492,96.06667 141.9938,95.58804 142.1349,95.10837 142.2726,94.62769 142.4068,94.14603 142.5375,93.66341 142.6646,93.17986 142.7883,92.6954 142.9085,92.21005 143.0251,91.72385 143.0932,91.43255 143.279,90.96869 143.407,90.48566 143.4753,89.99066 143.4828,89.49103 143.4296,88.99419 143.3162,88.50752 143.1445,88.03825 142.917,87.59337 142.6371,87.17946 142.3088,86.80268 141.9372,86.46863 141.5277,86.18227 141.0864,85.94785 140.6199,85.76887 140.1351,85.64796 139.6391,85.58694 139.1394,85.58672 138.6434,85.64727 138.1584,85.76772 137.6918,85.94628 137.2502,86.18028 136.8405,86.46626 136.4686,86.79996 136.14,87.17644 135.8596,87.59009 135.6317,88.03477 135.4596,88.50388 135.3458,88.99043 135.2921,89.48723 135.2876,89.67901 135.1724,90.16556 135.0532,90.65115 134.9301,91.13575 134.803,91.61932 134.6719,92.10184 134.5369,92.58327 134.4724,92.80822 134.2866,93.27153 134.0125,93.68869 133.6609,94.04308 133.246,94.32056 132.7842,94.51009 132.294,94.60408 131.7948,94.59881 131.3067,94.49448 131.114,94.42377 124.2335,91.5738 124.2335,91.5738 123.7608,91.41179 123.2717,91.30997 122.7736,91.26994 122.2744,91.29232 121.7819,91.37676 121.3038,91.52194 120.8475,91.7256 120.4202,91.98456 120.0285,92.29477 119.6785,92.6514 119.3757,93.04888 119.1248,93.48101 118.9298,93.94105 118.7936,94.42181 118.7185,94.9158 118.7055,95.41531 118.7549,95.91254 118.8658,96.39973 119.0367,96.86928 119.2648,97.31386 119.5465,97.72654 119.8775,98.10088 120.2526,98.43102 120.6659,98.71184 121.111,98.93893 121.1721,98.96484 128.0525,101.8148 128.0525,101.8148 128.4923,102.0509 128.8764,102.3697 129.1895,102.7584 129.4192,103.2016 129.5562,103.6816 129.5952,104.1793 129.5345,104.6747 129.3766,105.1482 "/>
<polygon points="20.6279,57.3181 27.50834,60.16806 27.50834,60.16806 27.98102,60.33007 28.47021,60.43189 28.96828,60.47192 29.46745,60.44954 29.95994,60.3651 30.43806,60.21992 30.89435,60.01627 31.32168,59.75731 31.7134,59.4471 32.06339,59.09047 32.36618,58.69299 32.61705,58.26086 32.81209,57.80082 32.94825,57.32005 33.02342,56.82607 33.0364,56.32656 32.98701,55.82933 32.87602,55.34214 32.70515,54.87259 32.47707,54.42801 32.19535,54.01533 31.86437,53.64099 31.4893,53.31084 31.076,53.03003 30.63091,52.80293 30.5698,52.77703 23.68937,49.92706 23.68937,49.92706 23.24957,49.69095 22.86545,49.37218 22.55232,48.98344 22.32266,48.54025 22.18562,48.06026 22.14668,47.56261 22.20738,47.06715 22.3653,46.59362 22.45698,46.40995 22.70026,45.97312 22.94711,45.5383 23.19751,45.10553 23.45145,44.67482 23.70891,44.2462 23.96988,43.81971 24.09324,43.62082 24.42438,43.24661 24.70754,42.83489 24.93851,42.39178 25.11386,41.92387 25.23098,41.4381 25.28814,40.94169 25.28448,40.44201 25.22005,39.9465 25.09583,39.46249 24.91364,38.9972 24.67621,38.55752 24.38705,38.15 24.05046,37.78068 23.67143,37.45505 23.25562,37.17795 22.80917,36.9535 22.33874,36.78502 21.85131,36.67503 21.35411,36.62515 20.85454,36.63614 20.36002,36.70781 19.87789,36.83911 19.41531,37.02809 18.97916,37.27195 18.57592,37.56705 18.21157,37.90901 17.89153,38.29276 17.62055,38.7126 17.40266,39.16228 17.33386,39.34134 17.0707,39.76647 16.81062,40.1935 16.55364,40.62241 16.29977,41.05317 16.04904,41.48576 15.80144,41.92015 15.557,42.35632 15.31573,42.79425 15.07763,43.23392 14.84273,43.67531 14.61103,44.11838 14.38255,44.56313 14.1573,45.00951 13.93529,45.45752 13.71653,45.90712 13.50104,46.3583 13.28882,46.81102 13.07988,47.26528 12.87424,47.72103 12.67192,48.17826 12.47291,48.63695 12.27722,49.09707 12.08488,49.55859 11.89589,50.0215 11.71025,50.48576 11.52799,50.95135 11.3491,51.41825 11.17361,51.88644 11.00151,52.35589 10.83281,52.82657 10.66753,53.29846 10.50568,53.77154 10.34725,54.24578 10.19227,54.72115 10.04074,55.19763 9.892662,55.6752 9.74805,56.15383 9.60691,56.6335 9.469249,57.11417 9.335074,57.59583 9.204394,58.07845 9.077215,58.562 8.953543,59.04647 8.833385,59.53181 8.716746,60.01802 8.648645,60.30932 8.462844,60.77318 8.334852,61.2562 8.266574,61.75121 8.259023,62.25084 8.31231,62.74768 8.425646,63.23434 8.597344,63.70361 8.824857,64.1485 9.104803,64.56241 9.433024,64.93919 9.804645,65.27324 10.21414,65.55959 10.65544,65.79401 11.12197,65.973 11.60682,66.09389 12.10277,66.15491 12.60246,66.15515 13.09846,66.09459 13.58342,65.97414 14.05012,65.79558 14.49163,65.56158 14.90139,65.2756 15.27332,64.94189 15.60189,64.56541 15.88222,64.15176 16.11014,63.70708 16.28227,63.23798 16.39606,62.75142 16.44981,62.25462 16.45429,62.06286 16.56947,61.57631 16.68863,61.09072 16.81177,60.60612 16.93887,60.12255 17.06993,59.64003 17.20495,59.15861 17.2695,58.93365 17.45528,58.47034 17.7294,58.05318 18.08094,57.69879 18.49587,57.42131 18.95766,57.23179 19.4479,57.13779 19.94704,57.14306 20.43518,57.24739 "/>
<polygon points="62.51962,127.7023 48.66142,121.9621 48.66142,121.9621 42.92117,135.8203 42.92117,135.8203 56.77936,141.5605 56.77936,141.5605 62.51962,127.7023 "/>
<polygon points="103.0805,29.77978 108.8207,15.92159 108.8207,15.92159 94.9625,10.18134 94.9625,10.18134 89.22225,24.03953 89.22225,24.03953 103.0805,29.77978 "/>
<polygon points="68.79987,75.87093 70.87093,77.942 70.87093,77.942 70.87093,80.87093 70.87093,80.87093 73.79987,80.87093 73.79987,80.87093 75.87093,82.942 75.87093,82.942 77.942,80.87093 77.942,80.87093 80.87093,80.87093 80.87093,80.87093 80.87093,77.942 80.87093,77.942 82.942,75.87093 82.942,75.87093 80.87093,73.79987 80.87093,73.79987 80.87093,70.87093 80.87093,70.87093 77.942,70.87093 77.942,70.87093 75.87093,68.79987 75.87093,68.79987 73.79987,70.87093 73.79987,70.87093 70.87093,70.87093 70.87093,70.87093 70.87093,73.79987 70.87093,73.79987 68.79987,75.87093 "/>
<polygon points="137.1653,54.81155 137.6141,54.59187 138.032,54.31795 138.4125,53.99407 138.7496,53.62528 139.0382,53.21733 139.2736,52.77659 139.4522,52.30994 139.5713,51.82466 139.6289,51.32832 139.6242,50.82866 139.5573,50.3335 139.4291,49.85054 139.2417,49.38733 138.9981,48.9511 138.7019,48.54865 138.3579,48.18626 137.9714,47.86959 137.5484,47.60358 137.0956,47.39238 136.6199,47.23928 136.1289,47.14668 135.6301,47.11602 135.1315,47.14779 134.6407,47.24147 134.1654,47.39561 134.1038,47.4205 124.984,51.19807 124.984,51.19807 124.5352,51.41775 124.1173,51.69167 123.7368,52.01555 123.3996,52.38434 123.1111,52.79229 122.8757,53.23303 122.697,53.69968 122.578,54.18496 122.5203,54.6813 122.525,55.18096 122.592,55.67612 122.7202,56.15908 122.9076,56.62229 123.1512,57.05853 123.4474,57.46098 123.7914,57.82336 124.1779,58.14003 124.6009,58.40604 125.0537,58.61724 125.5294,58.77033 126.0204,58.86293 126.5191,58.89359 127.0178,58.86182 127.5086,58.76814 127.9839,58.61399 128.0454,58.58911 137.1653,54.81154 "/>
<polygon points="93.15276,128.0454 96.93033,137.1653 96.93033,137.1653 97.15001,137.6141 97.42392,138.032 97.7478,138.4125 98.11659,138.7496 98.52454,139.0382 98.96529,139.2736 99.43193,139.4522 99.91721,139.5713 100.4136,139.6289 100.9132,139.6242 101.4084,139.5573 101.8913,139.4291 102.3545,139.2417 102.7908,138.9981 103.1932,138.7019 103.5556,138.3579 103.8723,137.9714 104.1383,137.5484 104.3495,137.0955 104.5026,136.6199 104.5952,136.1289 104.6258,135.6301 104.5941,135.1315 104.5004,134.6407 104.3463,134.1654 104.3214,134.1038 100.5438,124.984 100.5438,124.984 100.3241,124.5352 100.0502,124.1173 99.72632,123.7368 99.35753,123.3996 98.94958,123.1111 98.50884,122.8757 98.04219,122.697 97.55691,122.578 97.06057,122.5203 96.56091,122.525 96.06575,122.592 95.58279,122.7202 95.11958,122.9076 94.68335,123.1512 94.2809,123.4474 93.91851,123.7914 93.60184,124.1779 93.33583,124.6009 93.12463,125.0537 92.97154,125.5294 92.87894,126.0204 92.84828,126.5191 92.88005,127.0178 92.97373,127.5086 93.12788,127.9839 "/>
<polygon points="58.58911,23.69643 54.81154,14.57657 54.81154,14.57657 54.59186,14.12777 54.31794,13.70987 53.99406,13.32938 53.62527,12.99223 53.21732,12.7037 52.77658,12.46827 52.30993,12.28963 51.82465,12.17057 51.32831,12.11294 50.82866,12.11764 50.33349,12.18459 49.85053,12.31276 49.38732,12.50014 48.95109,12.74381 48.54864,13.03996 48.18625,13.38398 47.86958,13.7705 47.60357,14.19348 47.39237,14.64633 47.23928,15.12197 47.14668,15.61299 47.11602,16.11172 47.14778,16.61039 47.24147,17.1012 47.39561,17.57651 47.4205,17.63804 51.19807,26.75789 51.19807,26.75789 51.41775,27.20669 51.69167,27.62459 52.01555,28.00509 52.38434,28.34223 52.79229,28.63077 53.23303,28.86619 53.69968,29.04483 54.18496,29.16389 54.6813,29.22152 55.18095,29.21682 55.67612,29.14987 56.15908,29.0217 56.62229,28.83432 57.05852,28.59065 57.46097,28.29449 57.82336,27.95047 58.14003,27.56396 58.40604,27.14098 58.61724,26.68813 58.77033,26.21249 58.86293,25.72147 58.89359,25.22273 58.86182,24.72407 58.76814,24.23326 58.614,23.75795 "/>
<polygon points="23.69643,93.15276 14.57657,96.93033 14.57657,96.93033 14.12777,97.15001 13.70987,97.42392 13.32938,97.7478 12.99223,98.1166 12.7037,98.52454 12.46827,98.96529 12.28963,99.43194 12.17057,99.91721 12.11294,100.4136 12.11764,100.9132 12.18459,101.4084 12.31276,101.8913 12.50014,102.3545 12.74381,102.7908 13.03996,103.1932 13.38398,103.5556 13.7705,103.8723 14.19348,104.1383 14.64633,104.3495 15.12197,104.5026 15.61299,104.5952 16.11172,104.6258 16.61039,104.5941 17.1012,104.5004 17.57651,104.3463 17.63804,104.3214 26.75789,100.5438 26.75789,100.5438 27.20669,100.3241 27.62459,100.0502 28.00509,99.72633 28.34223,99.35754 28.63077,98.94958 28.86619,98.50884 29.04483,98.0422 29.16389,97.55692 29.22153,97.06057 29.21683,96.56092 29.14987,96.06575 29.0217,95.58279 28.83432,95.11958 28.59065,94.68335 28.2945,94.2809 27.95048,93.91851 27.56396,93.60184 27.14098,93.33583 26.68814,93.12463 26.21249,92.97154 25.72147,92.87894 25.22274,92.84828 24.72408,92.88004 24.23326,92.97372 23.75796,93.12788 "/>
<polygon points="113.6339,89.856 113.6027,89.35731 113.5095,88.86639 113.3559,88.39091 113.1442,87.9383 112.8777,87.51562 112.5606,87.12945 112.1979,86.78583 111.7951,86.49012 111.3586,86.24693 110.8952,86.06007 110.4121,85.93243 109.9168,85.86602 109.4172,85.86188 108.9209,85.92006 108.4357,86.03966 107.9693,86.21881 107.5288,86.45472 107.1212,86.74371 106.7528,87.08126 106.4293,87.46211 106.1559,87.88032 105.9367,88.32935 105.7752,88.80222 105.6739,89.29152 105.6344,89.78963 105.6574,90.28878 105.7423,90.78117 105.8881,91.25913 106.0922,91.71519 106.3516,92.14224 106.6623,92.53362 107.0193,92.88321 107.4171,93.18556 107.8495,93.43596 108.3098,93.63049 108.7907,93.76612 109.2848,93.84074 109.7843,93.85317 110.2815,93.80324 110.7685,93.6917 111.2379,93.52031 111.6822,93.29174 112.0946,93.00956 112.4686,92.67817 112.7983,92.30273 113.0786,91.88912 113.3053,91.44379 113.4746,90.97367 113.5839,90.48611 113.6317,89.98872 "/>
<polygon points="95.60596,37.88319 95.57475,37.38449 95.48161,36.89357 95.328,36.41809 95.11629,35.96548 94.84982,35.5428 94.53272,35.15663 94.16995,34.81301 93.76717,34.5173 93.33067,34.27412 92.86726,34.08725 92.38416,33.95961 91.88892,33.89321 91.38926,33.88906 90.89298,33.94724 90.40783,34.06684 89.94138,34.24599 89.5009,34.48191 89.09327,34.77089 88.72485,35.10844 88.40139,35.4893 88.12794,35.90751 87.90875,36.35654 87.74727,36.8294 87.646,37.3187 87.60651,37.81681 87.62945,38.31596 87.71443,38.80836 87.86014,39.28632 88.0643,39.74238 88.32372,40.16943 88.63437,40.5608 88.99139,40.91039 89.38921,41.21275 89.82161,41.46314 90.28186,41.65767 90.76278,41.7933 91.25685,41.86792 91.75637,41.88036 92.25354,41.83042 92.74061,41.71888 93.20997,41.5475 93.6543,41.31893 94.06667,41.03674 94.44064,40.70535 94.77038,40.32992 95.05073,39.91631 95.27734,39.47097 95.44665,39.00085 95.55602,38.5133 95.60376,38.01591 "/>
<polygon points="46.10799,61.88587 46.07678,61.38717 45.98363,60.89625 45.83002,60.42078 45.61832,59.96817 45.35184,59.54548 45.03474,59.15931 44.67197,58.81569 44.2692,58.51999 43.83269,58.2768 43.36928,58.08993 42.88618,57.9623 42.39094,57.89589 41.89128,57.89174 41.395,57.94992 40.90985,58.06952 40.4434,58.24868 40.00292,58.48459 39.59529,58.77357 39.22688,59.11113 38.90341,59.49198 38.62996,59.91019 38.41078,60.35922 38.24929,60.83208 38.14802,61.32138 38.10854,61.8195 38.13147,62.31865 38.21645,62.81104 38.36216,63.289 38.56632,63.74506 38.82575,64.17211 39.13639,64.56348 39.49341,64.91308 39.89122,65.21543 40.32363,65.46582 40.78389,65.66035 41.2648,65.79599 41.75887,65.87061 42.25839,65.88304 42.75556,65.8331 43.24263,65.72157 43.71199,65.55018 44.15632,65.32161 44.56869,65.03943 44.94266,64.70803 45.2724,64.3326 45.55275,63.91899 45.77935,63.47365 45.94867,63.00354 46.05804,62.51598 46.10579,62.01859 "/>
<polygon points="64.13589,113.8587 64.10468,113.36 64.01154,112.8691 63.85792,112.3936 63.64622,111.941 63.37975,111.5183 63.06265,111.1321 62.69988,110.7885 62.2971,110.4928 61.8606,110.2496 61.39718,110.0627 60.91408,109.9351 60.41884,109.8687 59.91919,109.8646 59.42291,109.9227 58.93776,110.0423 58.47131,110.2215 58.03083,110.4574 57.6232,110.7464 57.25478,111.0839 56.93132,111.4648 56.65787,111.883 56.43869,112.332 56.2772,112.8049 56.17593,113.2942 56.13645,113.7923 56.15938,114.2915 56.24436,114.7839 56.39007,115.2618 56.59423,115.7179 56.85366,116.1449 57.1643,116.5363 57.52132,116.8859 57.91914,117.1882 58.35154,117.4386 58.8118,117.6332 59.29271,117.7688 59.78678,117.8434 60.2863,117.8559 60.78347,117.8059 61.27054,117.6944 61.7399,117.523 62.18423,117.2944 62.5966,117.0122 62.97057,116.6808 63.3003,116.3054 63.58066,115.8918 63.80726,115.4465 63.97657,114.9763 64.08595,114.4888 64.13369,113.9914 "/>
<polygon points="137.7443,61.54138 137.7027,61.04369 137.5791,60.5598 137.377,60.1031 137.1019,59.68627 136.7615,59.32085 136.3652,59.01696 135.9239,58.78304 135.45,58.62556 134.9565,58.54889 134.4571,58.55515 133.9657,58.64417 133.4958,58.81348 133.0606,59.0584 132.672,59.37212 132.3408,59.74596 132.0763,60.16956 131.8857,60.63118 131.7743,61.11802 131.7452,61.61659 131.7992,62.11308 131.9349,62.59373 132.1484,63.04521 132.4339,63.45501 132.7833,63.81178 133.1871,64.10564 133.6341,64.32842 134.1119,64.47397 134.6071,64.53825 135.1062,64.51946 135.5952,64.41815 136.0607,64.23711 136.4897,63.98137 136.8703,63.658 137.1919,63.27598 137.4458,62.84588 137.6248,62.37963 137.7239,61.89015 "/>
<polygon points="130.3546,43.92031 130.313,43.42263 130.1894,42.93873 129.9873,42.48204 129.7122,42.0652 129.3718,41.69978 128.9754,41.3959 128.5342,41.16198 128.0603,41.00451 127.5668,40.92783 127.0674,40.93409 126.576,41.02312 126.1061,41.19243 125.6709,41.43734 125.2823,41.75106 124.9511,42.12491 124.6866,42.54851 124.496,43.01012 124.3846,43.49697 124.3555,43.99554 124.4095,44.49203 124.5452,44.97268 124.7587,45.42416 125.0442,45.83396 125.3936,46.19073 125.7975,46.48458 126.2444,46.70736 126.7222,46.85291 127.2175,46.91718 127.7165,46.8984 128.2056,46.79708 128.671,46.61604 129.1,46.36029 129.4806,46.03692 129.8022,45.65489 130.0561,45.22479 130.2351,44.75854 130.3342,44.26906 "/>
<polygon points="62.83091,37.14691 62.78934,36.64922 62.66578,36.16533 62.46366,35.70863 62.18858,35.2918 61.84815,34.92638 61.45182,34.6225 61.01057,34.38858 60.53662,34.2311 60.04313,34.15443 59.54374,34.16069 59.05232,34.24971 58.58247,34.41902 58.14722,34.66393 57.75864,34.97765 57.42748,35.35149 57.16293,35.77509 56.97232,36.23671 56.86094,36.72355 56.83186,37.22213 56.88589,37.71862 57.02154,38.19926 57.23505,38.65074 57.5205,39.06055 57.86998,39.41732 58.2738,39.71117 58.72078,39.93395 59.19852,40.0795 59.69379,40.14378 60.19286,40.125 60.6819,40.02369 61.14735,39.84265 61.57632,39.5869 61.95692,39.26354 62.2786,38.88151 62.53244,38.45142 62.71142,37.98517 62.81057,37.49569 "/>
<polygon points="117.595,59.83091 117.5534,59.33323 117.4298,58.84933 117.2277,58.39264 116.9526,57.9758 116.6122,57.61038 116.2159,57.3065 115.7746,57.07258 115.3007,56.9151 114.8072,56.83843 114.3078,56.84469 113.8164,56.93371 113.3465,57.10302 112.9113,57.34793 112.5227,57.66166 112.1915,58.0355 111.927,58.4591 111.7364,58.92071 111.625,59.40755 111.5959,59.90613 111.6499,60.40262 111.7856,60.88326 111.9991,61.33474 112.2845,61.74455 112.634,62.10132 113.0378,62.39517 113.4848,62.61795 113.9626,62.7635 114.4578,62.82778 114.9569,62.809 115.4459,62.70769 115.9114,62.52665 116.3404,62.2709 116.721,61.94754 117.0426,61.56551 117.2965,61.13542 117.4755,60.66917 117.5746,60.17969 "/>
<polygon points="27.10868,107.3682 27.06711,106.8705 26.94355,106.3866 26.74143,105.9299 26.46634,105.513 26.12592,105.1476 25.72959,104.8437 25.28834,104.6098 24.81439,104.4523 24.32089,104.3757 23.82151,104.3819 23.33008,104.471 22.86024,104.6403 22.42499,104.8852 22.0364,105.1989 21.70525,105.5727 21.4407,105.9963 21.25009,106.458 21.1387,106.9448 21.10962,107.4434 21.16366,107.9399 21.29931,108.4205 21.51282,108.872 21.79827,109.2818 22.14775,109.6386 22.55157,109.9324 22.99854,110.1552 23.47629,110.3007 23.97156,110.365 24.47062,110.3462 24.95966,110.2449 25.42511,110.0639 25.85408,109.8082 26.23468,109.4848 26.55636,109.1028 26.81021,108.6727 26.98919,108.2064 27.08834,107.7169 "/>
<polygon points="40.14691,91.91096 40.10534,91.41327 39.98178,90.92937 39.77966,90.47268 39.50457,90.05585 39.16415,89.69043 38.76782,89.38654 38.32657,89.15263 37.85262,88.99514 37.35912,88.91847 36.85974,88.92474 36.36832,89.01376 35.89847,89.18307 35.46322,89.42798 35.07464,89.7417 34.74348,90.11554 34.47893,90.53914 34.28832,91.00076 34.17693,91.48759 34.14785,91.98617 34.20189,92.48266 34.33754,92.9633 34.55105,93.41479 34.8365,93.82459 35.18598,94.18137 35.5898,94.47521 36.03678,94.698 36.51452,94.84354 37.00979,94.90782 37.50885,94.88905 37.99789,94.78773 38.46334,94.6067 38.89231,94.35095 39.27291,94.02758 39.5946,93.64556 39.84844,93.21546 40.02742,92.74921 40.12657,92.25974 "/>
<polygon points="19.87402,89.68287 19.83245,89.18518 19.70889,88.70129 19.50676,88.24459 19.23168,87.82776 18.89125,87.46234 18.49492,87.15845 18.05367,86.92454 17.57973,86.76705 17.08623,86.69038 16.58685,86.69665 16.09542,86.78567 15.62558,86.95498 15.19033,87.19989 14.80174,87.51361 14.47058,87.88745 14.20604,88.31105 14.01543,88.77267 13.90404,89.25951 13.87496,89.75808 13.92899,90.25457 14.06465,90.73521 14.27815,91.1867 14.5636,91.5965 14.91308,91.95328 15.31691,92.24712 15.76388,92.46991 16.24162,92.61546 16.73689,92.67973 17.23596,92.66096 17.725,92.55965 18.19045,92.37861 18.61942,92.12286 19.00002,91.79949 19.3217,91.41747 19.57555,90.98737 19.75452,90.52113 19.85367,90.03165 "/>
<polygon points="94.91096,114.595 94.86938,114.0973 94.74583,113.6134 94.54371,113.1567 94.26862,112.7398 93.92819,112.3744 93.53187,112.0705 93.09061,111.8366 92.61667,111.6791 92.12317,111.6025 91.62379,111.6087 91.13236,111.6978 90.66251,111.8671 90.22727,112.112 89.83868,112.4257 89.50753,112.7995 89.24298,113.2231 89.05237,113.6848 88.94098,114.1716 88.9119,114.6702 88.96593,115.1667 89.10159,115.6473 89.31509,116.0988 89.60055,116.5086 89.95003,116.8654 90.35385,117.1592 90.80083,117.382 91.27856,117.5275 91.77383,117.5918 92.2729,117.573 92.76194,117.4717 93.22739,117.2907 93.65636,117.035 94.03696,116.7116 94.35864,116.3296 94.61249,115.8995 94.79147,115.4332 94.89062,114.9437 "/>
<polygon points="60.74579,92.74608 60.67484,92.25285 60.46777,91.79962 60.14134,91.42312 59.72203,91.15388 59.24384,91.01375 58.74554,91.01406 58.26753,91.15481 57.84857,91.42457 57.52262,91.80148 57.31611,92.25497 57.24579,92.74829 57.31736,93.24142 57.52501,93.6944 57.85191,94.07048 58.27156,94.33919 58.74992,94.47872 59.24823,94.47778 59.72606,94.33643 60.14468,94.06613 60.47015,93.68881 60.67609,93.23505 "/>
<polygon points="53.75587,75.87093 53.68493,75.37771 53.47785,74.92448 53.15142,74.54797 52.73212,74.27874 52.25393,74.1386 51.75563,74.13892 51.27762,74.27966 50.85865,74.54942 50.5327,74.92634 50.32619,75.37983 50.25587,75.87315 50.32744,76.36628 50.5351,76.81925 50.862,77.19534 51.28164,77.46404 51.76001,77.60358 52.25831,77.60263 52.73615,77.46128 53.15477,77.19099 53.48024,76.81367 53.68617,76.35991 "/>
<polygon points="77.62093,99.73599 77.54999,99.24277 77.34291,98.78954 77.01649,98.41303 76.59718,98.1438 76.11899,98.00366 75.62069,98.00397 75.14268,98.14472 74.72371,98.41448 74.39776,98.7914 74.19125,99.24489 74.12093,99.7382 74.1925,100.2313 74.40015,100.6843 74.72706,101.0604 75.14671,101.3291 75.62507,101.4686 76.12337,101.4677 76.6012,101.3263 77.01983,101.056 77.3453,100.6787 77.55123,100.225 "/>
<polygon points="94.49608,92.74608 94.42513,92.25285 94.21806,91.79962 93.89163,91.42312 93.47232,91.15388 92.99413,91.01375 92.49583,91.01406 92.01782,91.15481 91.59885,91.42457 91.2729,91.80148 91.0664,92.25497 90.99608,92.74829 91.06765,93.24142 91.2753,93.6944 91.6022,94.07048 92.02185,94.33919 92.50021,94.47872 92.99851,94.47778 93.47635,94.33643 93.89497,94.06613 94.22044,93.68881 94.42638,93.23505 "/>
<polygon points="101.486,75.87093 101.415,75.37771 101.208,74.92448 100.8815,74.54797 100.4622,74.27874 99.98405,74.1386 99.48575,74.13892 99.00774,74.27966 98.58877,74.54942 98.26282,74.92634 98.05631,75.37983 97.98599,75.87315 98.05756,76.36628 98.26521,76.81925 98.59212,77.19534 99.01176,77.46404 99.49013,77.60358 99.98843,77.60263 100.4663,77.46128 100.8849,77.19099 101.2104,76.81367 101.4163,76.35991 "/>
<polygon points="60.74579,58.99579 60.67484,58.50256 60.46777,58.04933 60.14134,57.67283 59.72203,57.4036 59.24384,57.26346 58.74554,57.26377 58.26753,57.40452 57.84857,57.67428 57.52262,58.05119 57.31611,58.50468 57.24579,58.998 57.31736,59.49113 57.52501,59.94411 57.85191,60.32019 58.27156,60.58889 58.74992,60.72843 59.24823,60.72749 59.72606,60.58614 60.14468,60.31585 60.47015,59.93852 60.67609,59.48476 "/>
<polygon points="94.49608,58.99579 94.42513,58.50256 94.21806,58.04933 93.89163,57.67283 93.47232,57.4036 92.99413,57.26346 92.49583,57.26377 92.01782,57.40452 91.59885,57.67428 91.2729,58.05119 91.0664,58.50468 90.99608,58.998 91.06765,59.49113 91.2753,59.94411 91.6022,60.32019 92.02185,60.58889 92.50021,60.72843 92.99851,60.72749 93.47635,60.58614 93.89497,60.31585 94.22044,59.93852 94.42638,59.48476 "/>
<polygon points="77.62093,52.00587 77.54999,51.51265 77.34291,51.05941 77.01649,50.68292 76.59718,50.41368 76.11899,50.27354 75.62069,50.27386 75.14268,50.4146 74.72371,50.68437 74.39776,51.06128 74.19125,51.51477 74.12093,52.00809 74.1925,52.50122 74.40015,52.95419 74.72706,53.33028 75.14671,53.59898 75.62507,53.73852 76.12337,53.73757 76.6012,53.59622 77.01983,53.32593 77.3453,52.94861 77.55123,52.49485 "/>
</svg>
