<svg version="1.1">
<polygon points="78.75736,30 79.25505,29.95843 79.73895,29.83487 80.19564,29.63275 80.61247,29.35766 80.87868,29.12132 84.12132,25.87868 84.12132,25.87868 84.50263,25.55615 84.93217,25.30136 85.39803,25.12135 85.88728,25.02112 86.24264,25 103.7574,25 103.7574,25 104.2551,25.04157 104.7389,25.16513 105.1956,25.36725 105.6125,25.64234 105.8787,25.87868 109.1213,29.12132 109.1213,29.12132 109.5026,29.44384 109.9322,29.69864 110.398,29.87865 110.8873,29.97888 111.2426,30 118.5,30 118.5,30 118.9908,29.91743 119.4276,29.67883 119.7622,29.31045 119.9579,28.85286 120,28.5 120,1.5 120,1.5 119.9174,1.009208 119.6788,0.5724451 119.3105,0.2377933 118.8529,0.04209294 118.5,6.110668E-13 111.2426,6.110668E-13 111.2426,-9.184333E-07 110.7449,0.04156959 110.2611,0.1651291 109.8044,0.3672532 109.3875,0.6423402 109.1213,0.8786796 105.8787,4.12132 105.8787,4.12132 105.4974,4.443845 105.0678,4.698642 104.602,4.87865 104.1127,4.97888 103.7574,5 86.24264,5 86.24264,5 85.74495,4.958429 85.26105,4.83487 84.80436,4.632746 84.38753,4.357659 84.12132,4.12132 80.87868,0.8786796 80.87868,0.8786803 80.49736,0.5561553 80.06783,0.3013582 79.60197,0.1213503 79.11272,0.02112045 78.75736,5.897505E-13 41.24264,0 41.24264,-1.145713E-06 40.74495,0.04156912 40.26106,0.1651279 39.80436,0.3672508 39.38753,0.6423365 39.12132,0.8786796 35.87868,4.12132 35.87868,4.12132 35.49737,4.443844 35.06783,4.698641 34.60198,4.878649 34.11272,4.978879 33.75736,5 16.24264,5 16.24264,5 15.74495,4.95843 15.26106,4.834871 14.80437,4.632748 14.38753,4.357662 14.12132,4.12132 10.87868,0.8786796 10.87868,0.8786795 10.49737,0.5561551 10.06783,0.3013586 9.601977,0.1213508 9.112718,0.02112079 8.75736,6.110668E-13 1.5,6.110668E-13 1.5,0 1.009208,0.08256458 0.5724453,0.3211691 0.2377935,0.6895465 0.04209316,1.147144 0,1.5 0,28.5 -5.960458E-07,28.5 0.08256451,28.99079 0.3211693,29.42756 0.6895469,29.76221 1.147144,29.95791 1.5,30 8.75736,30 8.75736,30 9.255048,29.95843 9.738944,29.83487 10.19564,29.63275 10.61247,29.35766 10.87868,29.12132 14.12132,25.87868 14.12132,25.87868 14.50263,25.55615 14.93217,25.30136 15.39802,25.12135 15.88728,25.02112 16.24264,25 33.75736,25 33.75736,25 34.25505,25.04157 34.73894,25.16513 35.19564,25.36725 35.61247,25.64234 35.87868,25.87868 39.12132,29.12132 39.12132,29.12132 39.50263,29.44385 39.93217,29.69864 40.39802,29.87865 40.88728,29.97888 41.24264,30 78.75736,30 "/>
<polygon points="53.61123,18.92857 53.88713,19.34545 54.19019,19.74302 54.51907,20.11951 54.87229,20.47327 55.24829,20.8027 55.64541,21.10636 56.06187,21.38288 56.49583,21.63105 56.94536,21.84976 57.40845,22.03804 57.88307,22.19504 58.36708,22.32008 58.85836,22.4126 59.3547,22.47219 59.85391,22.49858 60.35377,22.49165 60.85206,22.45144 61.34656,22.37813 61.83508,22.27204 62.31544,22.13363 62.78553,21.96354 63.24323,21.7625 63.68652,21.53143 64.11344,21.27133 64.52208,20.98337 64.91064,20.66883 65.27737,20.32911 65.62065,19.9657 65.93897,19.58024 66.2309,19.17443 66.38876,18.92857 66.68487,18.5264 67.04359,18.17892 67.45499,17.89577 67.90765,17.68479 68.38905,17.55183 68.88583,17.50057 68.94427,17.5 77.5,17.5 77.5,17.5 77.99667,17.45017 78.47355,17.30265 78.91161,17.06334 79.29339,16.74177 79.60368,16.35076 79.8301,15.90589 79.96362,15.42492 79.99893,14.927 79.93462,14.43199 79.77325,13.95963 79.52124,13.52875 79.18866,13.15652 78.78875,12.85778 78.33747,12.64444 77.8528,12.52502 77.5,12.5 68.94427,12.5 68.94427,12.5 68.44659,12.45843 67.96269,12.33487 67.506,12.13275 67.08916,11.85766 66.72374,11.51724 66.41986,11.12091 66.38876,11.07143 66.11286,10.65455 65.8098,10.25699 65.48093,9.880488 65.1277,9.526736 64.75169,9.1973 64.35458,8.893645 63.93812,8.617119 63.50416,8.368951 63.05463,8.150243 62.59153,7.961967 62.11692,7.804961 61.63291,7.67992 61.14164,7.5874 60.64529,7.527814 60.14608,7.501425 59.64622,7.50835 59.14793,7.54856 58.65343,7.621874 58.16491,7.727968 57.68455,7.866371 57.21447,8.036467 56.75676,8.237499 56.31347,8.468577 55.88655,8.728672 55.47791,9.01663 55.08936,9.33117 54.72263,9.670897 54.37934,10.0343 54.06102,10.41976 53.76909,10.82557 53.61123,11.07143 53.31513,11.4736 52.95641,11.82108 52.54501,12.10423 52.09234,12.31521 51.61095,12.44817 51.11416,12.49943 51.05573,12.5 42.5,12.5 42.5,12.5 42.00333,12.54983 41.52645,12.69735 41.08839,12.93666 40.70661,13.25823 40.39632,13.64924 40.1699,14.09411 40.03638,14.57508 40.00106,15.073 40.06538,15.56801 40.22676,16.04037 40.47876,16.47125 40.81134,16.84348 41.21125,17.14222 41.66253,17.35556 42.1472,17.47498 42.5,17.5 51.05573,17.5 51.05573,17.5 51.55342,17.54157 52.03731,17.66513 52.494,17.86725 52.91084,18.14234 53.27626,18.48277 53.58014,18.8791 "/>
<polygon points="21,12 21.47943,11.87758 21.84147,11.5403 21.9975,11.07074 21.9093,10.58385 21.59847,10.19886 21.14112,10.01001 21,10 11,10 11,10 10.52057,10.12242 10.15853,10.4597 10.00251,10.92926 10.0907,11.41615 10.40153,11.80114 10.85888,11.98999 11,12 21,12 "/>
<polygon points="21,18 11,18 11,18 10.52057,18.12242 10.15853,18.4597 10.00251,18.92926 10.0907,19.41615 10.40153,19.80114 10.85888,19.98999 11,20 21,20 21,20 21.47943,19.87758 21.84147,19.5403 21.9975,19.07074 21.9093,18.58385 21.59847,18.19886 21.14112,18.01001 "/>
<polygon points="108.5,15 108.4643,14.5017 108.3581,14.01355 108.1835,13.5455 107.944,13.10708 107.6445,12.70723 107.2911,12.35409 106.8911,12.05485 106.4525,11.81562 105.9843,11.64126 105.4961,11.53534 104.9978,11.5 104.4995,11.53597 104.0114,11.64251 103.5435,11.81746 103.1052,12.05725 102.7056,12.35699 102.3526,12.71057 102.0537,13.1108 101.8147,13.54953 101.6406,14.0178 101.535,14.50608 101.5,15.00443 101.5363,15.50268 101.6431,15.9907 101.8184,16.45853 102.0584,16.89664 102.3584,17.29612 102.7122,17.64881 103.1127,17.94754 103.5515,18.18621 104.0199,18.35998 104.5083,18.46529 105.0066,18.49999 105.5049,18.46339 105.9928,18.35623 106.4605,18.18069 106.8985,17.94036 107.2978,17.64011 107.6503,17.28607 107.9487,16.88546 108.1871,16.44644 108.3606,15.97795 108.4656,15.48953 "/>
</svg>
