<svg version="1.1">
<polygon points="3.099341E-06,435.684 0.02498232,436.1832 0.0996704,436.6774 0.2233211,437.1616 0.3946989,437.6311 0.6120914,438.0811 0.8733265,438.5072 1.175794,438.9051 1.516472,439.2708 1.891956,439.6006 2.298495,439.8914 2.732026,440.14 3.188219,440.3442 3.662513,440.5018 4.150172,440.6113 4.646322,440.6715 5.146006,440.6819 5.64423,440.6423 6.136018,440.5533 6.616455,440.4155 7.08074,440.2305 7.11309,440.2155 125.7137,384.9112 125.7137,384.9112 126.1556,384.6776 126.5719,384.4011 126.9585,384.0844 127.3116,383.7306 127.6276,383.3434 127.9033,382.9266 128.1361,382.4843 128.3236,382.021 128.4638,381.5413 128.5555,381.05 128.5977,380.552 128.5899,380.0522 128.5858,379.9949 102.2064,38.18034 102.2064,38.18034 102.1431,37.68458 102.0306,37.19761 101.8701,36.7243 101.6631,36.26939 101.4117,35.83742 101.1185,35.4327 100.7863,35.05928 100.4185,34.72088 100.0187,34.4209 99.59101,34.16232 99.13963,33.94773 98.93131,33.8666 6.710068,0.301525 6.710069,0.3015252 6.23246,0.154276 5.742538,0.05544373 5.245197,0.006015765 4.745405,0.006486048 4.248158,0.05684985 3.758422,0.156604 3.281092,0.3047517 2.820937,0.4998127 2.382555,0.7398381 1.970324,1.02243 1.588366,1.344764 1.240495,1.70362 0.9301879,2.095412 0.6605452,2.516226 0.4342608,2.961857 0.2535958,3.427853 0.1203552,3.909557 0.03587043,4.402156 0.0009855803,4.900729 0,5 0,435.684 "/>
<polygon points="10,8.570344 9.950167,8.07367 9.802652,7.596798 9.563339,7.158738 9.241767,6.776954 8.850756,6.466666 8.405894,6.240246 7.924918,6.106719 7.427001,6.07141 6.931994,6.135725 6.459632,6.297101 6.028747,6.549103 5.656515,6.881687 5.357778,7.281591 5.144444,7.732875 5.025019,8.217546 5.004263,8.71628 5.083004,9.209197 5.258104,9.676645 5.522581,10.09999 5.865891,10.46235 6.274347,10.74928 6.731667,10.94935 7.219617,11.05457 7.718746,11.06076 8.209153,10.96766 8.671289,10.77898 9.08673,10.50226 9.438912,10.14851 9.713798,9.731853 9.900425,9.268887 9.991355,8.778071 "/>
<polygon points="97.3526,40.36341 97.30276,39.86674 97.15525,39.38987 96.91594,38.95181 96.59437,38.57002 96.20335,38.25974 95.75849,38.03331 95.27752,37.89979 94.7796,37.86448 94.28459,37.92879 93.81223,38.09017 93.38135,38.34217 93.00912,38.67476 92.71038,39.07466 92.49705,39.52594 92.37762,40.01061 92.35686,40.50935 92.43561,41.00227 92.6107,41.46971 92.87518,41.89305 93.21849,42.25542 93.62695,42.54235 94.08427,42.74242 94.57222,42.84764 95.07134,42.85382 95.56175,42.76072 96.02389,42.57205 96.43933,42.29532 96.79151,41.94158 97.0664,41.52492 97.25302,41.06195 97.34396,40.57114 "/>
<polygon points="10,431.7598 9.950167,431.2631 9.802652,430.7863 9.563339,430.3482 9.241767,429.9664 8.850756,429.6561 8.405894,429.4297 7.924918,429.2962 7.427001,429.2609 6.931994,429.3252 6.459632,429.4865 6.028747,429.7386 5.656515,430.0711 5.357778,430.471 5.144444,430.9223 5.025019,431.407 5.004263,431.9057 5.083004,432.3987 5.258104,432.8661 5.522581,433.2894 5.865891,433.6518 6.274347,433.9387 6.731667,434.1388 7.219617,434.244 7.718746,434.2502 8.209153,434.1571 8.671289,433.9684 9.08673,433.6917 9.438912,433.338 9.713798,432.9213 9.900425,432.4583 9.991355,431.9675 "/>
<polygon points="110.414,209.6046 110.3642,209.108 110.2167,208.6311 109.9774,208.193 109.6558,207.8112 109.2648,207.5009 108.8199,207.2745 108.339,207.141 107.841,207.1057 107.346,207.17 106.8737,207.3314 106.4428,207.5834 106.0705,207.916 105.7718,208.3159 105.5585,208.7672 105.439,209.2518 105.4183,209.7506 105.497,210.2435 105.6721,210.7109 105.9366,211.1343 106.2799,211.4966 106.6884,211.7836 107.1457,211.9836 107.6337,212.0889 108.1328,212.095 108.6232,212.0019 109.0853,211.8133 109.5008,211.5365 109.8529,211.1828 110.1278,210.7661 110.3145,210.3032 110.4054,209.8124 "/>
<polygon points="10.00023,220.1646 9.9504,219.668 9.802887,219.1911 9.563574,218.753 9.242001,218.3712 8.85099,218.0609 8.406129,217.8345 7.925152,217.701 7.427235,217.6657 6.932229,217.73 6.459867,217.8914 6.028981,218.1434 5.65675,218.476 5.358012,218.8759 5.144679,219.3272 5.025253,219.8118 5.004498,220.3106 5.08324,220.8035 5.258339,221.2709 5.522816,221.6943 5.866126,222.0566 6.274582,222.3436 6.731902,222.5436 7.219852,222.6488 7.71898,222.655 8.209388,222.5619 8.671524,222.3733 9.086965,222.0965 9.439147,221.7428 9.714031,221.3261 9.900659,220.8632 9.99159,220.3724 "/>
<polygon points="123.4748,378.8457 123.425,378.349 123.2775,377.8721 123.0382,377.4341 122.7166,377.0523 122.3256,376.742 121.8807,376.5156 121.3997,376.382 120.9018,376.3467 120.4068,376.411 119.9344,376.5724 119.5036,376.8244 119.1313,377.157 118.8326,377.5569 118.6193,378.0082 118.4998,378.4929 118.4791,378.9916 118.5578,379.4845 118.7329,379.952 118.9974,380.3753 119.3407,380.7377 119.7492,381.0246 120.2065,381.2247 120.6944,381.3299 121.1936,381.3361 121.684,381.243 122.1461,381.0543 122.5615,380.7776 122.9137,380.4238 123.1886,380.0072 123.3752,379.5442 123.4662,379.0534 "/>
</svg>
