<svg version="1.1">
<polygon points="11.49721,0 11.49721,5.5 11.49721,5.5 12.49721,5.5 12.49721,5.5 12.97663,5.622417 13.33868,5.959698 13.4947,6.429263 13.4065,6.916147 13.09568,7.301144 12.63833,7.489993 12.49721,7.5 4.997208,7.5 4.997208,7.5 4.498041,7.524979 4.003861,7.599667 3.519607,7.723318 3.050116,7.894695 2.60008,8.112087 2.173995,8.373322 1.776119,8.675789 1.410427,9.016467 1.080573,9.391951 0.7898523,9.798489 0.5411705,10.23202 0.3370118,10.68821 0.1794164,11.16251 0.06995878,11.65017 0.009732614,12.14632 -0.0006603448,12.646 0.03888367,13.14422 0.1279695,13.63601 0.2657072,14.11645 0.4507203,14.58073 0.6811604,15.02423 0.954725,15.4425 1.268681,15.83138 1.61989,16.18697 2.004845,16.50572 2.419699,16.78444 2.860306,17.02036 3.322264,17.21111 3.800958,17.35479 4.291604,17.44996 4.7893,17.49568 4.997208,17.5 12.49721,17.5 12.49721,17.5 12.97663,17.62242 13.33868,17.9597 13.4947,18.42926 13.4065,18.91615 13.09568,19.30114 12.63833,19.48999 12.49721,19.5 11.49721,19.5 11.49721,19.5 11.49721,25 11.49721,25 111.4972,25 111.4972,25 111.4972,19.5 111.4972,19.5 110.4972,19.5 110.4972,19.5 110.0178,19.37758 109.6557,19.0403 109.4997,18.57074 109.5879,18.08385 109.8987,17.69886 110.3561,17.51001 110.4972,17.5 117.9972,17.5 117.9972,17.5 118.4964,17.47502 118.9906,17.40033 119.4748,17.27668 119.9443,17.1053 120.3943,16.88791 120.8204,16.62668 121.2183,16.32421 121.584,15.98353 121.9138,15.60805 122.2046,15.20151 122.4532,14.76798 122.6574,14.31179 122.815,13.83749 122.9245,13.34983 122.9847,12.85368 122.9951,12.354 122.9555,11.85578 122.8664,11.36399 122.7287,10.88355 122.5437,10.41927 122.3133,9.97577 122.0397,9.557495 121.7257,9.168621 121.3745,8.813033 120.9896,8.494284 120.5747,8.215557 120.1341,7.97964 119.6721,7.788889 119.1935,7.64521 118.7028,7.550038 118.2051,7.504324 117.9972,7.5 110.4972,7.5 110.4972,7.5 110.0178,7.377583 109.6557,7.040302 109.4997,6.570737 109.5879,6.083853 109.8987,5.698856 110.3561,5.510007 110.4972,5.5 111.4972,5.5 111.4972,5.5 111.4972,0 111.4972,0 11.49721,0 "/>
</svg>
