<svg version="1.1">
<polygon points="34.02875,79.73761 48.96682,64.65244 48.96682,64.65244 48.96682,58.02886 48.96682,58.02886 48.97697,57.529 49.00739,57.02996 49.05803,56.53256 49.1288,56.03763 49.21961,55.54598 49.33028,55.05842 49.46065,54.57575 49.61049,54.09877 49.77956,53.62825 49.96758,53.16499 50.17425,52.70974 50.39921,52.26324 50.64211,51.82624 50.90253,51.39946 51.18006,50.9836 51.47423,50.57933 51.78456,50.18734 52.11054,49.80826 52.45163,49.44271 52.80728,49.09131 53.17689,48.75463 53.55985,48.43322 53.95554,48.12761 54.3633,47.83831 54.78247,47.56579 55.21234,47.3105 55.65222,47.07287 56.10138,46.85328 56.55908,46.65209 57.02457,46.46964 57.49707,46.30622 57.97582,46.16211 58.46001,46.03755 58.94887,45.93273 59.44157,45.84783 59.93732,45.78299 60.43528,45.73832 60.93465,45.71389 61.28682,45.70886 79.73761,45.70886 79.73761,45.70886 64.65244,30.77079 64.65244,30.77079 58.02886,30.77079 58.02886,30.77079 57.529,30.76064 57.02996,30.73023 56.53256,30.67959 56.03763,30.60881 55.54598,30.51801 55.05842,30.40733 54.57575,30.27696 54.09877,30.12712 53.62825,29.95805 53.16499,29.77003 52.70974,29.56336 52.26324,29.3384 51.82624,29.0955 51.39946,28.83508 50.9836,28.55755 50.57933,28.26338 50.18734,27.95305 49.80826,27.62707 49.44271,27.28598 49.09131,26.93033 48.75463,26.56073 48.43322,26.17776 48.12761,25.78207 47.83831,25.37431 47.56579,24.95515 47.3105,24.52527 47.07287,24.08539 46.85328,23.63623 46.65209,23.17853 46.46964,22.71305 46.30622,22.24054 46.16211,21.7618 46.03755,21.2776 45.93273,20.78874 45.84783,20.29604 45.78299,19.80029 45.73832,19.30233 45.71389,18.80296 45.70886,18.45079 45.70886,0 45.70886,0 30.77079,15.08518 30.77079,15.08518 30.77079,21.70875 30.77079,21.70875 30.76064,22.20861 30.73023,22.70765 30.67959,23.20505 30.60881,23.69998 30.51801,24.19163 30.40733,24.67919 30.27696,25.16186 30.12712,25.63885 29.95805,26.10936 29.77003,26.57262 29.56336,27.02787 29.3384,27.47437 29.0955,27.91137 28.83508,28.33815 28.55755,28.75401 28.26338,29.15828 27.95305,29.55027 27.62707,29.92935 27.28598,30.29489 26.93033,30.6463 26.56073,30.98298 26.17776,31.30439 25.78207,31.61 25.37431,31.8993 24.95515,32.17182 24.52527,32.4271 24.08539,32.66474 23.63623,32.88433 23.17853,33.08552 22.71305,33.26797 22.24054,33.43139 21.7618,33.5755 21.2776,33.70006 20.78874,33.80488 20.29604,33.88978 19.80029,33.95462 19.30233,33.99929 18.80296,34.02372 18.45079,34.02875 0,34.02875 0,34.02875 15.08518,48.96682 15.08518,48.96682 21.70875,48.96682 21.70875,48.96682 22.20861,48.97697 22.70765,49.00739 23.20505,49.05803 23.69998,49.1288 24.19163,49.21961 24.67919,49.33028 25.16186,49.46065 25.63885,49.61049 26.10936,49.77956 26.57262,49.96758 27.02787,50.17425 27.47437,50.39921 27.91137,50.64211 28.33815,50.90253 28.75401,51.18006 29.15828,51.47423 29.55027,51.78456 29.92935,52.11054 30.29489,52.45163 30.6463,52.80728 30.98298,53.17689 31.30439,53.55985 31.61,53.95554 31.8993,54.3633 32.17182,54.78247 32.4271,55.21234 32.66474,55.65222 32.88433,56.10138 33.08552,56.55908 33.26797,57.02457 33.43139,57.49707 33.5755,57.97582 33.70006,58.46001 33.80488,58.94887 33.88978,59.44157 33.95462,59.93732 33.99929,60.43528 34.02372,60.93465 34.02875,61.28682 34.02875,79.73761 "/>
<polygon points="45.13489,39.86881 45.11117,39.36956 45.04023,38.87481 44.9227,38.38901 44.75964,37.91654 44.55253,37.46166 44.30322,37.02847 44.01397,36.62086 43.68738,36.2425 43.32639,35.89682 42.93425,35.58691 42.5145,35.31558 42.07092,35.08527 41.6075,34.89804 41.12841,34.7556 40.63798,34.65921 40.14063,34.60975 39.64082,34.60767 39.14306,34.65298 38.65184,34.74528 38.17159,34.88373 37.70663,35.06709 37.26114,35.2937 36.83914,35.56153 36.44444,35.86816 36.08058,36.21083 35.75085,36.58644 35.45821,36.99163 35.20531,37.42274 34.99441,37.87588 34.82743,38.34697 34.70586,38.83178 34.63079,39.32592 34.60292,39.82495 34.62248,40.32438 34.6893,40.81971 34.80278,41.30647 34.96189,41.78027 35.16521,42.23686 35.4109,42.67212 35.69675,43.08213 36.02018,43.46318 36.37827,43.81186 36.76781,44.12502 37.18529,44.39984 37.62694,44.63384 38.08879,44.82492 38.56667,44.97135 39.05628,45.07182 39.55321,45.12542 40.05298,45.13166 40.55109,45.0905 41.04306,45.0023 41.52445,44.86785 41.99092,44.68837 42.43828,44.46548 42.8625,44.20118 43.25974,43.89785 43.62644,43.55822 43.95929,43.18537 44.25529,42.78263 44.51178,42.35365 44.72644,41.90228 44.89734,41.4326 45.02295,40.94883 45.10212,40.45533 45.13416,39.95654 "/>
</svg>
