<svg version="1.1">
<polygon points="74.99721,29.99721 75.49638,29.97223 75.99055,29.89754 76.47481,29.77389 76.9443,29.60251 77.39433,29.38512 77.82042,29.12388 78.21829,28.82142 78.58398,28.48074 78.91384,28.10526 79.20456,27.69872 79.45325,27.26519 79.6574,26.80899 79.81499,26.3347 79.92445,25.84704 79.98468,25.35089 79.99508,24.85121 79.95553,24.35298 79.86645,23.8612 79.72871,23.38076 79.54369,22.91647 79.31326,22.47298 79.03969,22.0547 78.72573,21.66583 78.37453,21.31024 77.98957,20.99149 77.57471,20.71276 77.1341,20.47684 76.67215,20.28609 76.19345,20.14241 75.7028,20.04724 75.20511,20.00153 74.70533,20.00573 74.20847,20.05981 73.7195,20.16322 73.24329,20.31492 72.7846,20.51342 72.34802,20.75671 71.93791,21.04237 71.55837,21.36755 71.21319,21.72899 70.90582,22.12309 70.63932,22.54591 70.41637,22.99322 70.2392,23.46055 70.10956,23.94324 70.02875,24.43646 69.99759,24.93528 69.99721,24.99721 69.97223,25.49637 69.89754,25.99055 69.77389,26.47481 69.60252,26.9443 69.38512,27.39433 69.12389,27.82042 68.82142,28.2183 68.48074,28.58399 68.10526,28.91384 67.69872,29.20456 67.26519,29.45324 66.809,29.6574 66.3347,29.815 65.84705,29.92446 65.35089,29.98468 64.85121,29.99508 64.35299,29.95553 63.8612,29.86645 63.38076,29.72871 62.91647,29.5437 62.47298,29.31326 62.0547,29.03969 61.66583,28.72573 61.31024,28.37453 60.99149,27.98957 60.71276,27.57471 60.47685,27.13411 60.28609,26.67215 60.14242,26.19345 60.04725,25.7028 60.00153,25.20511 60.00573,24.70533 60.05981,24.20848 60.16322,23.7195 60.31493,23.24329 60.51342,22.7846 60.75671,22.34802 61.04237,21.93791 61.36755,21.55837 61.729,21.21319 62.1231,20.90582 62.54591,20.63932 62.99322,20.41637 63.46055,20.23919 63.94324,20.10955 64.43645,20.02875 64.93528,19.99759 64.99721,19.99721 65.49638,19.97223 65.99055,19.89754 66.47481,19.77389 66.9443,19.60251 67.39433,19.38512 67.82042,19.12388 68.21829,18.82142 68.58398,18.48074 68.91384,18.10526 69.20456,17.69872 69.45325,17.26519 69.6574,16.809 69.81499,16.3347 69.92445,15.84704 69.98468,15.35089 69.99508,14.85121 69.95553,14.35299 69.86645,13.8612 69.72871,13.38076 69.54369,12.91647 69.31326,12.47298 69.03969,12.0547 68.72573,11.66583 68.37453,11.31024 67.98957,10.99149 67.57471,10.71276 67.13411,10.47685 66.67215,10.28609 66.19345,10.14242 65.7028,10.04724 65.20511,10.00153 64.70533,10.00573 64.20847,10.05981 63.7195,10.16322 63.24329,10.31493 62.7846,10.51342 62.34802,10.75671 61.93791,11.04237 61.55837,11.36755 61.21319,11.729 60.90582,12.12309 60.63932,12.54591 60.41637,12.99322 60.23919,13.46055 60.10955,13.94324 60.02875,14.43646 59.99759,14.93528 59.99721,14.99721 59.97223,15.49638 59.89754,15.99055 59.77389,16.47481 59.60251,16.9443 59.38512,17.39433 59.12389,17.82042 58.82142,18.2183 58.48074,18.58399 58.10526,18.91384 57.69872,19.20456 57.26519,19.45324 56.809,19.6574 56.3347,19.815 55.84705,19.92446 55.35089,19.98468 54.85121,19.99508 54.35299,19.95553 53.8612,19.86645 53.38076,19.72871 52.91647,19.5437 52.47298,19.31326 52.0547,19.03969 51.66583,18.72573 51.31024,18.37453 50.99149,17.98957 50.71276,17.57471 50.47685,17.13411 50.28609,16.67215 50.14242,16.19345 50.04725,15.70281 50.00153,15.20511 50.00573,14.70533 50.05981,14.20848 50.16322,13.7195 50.31493,13.24329 50.51342,12.7846 50.75671,12.34802 51.04237,11.93791 51.36755,11.55837 51.729,11.21319 52.1231,10.90582 52.54591,10.63932 52.99322,10.41637 53.46055,10.23919 53.94324,10.10955 54.43645,10.02875 54.93528,9.997591 54.99721,9.997208 55.49638,9.972228 55.99055,9.89754 56.47481,9.77389 56.9443,9.602512 57.39434,9.38512 57.82042,9.123886 58.2183,8.821419 58.58399,8.480742 58.91384,8.105258 59.20456,7.69872 59.45324,7.265189 59.6574,6.808997 59.815,6.334702 59.92446,5.847044 59.98468,5.350894 59.99508,4.851211 59.95553,4.352986 59.86645,3.861198 59.72871,3.380761 59.54369,2.916475 59.31326,2.472979 59.03969,2.054703 58.72573,1.665829 58.37452,1.31024 57.98957,0.99149 57.57471,0.712764 57.13411,0.4768468 56.67215,0.2860956 56.19345,0.1424164 55.7028,0.04724485 55.20511,0.001531774 54.70533,0.00573396 54.20848,0.05980942 53.7195,0.1632178 53.24329,0.314926 52.7846,0.5134181 52.34802,0.7567108 51.93791,1.042373 51.55837,1.367551 51.21319,1.728996 50.90582,2.123095 50.63932,2.545912 50.41637,2.993221 50.23919,3.460553 50.10955,3.943239 50.02875,4.436457 49.99759,4.935277 49.99721,4.997208 49.97223,5.496375 49.89754,5.990554 49.77389,6.474809 49.60251,6.944299 49.38512,7.394335 49.12389,7.82042 48.82142,8.218296 48.48074,8.583988 48.10526,8.913842 47.69872,9.204563 47.26519,9.453245 46.80899,9.657403 46.3347,9.814999 45.84704,9.924457 45.35089,9.984683 44.85121,9.995075 44.35299,9.955532 43.8612,9.866446 43.38076,9.728708 42.91647,9.543694 42.47298,9.313255 42.0547,9.03969 41.66583,8.725735 41.31024,8.374525 40.99149,7.98957 40.71276,7.574717 40.47685,7.134109 40.2861,6.672152 40.14242,6.193458 40.04725,5.702812 40.00153,5.205115 39.99721,4.997208 39.97223,4.498041 39.89754,4.003861 39.77389,3.519607 39.60251,3.050116 39.38512,2.60008 39.12389,2.173995 38.82142,1.776119 38.48074,1.410427 38.10526,1.080573 37.69872,0.789853 37.26519,0.5411711 36.809,0.3370124 36.3347,0.1794169 35.84705,0.06995914 35.35089,0.00973278 34.85121,-0.0006604063 34.35299,0.03888343 33.8612,0.1279692 33.38076,0.2657067 32.91647,0.4507199 32.47298,0.68116 32.0547,0.9547246 31.66583,1.26868 31.31024,1.619891 30.99149,2.004846 30.71276,2.419701 30.47685,2.860309 30.28609,3.322268 30.14242,3.800962 30.04725,4.29161 30.00153,4.789307 30.00573,5.289082 30.05981,5.78594 30.16322,6.274918 30.31493,6.751129 30.51342,7.209815 30.75671,7.646394 31.04237,8.056502 31.36755,8.436044 31.729,8.781225 32.1231,9.088598 32.54591,9.355091 32.99322,9.578041 33.46055,9.755221 33.94324,9.884861 34.43645,9.965664 34.93528,9.996824 34.99721,9.997208 35.49638,10.02219 35.99055,10.09688 36.47481,10.22052 36.9443,10.3919 37.39434,10.60929 37.82042,10.87053 38.2183,11.173 38.58399,11.51367 38.91384,11.88916 39.20456,12.2957 39.45324,12.72923 39.6574,13.18542 39.815,13.65971 39.92446,14.14737 39.98468,14.64352 39.99508,15.1432 39.95553,15.64143 39.86645,16.13322 39.72871,16.61365 39.54369,17.07794 39.31326,17.52144 39.03969,17.93971 38.72573,18.32859 38.37452,18.68418 37.98957,19.00293 37.57471,19.28165 37.13411,19.51757 36.67215,19.70832 36.19345,19.852 35.7028,19.94717 35.20511,19.99288 34.70533,19.98868 34.20848,19.93461 33.7195,19.8312 33.24329,19.67949 32.7846,19.481 32.34802,19.23771 31.93791,18.95204 31.55837,18.62686 31.21319,18.26542 30.90582,17.87132 30.63932,17.4485 30.41637,17.00119 30.23919,16.53386 30.10955,16.05118 30.02875,15.55796 29.99759,15.05914 29.99721,14.99721 29.97223,14.49804 29.89754,14.00386 29.77389,13.51961 29.60251,13.05012 29.38512,12.60008 29.12389,12.174 28.82142,11.77612 28.48074,11.41043 28.10526,11.08057 27.69872,10.78985 27.26519,10.54117 26.809,10.33701 26.3347,10.17942 25.84704,10.06996 25.35089,10.00973 24.85121,9.99934 24.35299,10.03888 23.8612,10.12797 23.38076,10.26571 22.91648,10.45072 22.47298,10.68116 22.0547,10.95472 21.66583,11.26868 21.31024,11.61989 20.99149,12.00485 20.71276,12.4197 20.47685,12.86031 20.28609,13.32227 20.14242,13.80096 20.04725,14.29161 20.00153,14.78931 20.00573,15.28908 20.05981,15.78594 20.16322,16.27492 20.31493,16.75113 20.51342,17.20981 20.75671,17.64639 21.04237,18.0565 21.36755,18.43604 21.729,18.78123 22.12309,19.0886 22.54591,19.35509 22.99322,19.57804 23.46055,19.75522 23.94324,19.88486 24.43646,19.96566 24.93528,19.99682 24.99721,19.99721 25.49637,20.02219 25.99055,20.09687 26.47481,20.22053 26.9443,20.3919 27.39433,20.60929 27.82042,20.87053 28.2183,21.173 28.58399,21.51367 28.91384,21.88916 29.20456,22.2957 29.45324,22.72923 29.6574,23.18542 29.815,23.65971 29.92446,24.14737 29.98468,24.64352 29.99508,25.1432 29.95553,25.64143 29.86645,26.13322 29.72871,26.61365 29.5437,27.07794 29.31326,27.52144 29.03969,27.93971 28.72573,28.32859 28.37453,28.68418 27.98957,29.00293 27.57471,29.28165 27.13411,29.51757 26.67215,29.70832 26.19345,29.852 25.7028,29.94717 25.20511,29.99288 24.70533,29.98868 24.20848,29.93461 23.7195,29.8312 23.24329,29.67949 22.7846,29.481 22.34802,29.23771 21.93791,28.95204 21.55837,28.62686 21.21319,28.26542 20.90582,27.87132 20.63932,27.4485 20.41637,27.00119 20.23919,26.53386 20.10955,26.05118 20.02875,25.55796 19.99759,25.05914 19.99721,24.99721 19.97223,24.49804 19.89754,24.00386 19.77389,23.51961 19.60251,23.05012 19.38512,22.60008 19.12389,22.174 18.82142,21.77612 18.48074,21.41043 18.10526,21.08057 17.69872,20.78985 17.26519,20.54117 16.809,20.33701 16.3347,20.17942 15.84704,20.06996 15.35089,20.00973 14.85121,19.99934 14.35299,20.03888 13.8612,20.12797 13.38076,20.26571 12.91648,20.45072 12.47298,20.68116 12.0547,20.95473 11.66583,21.26868 11.31024,21.61989 10.99149,22.00485 10.71276,22.4197 10.47685,22.86031 10.2861,23.32227 10.14242,23.80096 10.04725,24.29161 10.00153,24.78931 10.00573,25.28908 10.05981,25.78594 10.16322,26.27492 10.31493,26.75113 10.51342,27.20981 10.75671,27.64639 11.04237,28.0565 11.36755,28.43604 11.729,28.78123 12.12309,29.0886 12.54591,29.35509 12.99322,29.57804 13.46055,29.75522 13.94324,29.88486 14.43646,29.96566 14.93528,29.99682 14.99721,29.99721 15.49638,30.02219 15.99055,30.09687 16.47481,30.22053 16.9443,30.3919 17.39433,30.60929 17.82042,30.87053 18.2183,31.173 18.58399,31.51367 18.91384,31.88916 19.20456,32.2957 19.45324,32.72923 19.6574,33.18542 19.815,33.65971 19.92446,34.14737 19.98468,34.64352 19.99508,35.1432 19.95553,35.64143 19.86645,36.13322 19.72871,36.61366 19.5437,37.07794 19.31326,37.52144 19.03969,37.93971 18.72573,38.32859 18.37453,38.68417 17.98957,39.00293 17.57471,39.28165 17.13411,39.51757 16.67215,39.70832 16.19345,39.852 15.70281,39.94717 15.20511,39.99288 14.70533,39.98868 14.20848,39.9346 13.7195,39.8312 13.24329,39.67949 12.7846,39.481 12.34802,39.23771 11.93791,38.95204 11.55837,38.62687 11.21319,38.26542 10.90582,37.87132 10.63932,37.44851 10.41637,37.00119 10.23919,36.53386 10.10955,36.05117 10.02875,35.55796 9.997591,35.05914 9.997208,34.99721 9.972228,34.49804 9.89754,34.00386 9.77389,33.51961 9.602512,33.05012 9.38512,32.60008 9.123886,32.174 8.821419,31.77612 8.480742,31.41043 8.105258,31.08057 7.69872,30.78985 7.265189,30.54117 6.808997,30.33701 6.334702,30.17942 5.847044,30.06996 5.350894,30.00973 4.851211,29.99934 4.352986,30.03888 3.861198,30.12797 3.380761,30.26571 2.916475,30.45072 2.472979,30.68116 2.054703,30.95473 1.665829,31.26868 1.31024,31.61989 0.99149,32.00484 0.712764,32.4197 0.4768468,32.86031 0.2860956,33.32227 0.1424164,33.80096 0.04724485,34.29161 0.001531774,34.78931 0.00573396,35.28908 0.05980942,35.78594 0.1632178,36.27492 0.314926,36.75113 0.5134181,37.20982 0.7567108,37.64639 1.042373,38.0565 1.367551,38.43604 1.728996,38.78123 2.123095,39.0886 2.545912,39.35509 2.993221,39.57804 3.460553,39.75522 3.943239,39.88486 4.436457,39.96566 4.935277,39.99682 4.997208,39.99721 5.496375,40.02219 5.990554,40.09687 6.474809,40.22052 6.944299,40.3919 7.394335,40.60929 7.82042,40.87053 8.218296,41.173 8.583988,41.51368 8.913842,41.88916 9.204563,42.2957 9.453245,42.72923 9.657403,43.18542 9.814999,43.65971 9.924457,44.14737 9.984683,44.64352 9.997208,44.99721 10.02219,45.49638 10.09688,45.99055 10.22052,46.47481 10.3919,46.9443 10.60929,47.39434 10.87053,47.82042 11.173,48.2183 11.51367,48.58399 11.88916,48.91384 12.2957,49.20456 12.72923,49.45324 13.18542,49.6574 13.65971,49.815 14.14737,49.92446 14.64352,49.98468 15.14321,49.99508 15.64143,49.95553 16.13322,49.86645 16.61366,49.72871 17.07794,49.54369 17.52144,49.31326 17.93971,49.03969 18.32859,48.72573 18.68418,48.37452 19.00292,47.98957 19.28165,47.57472 19.51757,47.13411 19.70832,46.67215 19.852,46.19346 19.94717,45.70281 19.99288,45.20512 19.99721,44.99721 20.02219,44.49804 20.09687,44.00386 20.22053,43.51961 20.3919,43.05012 20.60929,42.60008 20.87053,42.174 21.173,41.77612 21.51367,41.41043 21.88916,41.08057 22.2957,40.78985 22.72923,40.54117 23.18542,40.33701 23.65971,40.17942 24.14737,40.06996 24.64352,40.00973 25.14321,39.99934 25.64143,40.03888 26.13322,40.12797 26.61366,40.26571 27.07794,40.45072 27.52144,40.68116 27.93971,40.95472 28.32859,41.26868 28.68418,41.61989 29.00292,42.00484 29.28165,42.4197 29.51757,42.86031 29.70832,43.32227 29.852,43.80096 29.94717,44.2916 29.99288,44.7893 29.99721,44.99721 30.02219,45.49638 30.09687,45.99055 30.22053,46.47481 30.3919,46.9443 30.60929,47.39434 30.87053,47.82042 31.173,48.2183 31.51367,48.58399 31.88916,48.91384 32.2957,49.20456 32.72923,49.45324 33.18542,49.6574 33.65971,49.815 34.14737,49.92446 34.64352,49.98468 35.14321,49.99508 35.64143,49.95553 36.13322,49.86645 36.61366,49.72871 37.07794,49.54369 37.52144,49.31326 37.93971,49.03969 38.32859,48.72573 38.68417,48.37452 39.00293,47.98957 39.28165,47.57472 39.51757,47.13411 39.70832,46.67215 39.852,46.19346 39.94717,45.70281 39.99288,45.20512 39.99721,44.99721 39.97223,44.49804 39.89754,44.00386 39.77389,43.51961 39.60251,43.05012 39.38512,42.60008 39.12389,42.174 38.82142,41.77612 38.48074,41.41043 38.10526,41.08057 37.69872,40.78985 37.26519,40.54117 36.80899,40.33701 36.3347,40.17942 35.84704,40.06996 35.35089,40.00973 34.99721,39.99721 34.49804,39.97223 34.00386,39.89754 33.51961,39.77389 33.05012,39.60251 32.60008,39.38512 32.174,39.12389 31.77612,38.82142 31.41043,38.48074 31.08057,38.10526 30.78985,37.69872 30.54117,37.26519 30.33701,36.809 30.17942,36.3347 30.06996,35.84705 30.00973,35.35089 29.99934,34.85121 30.03888,34.35299 30.12797,33.8612 30.26571,33.38076 30.45072,32.91647 30.68116,32.47298 30.95473,32.0547 31.26868,31.66583 31.61989,31.31024 32.00484,30.99149 32.4197,30.71276 32.86031,30.47685 33.32227,30.28609 33.80096,30.14242 34.29161,30.04725 34.78931,30.00153 35.28908,30.00573 35.78594,30.05981 36.27492,30.16322 36.75113,30.31493 37.20982,30.51342 37.64639,30.75671 38.0565,31.04237 38.43604,31.36755 38.78123,31.729 39.0886,32.1231 39.35509,32.54591 39.57804,32.99322 39.75522,33.46055 39.88486,33.94324 39.96566,34.43645 39.99682,34.93528 39.99721,34.99721 40.02219,35.49638 40.09687,35.99055 40.22052,36.47481 40.3919,36.9443 40.60929,37.39434 40.87053,37.82042 41.173,38.2183 41.51368,38.58399 41.88916,38.91384 42.2957,39.20456 42.72923,39.45324 43.18542,39.6574 43.65971,39.815 44.14737,39.92446 44.64352,39.98468 45.1432,39.99508 45.64143,39.95553 46.13322,39.86645 46.61366,39.72871 47.07794,39.54369 47.52144,39.31326 47.93971,39.03969 48.32859,38.72573 48.68417,38.37452 49.00293,37.98957 49.28165,37.57471 49.51757,37.13411 49.70832,36.67215 49.852,36.19345 49.94717,35.7028 49.99288,35.20511 49.98868,34.70533 49.9346,34.20848 49.8312,33.7195 49.67949,33.24329 49.481,32.7846 49.23771,32.34802 48.95204,31.93791 48.62687,31.55837 48.26542,31.21319 47.87132,30.90582 47.44851,30.63932 47.00119,30.41637 46.53386,30.23919 46.05117,30.10955 45.55796,30.02875 45.05914,29.99759 44.99721,29.99721 44.49804,29.97223 44.00386,29.89754 43.51961,29.77389 43.05012,29.60251 42.60008,29.38512 42.174,29.12389 41.77612,28.82142 41.41043,28.48074 41.08057,28.10526 40.78985,27.69872 40.54117,27.26519 40.33701,26.809 40.17942,26.3347 40.06996,25.84704 40.00973,25.35089 39.99934,24.85121 40.03888,24.35299 40.12797,23.8612 40.26571,23.38076 40.45072,22.91648 40.68116,22.47298 40.95472,22.0547 41.26868,21.66583 41.61989,21.31024 42.00484,20.99149 42.4197,20.71276 42.86031,20.47685 43.32227,20.28609 43.80096,20.14242 44.29161,20.04725 44.78931,20.00153 45.28908,20.00573 45.78594,20.05981 46.27492,20.16322 46.75113,20.31493 47.20982,20.51342 47.64639,20.75671 48.0565,21.04237 48.43604,21.36755 48.78123,21.729 49.0886,22.12309 49.35509,22.54591 49.57804,22.99322 49.75522,23.46055 49.88486,23.94324 49.96566,24.43646 49.99682,24.93528 49.99721,24.99721 50.02219,25.49637 50.09687,25.99055 50.22052,26.47481 50.3919,26.9443 50.60929,27.39433 50.87053,27.82042 51.173,28.2183 51.51368,28.58399 51.88916,28.91384 52.2957,29.20456 52.72923,29.45325 53.18542,29.6574 53.65971,29.815 54.14737,29.92446 54.64352,29.98468 54.99721,29.99721 55.49638,30.02219 55.99055,30.09687 56.47481,30.22053 56.9443,30.3919 57.39434,30.60929 57.82042,30.87053 58.2183,31.173 58.58399,31.51367 58.91384,31.88916 59.20456,32.2957 59.45324,32.72923 59.6574,33.18542 59.815,33.65971 59.92446,34.14737 59.98468,34.64352 59.99508,35.14321 59.95553,35.64143 59.86645,36.13322 59.72871,36.61366 59.54369,37.07794 59.31326,37.52144 59.03969,37.93971 58.72573,38.32859 58.37452,38.68417 57.98957,39.00293 57.57472,39.28165 57.13411,39.51757 56.67215,39.70832 56.19346,39.852 55.70281,39.94717 55.20512,39.99288 54.99721,39.99721 54.49804,40.02219 54.00386,40.09687 53.51961,40.22052 53.05012,40.3919 52.60008,40.60929 52.174,40.87053 51.77612,41.173 51.41043,41.51368 51.08057,41.88916 50.78985,42.2957 50.54117,42.72923 50.33701,43.18542 50.17942,43.65971 50.06996,44.14737 50.00973,44.64352 49.99934,45.1432 50.03888,45.64143 50.12797,46.13322 50.26571,46.61366 50.45072,47.07794 50.68116,47.52144 50.95472,47.93971 51.26868,48.32859 51.61989,48.68417 52.00484,49.00293 52.4197,49.28165 52.86031,49.51757 53.32227,49.70832 53.80096,49.852 54.29161,49.94717 54.78931,49.99288 55.28908,49.98868 55.78594,49.9346 56.27492,49.8312 56.75113,49.67949 57.20982,49.481 57.64639,49.23771 58.0565,48.95204 58.43604,48.62687 58.78123,48.26542 59.0886,47.87132 59.35509,47.44851 59.57804,47.00119 59.75522,46.53386 59.88486,46.05117 59.96566,45.55796 59.99682,45.05914 59.99721,44.99721 60.02219,44.49804 60.09687,44.00386 60.22052,43.51961 60.3919,43.05012 60.60929,42.60008 60.87053,42.174 61.173,41.77612 61.51368,41.41043 61.88916,41.08057 62.2957,40.78985 62.72923,40.54117 63.18542,40.33701 63.65971,40.17942 64.14737,40.06996 64.64352,40.00973 65.1432,39.99934 65.64143,40.03888 66.13322,40.12797 66.61366,40.26571 67.07794,40.45072 67.52144,40.68116 67.93971,40.95472 68.32859,41.26868 68.68417,41.61989 69.00292,42.00484 69.28165,42.4197 69.51757,42.86031 69.70832,43.32227 69.852,43.80096 69.94717,44.2916 69.99288,44.7893 69.99721,44.99721 69.99721,59.99721 69.99721,59.99721 69.97223,60.49638 69.89754,60.99055 69.77389,61.47481 69.60252,61.9443 69.38512,62.39434 69.12389,62.82042 68.82142,63.2183 68.48074,63.58399 68.10526,63.91384 67.69872,64.20456 67.26519,64.45325 66.809,64.6574 66.3347,64.815 65.84705,64.92445 65.35089,64.98468 64.85121,64.99508 64.35298,64.95553 63.8612,64.86645 63.38076,64.72871 62.91647,64.54369 62.47298,64.31326 62.0547,64.03969 61.66583,63.72573 61.31024,63.37452 60.99149,62.98957 60.71276,62.57472 60.47685,62.13411 60.2861,61.67215 60.14242,61.19346 60.04725,60.70281 60.00153,60.20512 59.99721,59.99721 59.97223,59.49804 59.89754,59.00386 59.77389,58.51961 59.60251,58.05012 59.38512,57.60008 59.12389,57.174 58.82142,56.77612 58.48074,56.41043 58.10526,56.08057 57.69872,55.78985 57.26519,55.54117 56.809,55.33701 56.3347,55.17942 55.84705,55.06996 55.35089,55.00973 54.85121,54.99934 54.35299,55.03888 53.8612,55.12797 53.38076,55.26571 52.91647,55.45072 52.47298,55.68116 52.0547,55.95472 51.66583,56.26868 51.31024,56.61989 50.99149,57.00484 50.71276,57.4197 50.47685,57.86031 50.28609,58.32227 50.14242,58.80096 50.04725,59.29161 50.00153,59.78931 50.00573,60.28908 50.05981,60.78594 50.16322,61.27492 50.31493,61.75113 50.51342,62.20982 50.75671,62.64639 51.04237,63.0565 51.36755,63.43604 51.729,63.78123 52.1231,64.0886 52.54591,64.35509 52.99322,64.57804 53.46055,64.75522 53.94324,64.88486 54.43645,64.96567 54.93528,64.99683 54.99721,64.99721 55.49638,65.02219 55.99055,65.09688 56.47481,65.22053 56.9443,65.3919 57.39434,65.6093 57.82042,65.87053 58.2183,66.173 58.58399,66.51367 58.91384,66.88916 59.20456,67.2957 59.45324,67.72923 59.6574,68.18542 59.815,68.65971 59.92446,69.14737 59.98468,69.64352 59.99508,70.1432 59.95553,70.64143 59.86645,71.13322 59.72871,71.61366 59.54369,72.07794 59.31326,72.52144 59.03969,72.93971 58.72573,73.32859 58.37452,73.68417 57.98957,74.00292 57.57472,74.28165 57.13411,74.51757 56.67215,74.70832 56.19346,74.852 55.70281,74.94717 55.20512,74.99288 54.99721,74.99721 54.49804,75.02219 54.00386,75.09688 53.51961,75.22053 53.05012,75.39191 52.60008,75.6093 52.174,75.87053 51.77612,76.173 51.41043,76.51368 51.08057,76.88916 50.78986,77.2957 50.54117,77.72923 50.33701,78.18542 50.17942,78.65971 50.06996,79.14738 50.00973,79.64352 49.99721,79.99721 49.97223,80.49638 49.89754,80.99055 49.77389,81.47481 49.60251,81.9443 49.38512,82.39433 49.12389,82.82042 48.82142,83.21829 48.48074,83.58398 48.10526,83.91384 47.69872,84.20456 47.26519,84.45325 46.809,84.6574 46.3347,84.81499 45.84705,84.92445 45.35089,84.98468 44.85121,84.99508 44.35299,84.95553 43.8612,84.86645 43.38076,84.72871 42.91647,84.54369 42.47298,84.31326 42.0547,84.03969 41.66583,83.72574 41.31024,83.37453 40.99149,82.98957 40.71276,82.57471 40.47685,82.13411 40.28609,81.67215 40.14242,81.19345 40.04725,80.7028 40.00153,80.20511 40.00573,79.70533 40.05981,79.20847 40.16322,78.7195 40.31493,78.24329 40.51342,77.7846 40.75671,77.34802 41.04237,76.93791 41.36755,76.55837 41.729,76.21319 42.1231,75.90582 42.54591,75.63933 42.99322,75.41637 43.46055,75.2392 43.94324,75.10956 44.43645,75.02875 44.93528,74.99759 44.99721,74.99721 45.49638,74.97223 45.99055,74.89754 46.47481,74.77389 46.9443,74.60252 47.39434,74.38512 47.82042,74.12389 48.2183,73.82142 48.58399,73.48074 48.91384,73.10526 49.20456,72.69872 49.45324,72.26519 49.6574,71.809 49.815,71.3347 49.92446,70.84705 49.98468,70.35089 49.99508,69.85121 49.95553,69.35299 49.86645,68.8612 49.72871,68.38076 49.54369,67.91647 49.31326,67.47298 49.03969,67.0547 48.72573,66.66583 48.37452,66.31024 47.98957,65.99149 47.57471,65.71276 47.13411,65.47684 46.67215,65.28609 46.19345,65.14242 45.7028,65.04724 45.20511,65.00153 44.70533,65.00574 44.20848,65.05981 43.7195,65.16322 43.24329,65.31493 42.7846,65.51342 42.34802,65.75671 41.93791,66.04237 41.55837,66.36755 41.21319,66.729 40.90582,67.12309 40.63932,67.54591 40.41637,67.99322 40.23919,68.46056 40.10955,68.94324 40.02875,69.43645 39.99759,69.93528 39.99721,69.99721 39.97223,70.49638 39.89754,70.99055 39.77389,71.47481 39.60251,71.9443 39.38512,72.39433 39.12389,72.82042 38.82142,73.21829 38.48074,73.58398 38.10526,73.91384 37.69872,74.20456 37.26519,74.45325 36.809,74.6574 36.3347,74.81499 35.84705,74.92445 35.35089,74.98468 34.85121,74.99508 34.35299,74.95553 33.8612,74.86645 33.38076,74.72871 32.91647,74.54369 32.47298,74.31326 32.0547,74.03969 31.66583,73.72574 31.31024,73.37453 30.99149,72.98957 30.71276,72.57471 30.47685,72.13411 30.28609,71.67215 30.14242,71.19345 30.04725,70.7028 30.00153,70.20511 30.00573,69.70533 30.05981,69.20847 30.16322,68.7195 30.31493,68.24329 30.51342,67.7846 30.75671,67.34802 31.04237,66.93791 31.36755,66.55837 31.729,66.21319 32.1231,65.90582 32.54591,65.63933 32.99322,65.41637 33.46055,65.2392 33.94324,65.10956 34.43645,65.02875 34.93528,64.99759 34.99721,64.99721 35.49638,64.97223 35.99055,64.89754 36.47481,64.77389 36.9443,64.60252 37.39434,64.38512 37.82042,64.12389 38.2183,63.82142 38.58399,63.48074 38.91384,63.10526 39.20456,62.69872 39.45324,62.26519 39.6574,61.80899 39.815,61.3347 39.92446,60.84704 39.98468,60.35089 39.99721,59.99721 39.97223,59.49804 39.89754,59.00386 39.77389,58.51961 39.60251,58.05012 39.38512,57.60008 39.12389,57.174 38.82142,56.77612 38.48074,56.41043 38.10526,56.08057 37.69872,55.78985 37.26519,55.54117 36.80899,55.33701 36.3347,55.17942 35.84704,55.06996 35.35089,55.00973 34.85121,54.99934 34.35299,55.03888 33.8612,55.12797 33.38076,55.26571 32.91647,55.45072 32.47298,55.68116 32.0547,55.95472 31.66583,56.26868 31.31024,56.61989 30.99149,57.00484 30.71276,57.4197 30.47685,57.86031 30.2861,58.32227 30.14242,58.80096 30.04725,59.2916 30.00153,59.7893 29.99721,59.99721 29.97223,60.49638 29.89754,60.99055 29.77389,61.47481 29.60251,61.9443 29.38512,62.39434 29.12389,62.82042 28.82142,63.2183 28.48074,63.58399 28.10526,63.91384 27.69872,64.20456 27.26519,64.45325 26.809,64.6574 26.3347,64.815 25.84704,64.92445 25.35089,64.98468 24.85121,64.99508 24.35299,64.95553 23.8612,64.86645 23.38076,64.72871 22.91647,64.54369 22.47298,64.31326 22.0547,64.03969 21.66583,63.72573 21.31024,63.37452 20.99149,62.98957 20.71276,62.57472 20.47685,62.13411 20.2861,61.67215 20.14242,61.19346 20.04725,60.70281 20.00153,60.20512 19.99721,59.99721 19.97223,59.49804 19.89754,59.00386 19.77389,58.51961 19.60251,58.05012 19.38512,57.60008 19.12389,57.174 18.82142,56.77612 18.48074,56.41043 18.10526,56.08057 17.69872,55.78985 17.26519,55.54117 16.809,55.33701 16.3347,55.17942 15.84704,55.06996 15.35089,55.00973 14.85121,54.99934 14.35298,55.03888 13.8612,55.12797 13.38076,55.26571 12.91647,55.45072 12.47298,55.68116 12.0547,55.95472 11.66583,56.26868 11.31024,56.61989 10.99149,57.00484 10.71276,57.4197 10.47685,57.86031 10.2861,58.32227 10.14242,58.80096 10.04725,59.2916 10.00153,59.7893 9.997208,59.99721 9.972228,60.49638 9.89754,60.99055 9.77389,61.47481 9.602512,61.9443 9.38512,62.39434 9.123885,62.82042 8.821419,63.2183 8.480741,63.58399 8.105257,63.91384 7.698719,64.20456 7.265187,64.45325 6.808996,64.6574 6.334701,64.815 5.847042,64.92445 5.350893,64.98468 4.997208,64.99721 4.498041,65.02219 4.003861,65.09687 3.519607,65.22053 3.050116,65.3919 2.60008,65.60929 2.173995,65.87053 1.776119,66.173 1.410427,66.51367 1.080572,66.88915 0.789852,67.29569 0.5411699,67.72923 0.3370111,68.18542 0.1794154,68.65971 0.06995748,69.14737 0.00973097,69.64352 -0.0006623521,70.1432 0.03888136,70.64143 0.127967,71.13322 0.2657045,71.61366 0.4507175,72.07794 0.6811575,72.52144 0.9547221,72.93971 1.268678,73.32858 1.619888,73.68417 2.004843,74.00292 2.419698,74.28165 2.860306,74.51757 3.322265,74.70832 3.80096,74.852 4.291607,74.94717 4.789304,74.99288 5.289079,74.98869 5.785938,74.93461 6.274915,74.8312 6.751126,74.67949 7.209813,74.481 7.646392,74.23771 8.056501,73.95204 8.436043,73.62687 8.781224,73.26542 9.088597,72.87132 9.35509,72.44851 9.57804,72.0012 9.75522,71.53387 9.88486,71.05118 9.965664,70.55796 9.996824,70.05914 9.997208,69.99721 10.02219,69.49804 10.09688,69.00386 10.22052,68.51961 10.3919,68.05012 10.60929,67.60008 10.87053,67.174 11.173,66.77612 11.51367,66.41043 11.88916,66.08057 12.2957,65.78986 12.72923,65.54117 13.18542,65.33701 13.65971,65.17942 14.14737,65.06996 14.64352,65.00974 15.14321,64.99934 15.64143,65.03889 16.13322,65.12797 16.61366,65.26571 17.07794,65.45072 17.52144,65.68116 17.93971,65.95473 18.32859,66.26868 18.68418,66.6199 19.00293,67.00485 19.28165,67.4197 19.51757,67.86031 19.70832,68.32227 19.852,68.80096 19.94717,69.29161 19.99288,69.78931 19.98868,70.28909 19.9346,70.78594 19.8312,71.27492 19.67949,71.75113 19.481,72.20982 19.2377,72.64639 18.95204,73.0565 18.62686,73.43604 18.26542,73.78123 17.87132,74.0886 17.4485,74.35509 17.00119,74.57804 16.53386,74.75522 16.05117,74.88486 15.55796,74.96566 15.05914,74.99683 14.99721,74.99721 14.49804,75.02219 14.00386,75.09687 13.51961,75.22053 13.05012,75.3919 12.60008,75.60929 12.174,75.87053 11.77612,76.173 11.41043,76.51367 11.08057,76.88915 10.78985,77.29569 10.54117,77.72923 10.33701,78.18542 10.17942,78.65971 10.06996,79.14737 10.00973,79.64352 9.999337,80.1432 10.03888,80.64143 10.12797,81.13322 10.2657,81.61366 10.45072,82.07794 10.68116,82.52144 10.95472,82.93971 11.26868,83.32858 11.61989,83.68417 12.00484,84.00292 12.4197,84.28165 12.86031,84.51757 13.32226,84.70832 13.80096,84.852 14.29161,84.94717 14.7893,84.99288 15.28908,84.98869 15.78594,84.93461 16.27492,84.8312 16.75113,84.67949 17.20981,84.481 17.64639,84.23771 18.0565,83.95204 18.43604,83.62687 18.78122,83.26542 19.0886,82.87132 19.35509,82.44851 19.57804,82.0012 19.75522,81.53387 19.88486,81.05118 19.96566,80.55796 19.99682,80.05914 19.99721,79.99721 20.02219,79.49804 20.09687,79.00386 20.22053,78.51961 20.3919,78.05012 20.60929,77.60008 20.87053,77.174 21.173,76.77612 21.51367,76.41043 21.88916,76.08057 22.2957,75.78986 22.72923,75.54117 23.18542,75.33701 23.65971,75.17942 24.14737,75.06996 24.64352,75.00974 25.1432,74.99934 25.64143,75.03889 26.13322,75.12797 26.61365,75.26571 27.07794,75.45072 27.52143,75.68116 27.93971,75.95473 28.32858,76.26868 28.68417,76.6199 29.00292,77.00485 29.28165,77.4197 29.51756,77.86031 29.70832,78.32227 29.852,78.80096 29.94717,79.29161 29.99288,79.78931 29.98868,80.28909 29.9346,80.78594 29.83119,81.27492 29.67949,81.75113 29.48099,82.20982 29.2377,82.64639 28.95204,83.0565 28.62686,83.43604 28.26542,83.78123 27.87132,84.0886 27.4485,84.35509 27.00119,84.57804 26.53386,84.75522 26.05117,84.88486 25.55795,84.96566 25.05914,84.99682 24.99721,84.99721 24.49804,85.02219 24.00386,85.09687 23.51961,85.22052 23.05012,85.3919 22.60008,85.60929 22.17399,85.87053 21.77612,86.173 21.41043,86.51367 21.08057,86.88915 20.78985,87.29569 20.54117,87.72923 20.33701,88.18542 20.17941,88.65971 20.06996,89.14737 20.00973,89.64352 19.99934,90.1432 20.03888,90.64143 20.12796,91.13322 20.2657,91.61366 20.45072,92.07794 20.68115,92.52144 20.95472,92.93971 21.26867,93.32858 21.61988,93.68417 22.00484,94.00292 22.41969,94.28165 22.8603,94.51757 23.32226,94.70832 23.80095,94.852 24.2916,94.94717 24.78929,94.99288 25.28906,94.98869 25.78592,94.93461 26.2749,94.83121 26.75111,94.6795 27.20979,94.48101 27.64637,94.23772 28.05648,93.95206 28.43603,93.62688 28.78121,93.26544 29.08858,92.87135 29.35508,92.44853 29.57803,92.00122 29.75521,91.53389 29.88485,91.05121 29.96566,90.55799 29.99682,90.05917 29.99721,89.99721 30.02219,89.49804 30.09687,89.00386 30.22053,88.51961 30.3919,88.05012 30.60929,87.60008 30.87053,87.174 31.173,86.77612 31.51367,86.41043 31.88916,86.08057 32.2957,85.78986 32.72923,85.54117 33.18542,85.33701 33.65971,85.17942 34.14737,85.06996 34.64352,85.00974 35.1432,84.99934 35.64143,85.03889 36.13322,85.12797 36.61366,85.26571 37.07794,85.45072 37.52144,85.68116 37.93971,85.95473 38.32859,86.26868 38.68417,86.61989 39.00293,87.00484 39.28165,87.4197 39.51757,87.86031 39.70832,88.32227 39.852,88.80096 39.94717,89.29161 39.99288,89.78931 39.98868,90.28909 39.9346,90.78594 39.8312,91.27492 39.67949,91.75113 39.481,92.20982 39.23771,92.64639 38.95204,93.0565 38.62687,93.43604 38.26542,93.78123 37.87132,94.0886 37.44851,94.35509 37.00119,94.57804 36.53386,94.75522 36.05117,94.88486 35.55796,94.96567 35.05914,94.99683 34.99721,94.99721 34.49804,95.02219 34.00386,95.09688 33.51961,95.22053 33.05012,95.3919 32.60008,95.6093 32.174,95.87053 31.77612,96.173 31.41043,96.51367 31.08057,96.88916 30.78985,97.29569 30.54117,97.72923 30.33701,98.18542 30.17942,98.65971 30.06996,99.14737 30.00973,99.64352 29.99934,100.1432 30.03888,100.6414 30.12797,101.1332 30.26571,101.6137 30.45072,102.0779 30.68116,102.5214 30.95473,102.9397 31.26868,103.3286 31.61989,103.6842 32.00484,104.0029 32.4197,104.2817 32.86031,104.5176 33.32227,104.7083 33.80096,104.852 34.29161,104.9472 34.78931,104.9929 35.28908,104.9887 35.78594,104.9346 36.27492,104.8312 36.75113,104.6795 37.20982,104.481 37.64639,104.2377 38.0565,103.952 38.43604,103.6269 38.78123,103.2654 39.0886,102.8713 39.35509,102.4485 39.57804,102.0012 39.75522,101.5339 39.88486,101.0512 39.96566,100.558 39.99682,100.0591 39.99721,99.99721 40.02219,99.49804 40.09687,99.00386 40.22052,98.51961 40.3919,98.05012 40.60929,97.60008 40.87053,97.174 41.173,96.77612 41.51368,96.41042 41.88916,96.08057 42.2957,95.78986 42.72923,95.54117 43.18542,95.33701 43.65971,95.17941 44.14737,95.06996 44.64352,95.00974 45.14321,94.99934 45.64143,95.03889 46.13322,95.12797 46.61366,95.26571 47.07794,95.45072 47.52144,95.68116 47.93971,95.95473 48.32859,96.26868 48.68417,96.61989 49.00293,97.00484 49.28165,97.4197 49.51757,97.86031 49.70832,98.32227 49.852,98.80096 49.94717,99.2916 49.99288,99.7893 49.99721,99.99721 50.02219,100.4964 50.09687,100.9906 50.22052,101.4748 50.3919,101.9443 50.60929,102.3943 50.87053,102.8204 51.173,103.2183 51.51368,103.584 51.88916,103.9138 52.2957,104.2046 52.72923,104.4532 53.18542,104.6574 53.65971,104.815 54.14737,104.9245 54.64352,104.9847 55.1432,104.9951 55.64143,104.9555 56.13322,104.8664 56.61366,104.7287 57.07794,104.5437 57.52144,104.3133 57.93971,104.0397 58.32859,103.7257 58.68417,103.3745 59.00293,102.9896 59.28165,102.5747 59.51757,102.1341 59.70832,101.6721 59.852,101.1935 59.94717,100.7028 59.99288,100.2051 59.98868,99.70533 59.9346,99.20847 59.8312,98.7195 59.67949,98.24329 59.481,97.7846 59.23771,97.34802 58.95204,96.93791 58.62687,96.55837 58.26542,96.21319 57.87132,95.90582 57.44851,95.63933 57.00119,95.41637 56.53386,95.2392 56.05117,95.10956 55.55796,95.02875 55.05914,94.99759 54.99721,94.99721 54.49804,94.97223 54.00386,94.89754 53.51961,94.77389 53.05012,94.60252 52.60008,94.38512 52.174,94.12389 51.77612,93.82142 51.41043,93.48074 51.08057,93.10526 50.78985,92.69872 50.54117,92.26519 50.33701,91.809 50.17942,91.3347 50.06996,90.84705 50.00973,90.35089 49.99934,89.85121 50.03888,89.35299 50.12797,88.8612 50.26571,88.38076 50.45072,87.91647 50.68116,87.47298 50.95472,87.0547 51.26868,86.66583 51.61989,86.31024 52.00484,85.99149 52.4197,85.71276 52.86031,85.47684 53.32227,85.28609 53.80096,85.14242 54.29161,85.04724 54.78931,85.00153 55.28908,85.00574 55.78594,85.05981 56.27492,85.16322 56.75113,85.31493 57.20982,85.51342 57.64639,85.75671 58.0565,86.04237 58.43604,86.36755 58.78123,86.729 59.0886,87.12309 59.35509,87.54591 59.57804,87.99322 59.75522,88.46056 59.88486,88.94324 59.96566,89.43645 59.99682,89.93528 59.99721,89.99721 60.02219,90.49638 60.09687,90.99055 60.22052,91.47481 60.3919,91.9443 60.60929,92.39433 60.87053,92.82042 61.173,93.21829 61.51368,93.58398 61.88916,93.91384 62.2957,94.20456 62.72923,94.45325 63.18542,94.6574 63.65971,94.81499 64.14737,94.92445 64.64352,94.98468 65.1432,94.99508 65.64143,94.95553 66.13322,94.86645 66.61366,94.72871 67.07794,94.54369 67.52144,94.31326 67.93971,94.03969 68.32858,93.72574 68.68417,93.37453 69.00292,92.98957 69.28165,92.57471 69.51757,92.13411 69.70832,91.67215 69.852,91.19345 69.94717,90.7028 69.99288,90.20511 69.98868,89.70533 69.93461,89.20847 69.8312,88.7195 69.67949,88.24329 69.481,87.7846 69.2377,87.34802 68.95204,86.93791 68.62686,86.55837 68.26542,86.21319 67.87132,85.90582 67.4485,85.63933 67.0012,85.41637 66.53386,85.2392 66.05118,85.10956 65.55796,85.02875 65.05914,84.99759 64.99721,84.99721 64.49804,84.97223 64.00386,84.89754 63.51961,84.77389 63.05012,84.60252 62.60008,84.38512 62.174,84.12389 61.77612,83.82142 61.41043,83.48074 61.08057,83.10526 60.78985,82.69872 60.54117,82.26519 60.33701,81.809 60.17942,81.3347 60.06996,80.84705 60.00973,80.35089 59.99934,79.85121 60.03888,79.35299 60.12797,78.8612 60.26571,78.38076 60.45072,77.91647 60.68116,77.47298 60.95472,77.0547 61.26868,76.66583 61.61989,76.31024 62.00484,75.99149 62.4197,75.71276 62.86031,75.47684 63.32227,75.28609 63.80096,75.14242 64.29161,75.04724 64.78931,75.00153 65.28909,75.00574 65.78594,75.05981 66.27492,75.16322 66.75113,75.31493 67.20982,75.51342 67.64639,75.75671 68.0565,76.04237 68.43604,76.36755 68.78123,76.729 69.0886,77.12309 69.35509,77.54591 69.57804,77.99322 69.75522,78.46056 69.88486,78.94324 69.96567,79.43645 69.99683,79.93528 69.99721,79.99721 70.02219,80.49638 70.09688,80.99055 70.22053,81.47481 70.3919,81.9443 70.6093,82.39433 70.87053,82.82042 71.173,83.21829 71.51367,83.58398 71.88916,83.91384 72.29569,84.20456 72.72923,84.45325 73.18542,84.6574 73.65971,84.81499 74.14737,84.92445 74.64352,84.98468 75.1432,84.99508 75.64143,84.95553 76.13322,84.86645 76.61366,84.72871 77.07794,84.54369 77.52144,84.31326 77.93971,84.03969 78.32858,83.72574 78.68417,83.37453 79.00292,82.98957 79.28165,82.57471 79.51757,82.13411 79.70832,81.67215 79.852,81.19345 79.94717,80.7028 79.99288,80.20511 79.98868,79.70533 79.93461,79.20847 79.8312,78.7195 79.67949,78.24329 79.481,77.7846 79.2377,77.34802 78.95204,76.93791 78.62686,76.55837 78.26542,76.21319 77.87132,75.90582 77.4485,75.63933 77.0012,75.41637 76.53386,75.2392 76.05118,75.10956 75.55796,75.02875 75.05914,74.99759 74.99721,74.99721 74.49804,74.97223 74.00386,74.89754 73.51961,74.77389 73.05012,74.60252 72.60008,74.38512 72.174,74.12389 71.77612,73.82142 71.41043,73.48074 71.08057,73.10526 70.78986,72.69872 70.54117,72.26519 70.33701,71.809 70.17942,71.3347 70.06996,70.84705 70.00974,70.35089 69.99934,69.85121 70.03889,69.35299 70.12797,68.8612 70.26571,68.38076 70.45072,67.91647 70.68116,67.47298 70.95473,67.0547 71.26868,66.66583 71.61989,66.31024 72.00484,65.99149 72.4197,65.71276 72.86031,65.47684 73.32227,65.28609 73.80096,65.14242 74.29161,65.04724 74.78931,65.00153 75.28909,65.00574 75.78594,65.05981 76.27492,65.16322 76.75113,65.31493 77.20982,65.51342 77.64639,65.75671 78.0565,66.04237 78.43604,66.36755 78.78123,66.729 79.0886,67.12309 79.35509,67.54591 79.57804,67.99322 79.75522,68.46056 79.88486,68.94324 79.96567,69.43645 79.99683,69.93528 79.99721,69.99721 80.02219,70.49638 80.09688,70.99055 80.22053,71.47481 80.3919,71.9443 80.6093,72.39433 80.87053,72.82042 81.173,73.21829 81.51367,73.58398 81.88916,73.91384 82.29569,74.20456 82.72923,74.45325 83.18542,74.6574 83.65971,74.81499 84.14737,74.92445 84.64352,74.98468 85.1432,74.99508 85.64143,74.95553 86.13322,74.86645 86.61366,74.72871 87.07794,74.54369 87.52144,74.31326 87.93971,74.03969 88.32858,73.72574 88.68417,73.37453 89.00292,72.98957 89.28165,72.57471 89.51757,72.13411 89.70832,71.67215 89.852,71.19345 89.94717,70.7028 89.99288,70.20511 89.98868,69.70533 89.93461,69.20847 89.8312,68.7195 89.67949,68.24329 89.481,67.7846 89.2377,67.34802 88.95204,66.93791 88.62686,66.55837 88.26542,66.21319 87.87132,65.90582 87.4485,65.63933 87.0012,65.41637 86.53386,65.2392 86.05118,65.10956 85.55796,65.02875 85.05914,64.99759 84.99721,64.99721 84.49804,64.97223 84.00386,64.89754 83.51961,64.77389 83.05012,64.60251 82.60008,64.38512 82.174,64.12389 81.77612,63.82141 81.41043,63.48074 81.08057,63.10526 80.78986,62.69872 80.54118,62.26519 80.33701,61.80899 80.17942,61.3347 80.06996,60.84704 80.00974,60.35089 79.99721,59.99721 79.99721,44.99721 79.99721,44.99721 80.02219,44.49804 80.09688,44.00386 80.22053,43.51961 80.39191,43.05012 80.6093,42.60008 80.87053,42.174 81.173,41.77612 81.51368,41.41043 81.88916,41.08057 82.2957,40.78986 82.72923,40.54117 83.18542,40.33701 83.65971,40.17942 84.14738,40.06996 84.64352,40.00973 84.99721,39.99721 85.49638,39.97223 85.99055,39.89754 86.47481,39.77389 86.9443,39.60251 87.39433,39.38512 87.82042,39.12389 88.21829,38.82142 88.58398,38.48074 88.91384,38.10526 89.20456,37.69872 89.45325,37.26519 89.6574,36.809 89.81499,36.3347 89.92445,35.84705 89.98468,35.35089 89.99508,34.85121 89.95553,34.35299 89.86645,33.8612 89.72871,33.38076 89.54369,32.91647 89.31326,32.47298 89.03969,32.0547 88.72574,31.66583 88.37453,31.31024 87.98957,30.99149 87.57471,30.71276 87.13411,30.47685 86.67215,30.28609 86.19345,30.14242 85.7028,30.04725 85.20511,30.00153 84.70533,30.00573 84.20847,30.05981 83.7195,30.16322 83.24329,30.31493 82.7846,30.51342 82.34802,30.75671 81.93791,31.04237 81.55837,31.36755 81.21319,31.729 80.90582,32.1231 80.63933,32.54591 80.41637,32.99322 80.2392,33.46055 80.10956,33.94324 80.02875,34.43645 79.99759,34.93528 79.99721,34.99721 79.97223,35.49638 79.89754,35.99055 79.77389,36.47481 79.60252,36.9443 79.38512,37.39434 79.12389,37.82042 78.82142,38.2183 78.48074,38.58399 78.10526,38.91384 77.69872,39.20456 77.26519,39.45324 76.809,39.6574 76.3347,39.815 75.84705,39.92446 75.35089,39.98468 74.85121,39.99508 74.35299,39.95553 73.8612,39.86645 73.38076,39.72871 72.91647,39.54369 72.47298,39.31326 72.0547,39.03969 71.66583,38.72573 71.31024,38.37452 70.99149,37.98957 70.71276,37.57471 70.47684,37.13411 70.28609,36.67215 70.14242,36.19345 70.04724,35.7028 70.00153,35.20511 70.00574,34.70533 70.05981,34.20848 70.16322,33.7195 70.31493,33.24329 70.51342,32.7846 70.75671,32.34802 71.04237,31.93791 71.36755,31.55837 71.729,31.21319 72.12309,30.90582 72.54591,30.63932 72.99322,30.41637 73.46056,30.23919 73.94324,30.10955 74.43645,30.02875 74.93528,29.99759 "/>
</svg>
