<svg version="1.1">
<polygon points="660.5964,170.0162 661.0912,169.954 661.5552,169.7713 661.9597,169.4795 662.0106,169.4304 680.839,150.6019 680.839,150.6019 681.1449,150.2081 681.3439,149.7508 681.4235,149.2585 681.4248,149.1877 681.4248,130.7819 681.4248,130.7819 681.3671,130.3051 649.7528,1.523183 649.7528,1.523179 649.5745,1.057458 649.2864,0.6503407 648.9067,0.3271396 648.4587,0.1079513 647.9705,0.006404866 647.8105,6.878433E-16 641.4248,6.878433E-16 641.4248,6.878433E-16 641.4248,113.3495 641.4248,113.3495 40,113.3495 40,113.3495 40,6.878433E-16 40,6.878433E-16 33.61427,6.878433E-16 33.61427,1.629745E-07 33.11946,0.06217534 32.65542,0.2448351 32.251,0.5366226 31.93133,0.9193959 31.7163,1.369356 31.67194,1.523183 0.05766996,130.3051 0.05767091,130.3051 5.68E-14,130.7819 5.68E-14,149.1877 2.709279E-06,149.1877 0.06217755,149.6825 0.2448364,150.1466 0.5366224,150.551 0.5857865,150.6019 19.41421,169.4304 19.41421,169.4304 19.80806,169.7363 20.26535,169.9352 20.75764,170.0149 20.82843,170.0161 660.5964,170.0161 "/>
<polygon points="311.102,129.7657 310.6289,129.9276 310.1628,130.1083 309.7042,130.3074 309.2539,130.5247 308.8127,130.7599 308.3812,131.0125 307.9601,131.282 307.5502,131.5682 307.152,131.8706 306.7662,132.1886 306.3934,132.5217 306.0342,132.8695 305.6892,133.2314 305.3589,133.6067 305.0439,133.9949 304.7447,134.3955 304.4616,134.8076 304.1953,135.2307 303.946,135.6641 303.7143,136.1071 303.5005,136.5591 303.3048,137.0192 303.1277,137.4867 302.9695,137.961 302.8303,138.4412 302.7104,138.9266 302.6099,139.4163 302.5291,139.9097 302.4681,140.406 302.4269,140.9042 302.4057,141.4037 302.4026,141.6652 302.5229,143.4187 302.5229,143.4187 302.879,145.1117 302.879,145.1117 303.4586,146.7234 303.4586,146.7234 304.2494,148.2333 304.2494,148.2333 305.2393,149.6207 305.2393,149.6207 306.416,150.865 306.416,150.865 307.7675,151.9455 307.7675,151.9455 309.2815,152.8415 309.2815,152.8415 309.733,153.0564 310.1926,153.2531 310.6597,153.4314 311.1335,153.591 311.6133,153.7315 312.0983,153.8529 312.5878,153.9549 313.0809,154.0373 313.5769,154.1001 313.6448,154.1071 314.1448,154.11 314.6447,154.1128 315.1447,154.1155 315.6447,154.1182 316.1447,154.1209 316.6447,154.1235 317.1447,154.126 317.6447,154.1285 318.1447,154.1309 318.6447,154.1333 319.1447,154.1357 319.6447,154.1379 320.1447,154.1402 320.6447,154.1423 321.1447,154.1445 321.6447,154.1465 322.1447,154.1485 322.6447,154.1505 323.1447,154.1524 323.6447,154.1543 324.1447,154.1561 324.6447,154.1578 325.1447,154.1595 325.6447,154.1611 326.1447,154.1627 326.6447,154.1642 327.1447,154.1657 327.6447,154.1672 328.1447,154.1685 328.6446,154.1698 329.1446,154.1711 329.6446,154.1723 330.1446,154.1735 330.6446,154.1746 331.1446,154.1756 331.6446,154.1767 332.1446,154.1776 332.6446,154.1785 333.1446,154.1793 333.6446,154.1801 334.1446,154.1809 334.6446,154.1815 335.1446,154.1822 335.6446,154.1827 336.1446,154.1833 336.6446,154.1837 337.1446,154.1842 337.6446,154.1845 338.1446,154.1848 338.6447,154.1851 339.1447,154.1853 339.6447,154.1854 340.1447,154.1855 340.6447,154.1856 341.1447,154.1856 341.6447,154.1855 342.1447,154.1854 342.6447,154.1852 343.1446,154.185 343.6446,154.1847 344.1446,154.1844 344.6446,154.184 345.1446,154.1836 345.6446,154.1831 346.1446,154.1825 346.6446,154.1819 347.1446,154.1813 347.6446,154.1806 348.1446,154.1798 348.6446,154.179 349.1446,154.1782 349.6446,154.1773 350.1446,154.1763 350.6446,154.1753 351.1446,154.1742 351.6446,154.1731 352.1446,154.1719 352.6446,154.1707 353.1446,154.1694 353.6446,154.168 354.1446,154.1666 354.6446,154.1652 355.1446,154.1637 355.6446,154.1621 356.1446,154.1605 356.6446,154.1589 357.1446,154.1572 357.6446,154.1554 358.1446,154.1536 358.6446,154.1517 359.1446,154.1498 359.6446,154.1478 360.1446,154.1458 360.6446,154.1437 361.1445,154.1415 361.6445,154.1393 362.1445,154.1371 362.6445,154.1348 363.1445,154.1325 363.6445,154.1301 364.1445,154.1276 364.6445,154.1251 365.1445,154.1225 365.6445,154.1199 366.1445,154.1172 366.6445,154.1145 367.1445,154.1117 367.6444,154.1089 367.7725,154.1082 368.269,154.0495 368.7627,153.9709 369.2529,153.8725 369.7387,153.7545 370.2195,153.617 370.6942,153.4604 371.1624,153.2848 371.623,153.0905 372.0755,152.8778 372.1316,152.8499 373.6483,151.9551 373.6483,151.9551 375.0025,150.8754 375.0025,150.8754 376.1819,149.6314 376.1819,149.6314 377.1741,148.2438 377.1741,148.2438 377.967,146.7333 377.967,146.7333 378.5484,145.1205 378.5484,145.1205 378.9059,143.4262 378.9059,143.4262 379.0273,141.671 379.0273,141.671 379.0167,141.1712 378.986,140.6721 378.9355,140.1747 378.8652,139.6797 378.7752,139.1879 378.6656,138.7001 378.5367,138.2171 378.3886,137.7395 378.2215,137.2683 378.0358,136.8041 377.8317,136.3477 377.6096,135.8998 377.3698,135.4611 377.1126,135.0323 376.8386,134.6141 376.5481,134.2072 376.2416,133.8122 375.9196,133.4298 375.5826,133.0605 375.231,132.7049 374.8657,132.3637 374.4869,132.0373 374.0955,131.7263 373.692,131.4311 373.2769,131.1523 372.9616,130.9559 372.5283,130.7065 372.0852,130.4749 371.633,130.2617 371.1725,130.0671 370.7043,129.8914 370.2295,129.735 369.7486,129.5981 369.2626,129.4809 368.7722,129.3837 368.2782,129.3066 367.7815,129.2498 367.6325,129.2367 313.8204,129.2348 313.8204,129.2348 313.323,129.2856 312.8281,129.3563 312.3363,129.4467 311.8486,129.5567 311.3657,129.6862 "/>
<polygon points="188.016,152.2371 188.4326,151.9607 188.8378,151.6678 189.231,151.359 189.6115,151.0347 189.9787,150.6954 190.332,150.3416 190.6709,149.974 190.9948,149.5932 191.3032,149.1996 191.5956,148.7941 191.8715,148.3771 192.1305,147.9495 192.3722,147.5118 192.5961,147.0648 192.802,146.6092 192.9895,146.1457 193.1583,145.6751 193.3081,145.1981 193.4386,144.7155 193.5498,144.228 193.6413,143.7365 193.7131,143.2417 193.7651,142.7445 193.797,142.2455 193.809,141.7457 193.801,141.2458 193.7729,140.7466 193.7249,140.249 193.657,139.7536 193.5694,139.2614 193.4621,138.7731 193.3353,138.2895 193.1892,137.8113 193.1358,137.6516 192.9647,137.1818 192.775,136.7192 192.567,136.2646 192.341,135.8186 192.0974,135.382 191.8365,134.9555 191.5588,134.5398 191.2646,134.1355 190.9546,133.7432 190.6292,133.3637 190.2888,132.9975 189.9341,132.6451 189.5656,132.3073 189.1838,131.9844 188.7895,131.677 188.3832,131.3856 187.9656,131.1107 187.5374,130.8527 187.0992,130.612 186.6517,130.389 186.1956,130.1841 185.7318,129.9976 185.2608,129.8297 184.7836,129.6808 184.3007,129.5511 183.8131,129.4407 183.3214,129.35 182.9945,129.3008 131.3161,129.1844 131.3161,129.1844 130.8162,129.1926 130.3171,129.2209 129.8194,129.2694 129.3242,129.338 128.8321,129.4265 128.344,129.5348 127.8607,129.6627 127.3829,129.81 126.9115,129.9765 126.4472,130.1619 125.9907,130.3659 125.8234,130.4464 125.3786,130.6747 124.9433,130.9206 124.5182,131.1838 124.1039,131.4636 123.7011,131.7598 123.3105,132.0719 122.9326,132.3993 122.5682,132.7415 122.2176,133.098 121.8816,133.4682 121.5606,133.8516 121.2552,134.2474 120.9659,134.6551 120.693,135.0741 120.4371,135.5036 120.1986,135.943 119.9778,136.3916 119.775,136.8486 119.5907,137.3133 119.4251,137.7851 119.2785,138.263 119.151,138.7465 119.043,139.2346 118.9545,139.7267 118.8858,140.2219 118.8369,140.7195 118.8079,141.2186 118.7997,141.5427 118.8045,142.0426 118.8292,142.542 118.8739,143.0399 118.9384,143.5357 119.0226,144.0285 119.1264,144.5176 119.2497,145.0022 119.3923,145.4814 119.5538,145.9545 119.7341,146.4208 119.9329,146.8796 120.1499,147.33 120.3846,147.7715 120.6368,148.2032 120.906,148.6245 121.1919,149.0347 121.4938,149.4331 121.8115,149.8192 122.1443,150.1923 122.4917,150.5518 122.8532,150.8972 123.2282,151.2279 123.6162,151.5433 124.0164,151.843 124.4282,152.1264 124.851,152.3932 125.2842,152.6429 125.7057,152.8645 126.1557,153.0823 126.6145,153.281 127.0812,153.4603 127.555,153.6198 128.0351,153.7594 128.5206,153.8787 129.0107,153.9775 129.5045,154.0557 129.601,154.0685 181.3047,154.1856 181.3047,154.1856 181.8046,154.177 182.3038,154.1483 182.8013,154.0995 183.2965,154.0307 183.7886,153.9419 184.2766,153.8335 184.7599,153.7054 185.2377,153.558 185.7091,153.3914 186.1734,153.206 186.6298,153.002 187.0777,152.7798 187.5163,152.5397 187.9448,152.2822 "/>
<polygon points="490.2563,134.0128 489.9572,134.4135 489.6744,134.8258 489.4083,135.2491 489.1594,135.6826 488.928,136.1258 488.7145,136.5779 488.5193,137.0382 488.3426,137.5059 488.1847,137.9803 488.046,138.4606 487.9265,138.9461 487.8266,139.436 487.7464,139.9295 487.6859,140.4258 487.6454,140.9241 487.6248,141.4237 487.6242,141.9236 487.6436,142.4232 487.6829,142.9216 487.7422,143.4181 487.8212,143.9117 487.92,144.4019 488.0382,144.8876 488.1758,145.3683 488.3325,145.8431 488.5081,146.3112 488.7022,146.772 488.9146,147.2246 488.9239,147.2434 489.1548,147.6868 489.4033,148.1207 489.669,148.5442 489.9514,148.9568 490.2501,149.3577 490.5646,149.7464 490.8944,150.1222 491.239,150.4844 491.5978,150.8326 491.9702,151.1661 492.3557,151.4845 492.7537,151.7871 493.1635,152.0736 493.5843,152.3434 494.0157,152.5962 494.4568,152.8316 494.907,153.049 495.3655,153.2483 495.8317,153.429 496.3047,153.591 496.7838,153.7339 497.2683,153.8575 497.7573,153.9615 498.2501,154.046 498.7458,154.1106 499.2438,154.1554 499.7432,154.1801 500.1252,154.1856 551.8102,154.0708 551.8102,154.0708 552.3041,153.9937 552.7947,153.8968 553.2809,153.7804 553.7621,153.6447 554.2374,153.4898 554.7062,153.316 555.1677,153.1237 555.6211,152.913 556.0657,152.6843 556.5009,152.4381 556.9258,152.1746 557.3398,151.8944 557.7424,151.5978 558.1327,151.2854 558.5102,150.9576 558.8743,150.615 559.2244,150.2581 559.56,149.8875 559.8804,149.5037 560.1853,149.1075 560.4741,148.6993 560.7463,148.28 561.0015,147.85 561.2394,147.4103 561.4594,146.9613 561.6614,146.504 561.8448,146.0389 562.0095,145.5668 562.1553,145.0885 562.2817,144.6048 562.3887,144.1165 562.4761,143.6242 562.5438,143.1288 562.5916,142.6312 562.6194,142.132 562.6273,141.6321 562.6151,141.1322 562.583,140.6333 562.5309,140.136 562.459,139.6413 562.3674,139.1498 562.2562,138.6623 562.1256,138.1797 561.9758,137.7027 561.807,137.2321 561.6196,136.7686 561.4138,136.313 561.1898,135.866 560.9482,135.4283 560.6893,135.0005 560.4135,134.5835 560.1213,134.1779 559.813,133.7843 559.4893,133.4033 559.1505,133.0355 558.7974,132.6816 558.4303,132.3421 558.05,132.0176 557.657,131.7085 557.252,131.4155 556.8355,131.1388 556.4083,130.879 555.9711,130.6365 555.5245,130.4117 555.0693,130.2049 554.6063,130.0165 554.2523,129.8867 553.7761,129.7344 553.2944,129.6003 552.808,129.4846 552.3176,129.3875 551.8237,129.3092 551.3273,129.2498 550.829,129.2093 550.3295,129.1879 550.1382,129.1847 498.4214,129.3025 498.4214,129.3025 497.9276,129.3809 497.4373,129.479 496.9514,129.5965 496.4705,129.7333 495.9954,129.8892 495.527,130.0639 495.0659,130.2572 494.6129,130.4688 494.1687,130.6982 493.734,130.9452 493.3095,131.2093 492.8958,131.4902 492.4938,131.7873 492.1039,132.1003 491.7268,132.4285 491.3631,132.7716 491.0133,133.1289 490.6782,133.4999 490.358,133.8839 "/>
<polygon points="69.81494,159.6705 69.78719,159.1715 69.70428,158.6787 69.56725,158.1981 69.37776,157.7357 69.13818,157.2971 68.85143,156.8878 68.52108,156.5129 68.15118,156.1768 67.7463,155.8839 67.31144,155.6376 66.85195,155.4411 66.37351,155.2968 65.88201,155.2064 65.38352,155.171 64.88419,155.1912 64.39016,155.2666 63.90754,155.3963 63.44228,155.5787 63.00011,155.8116 62.5865,156.092 62.20653,156.4166 61.8649,156.7814 61.56581,157.1817 61.31297,157.6128 61.10948,158.0692 60.95786,158.5454 60.85997,159.0355 60.81703,159.5334 60.82956,160.033 60.89741,160.5281 61.01974,161.0126 61.19504,161.4806 61.42115,161.9263 61.69529,162.3441 62.01406,162.729 62.37354,163.0761 62.76931,163.3813 63.19646,163.6407 63.64975,163.8511 64.12357,164.0099 64.61208,164.1153 65.10926,164.1658 65.60898,164.1609 66.10507,164.1006 66.59142,163.9857 67.06202,163.8175 67.51108,163.5982 67.93305,163.3305 68.32274,163.0176 68.67532,162.6635 68.98647,162.2724 69.25233,161.8493 69.46964,161.3992 69.6357,160.9279 69.74848,160.441 69.80658,159.9447 "/>
<polygon points="437.015,159.6705 436.9872,159.1715 436.9043,158.6787 436.7673,158.1981 436.5778,157.7357 436.3382,157.2971 436.0515,156.8878 435.7211,156.5129 435.3512,156.1768 434.9463,155.8839 434.5114,155.6376 434.052,155.4411 433.5735,155.2968 433.082,155.2064 432.5835,155.171 432.0842,155.1912 431.5902,155.2666 431.1075,155.3963 430.6423,155.5787 430.2001,155.8116 429.7865,156.092 429.4066,156.4166 429.0649,156.7814 428.7658,157.1817 428.513,157.6128 428.3095,158.0692 428.1579,158.5454 428.06,159.0355 428.017,159.5334 428.0296,160.033 428.0974,160.5281 428.2198,161.0126 428.3951,161.4806 428.6212,161.9263 428.8953,162.3441 429.2141,162.729 429.5735,163.0761 429.9693,163.3813 430.3965,163.6407 430.8498,163.8511 431.3236,164.0099 431.8121,164.1153 432.3093,164.1658 432.809,164.1609 433.3051,164.1006 433.7914,163.9857 434.262,163.8175 434.7111,163.5982 435.1331,163.3305 435.5227,163.0176 435.8753,162.6635 436.1865,162.2724 436.4523,161.8493 436.6696,161.3992 436.8357,160.9279 436.9485,160.441 437.0066,159.9447 "/>
<polygon points="620.6149,159.6705 620.5872,159.1715 620.5043,158.6787 620.3672,158.1981 620.1777,157.7357 619.9382,157.2971 619.6514,156.8878 619.321,156.5129 618.9512,156.1768 618.5463,155.8839 618.1115,155.6376 617.6519,155.4411 617.1735,155.2968 616.682,155.2064 616.1835,155.171 615.6842,155.1912 615.1901,155.2666 614.7075,155.3963 614.2422,155.5787 613.8001,155.8116 613.3865,156.092 613.0065,156.4166 612.6649,156.7814 612.3658,157.1817 612.113,157.6128 611.9095,158.0692 611.7579,158.5454 611.66,159.0355 611.617,159.5334 611.6296,160.033 611.6974,160.5281 611.8197,161.0126 611.9951,161.4806 612.2211,161.9263 612.4953,162.3441 612.814,162.729 613.1735,163.0761 613.5693,163.3813 613.9965,163.6407 614.4497,163.8511 614.9235,164.0099 615.412,164.1153 615.9092,164.1658 616.4089,164.1609 616.905,164.1006 617.3914,163.9857 617.862,163.8175 618.3111,163.5982 618.733,163.3305 619.1227,163.0176 619.4753,162.6635 619.7864,162.2724 620.0523,161.8493 620.2697,161.3992 620.4357,160.9279 620.5485,160.441 620.6066,159.9447 "/>
<polygon points="253.4149,159.6705 253.3872,159.1715 253.3043,158.6787 253.1673,158.1981 252.9778,157.7357 252.7382,157.2971 252.4514,156.8878 252.1211,156.5129 251.7512,156.1768 251.3463,155.8839 250.9114,155.6376 250.452,155.4411 249.9735,155.2968 249.482,155.2064 248.9835,155.171 248.4842,155.1912 247.9902,155.2666 247.5076,155.3963 247.0423,155.5787 246.6001,155.8116 246.1865,156.092 245.8065,156.4166 245.4649,156.7814 245.1658,157.1817 244.913,157.6128 244.7095,158.0692 244.5579,158.5454 244.46,159.0355 244.417,159.5334 244.4296,160.033 244.4974,160.5281 244.6198,161.0126 244.795,161.4806 245.0212,161.9263 245.2953,162.3441 245.6141,162.729 245.9736,163.0761 246.3693,163.3813 246.7965,163.6407 247.2498,163.8511 247.7236,164.0099 248.2121,164.1153 248.7093,164.1658 249.209,164.1609 249.7051,164.1006 250.1914,163.9857 250.662,163.8175 251.1111,163.5982 251.5331,163.3305 251.9227,163.0176 252.2753,162.6635 252.5865,162.2724 252.8523,161.8493 253.0696,161.3992 253.2357,160.9279 253.3485,160.441 253.4066,159.9447 "/>
<polygon points="437.015,123.6951 436.9872,123.1961 436.9043,122.7033 436.7673,122.2227 436.5778,121.7603 436.3382,121.3217 436.0515,120.9124 435.7211,120.5375 435.3512,120.2014 434.9463,119.9085 434.5114,119.6622 434.052,119.4657 433.5735,119.3214 433.082,119.231 432.5835,119.1956 432.0842,119.2158 431.5902,119.2912 431.1075,119.4209 430.6423,119.6033 430.2001,119.8361 429.7865,120.1166 429.4066,120.4412 429.0649,120.806 428.7658,121.2063 428.513,121.6374 428.3095,122.0938 428.1579,122.57 428.06,123.0601 428.017,123.558 428.0296,124.0575 428.0974,124.5527 428.2198,125.0372 428.3951,125.5052 428.6212,125.9509 428.8953,126.3687 429.2141,126.7536 429.5735,127.1007 429.9693,127.4059 430.3965,127.6653 430.8498,127.8757 431.3236,128.0345 431.8121,128.1399 432.3093,128.1904 432.809,128.1855 433.3051,128.1252 433.7914,128.0103 434.262,127.8421 434.7111,127.6228 435.1331,127.3551 435.5227,127.0422 435.8753,126.6881 436.1865,126.297 436.4523,125.8739 436.6696,125.4238 436.8357,124.9525 436.9485,124.4656 437.0066,123.9693 "/>
<polygon points="69.81494,123.6951 69.78719,123.1961 69.70428,122.7033 69.56725,122.2227 69.37776,121.7603 69.13818,121.3217 68.85143,120.9124 68.52108,120.5375 68.15118,120.2014 67.7463,119.9085 67.31144,119.6622 66.85195,119.4657 66.37351,119.3214 65.88201,119.231 65.38352,119.1956 64.88419,119.2158 64.39016,119.2912 63.90754,119.4209 63.44228,119.6033 63.00011,119.8361 62.5865,120.1166 62.20653,120.4412 61.8649,120.806 61.56581,121.2063 61.31297,121.6374 61.10948,122.0938 60.95786,122.57 60.85997,123.0601 60.81703,123.558 60.82956,124.0575 60.89741,124.5527 61.01974,125.0372 61.19504,125.5052 61.42115,125.9509 61.69529,126.3687 62.01406,126.7536 62.37354,127.1007 62.76931,127.4059 63.19646,127.6653 63.64975,127.8757 64.12357,128.0345 64.61208,128.1399 65.10926,128.1904 65.60898,128.1855 66.10507,128.1252 66.59142,128.0103 67.06202,127.8421 67.51108,127.6228 67.93305,127.3551 68.32274,127.0422 68.67532,126.6881 68.98647,126.297 69.25233,125.8739 69.46964,125.4238 69.6357,124.9525 69.74848,124.4656 69.80658,123.9693 "/>
<polygon points="253.4149,123.6951 253.3872,123.1961 253.3043,122.7033 253.1673,122.2227 252.9778,121.7603 252.7382,121.3217 252.4514,120.9124 252.1211,120.5375 251.7512,120.2014 251.3463,119.9085 250.9114,119.6622 250.452,119.4657 249.9735,119.3214 249.482,119.231 248.9835,119.1956 248.4842,119.2158 247.9902,119.2912 247.5076,119.4209 247.0423,119.6033 246.6001,119.8361 246.1865,120.1166 245.8065,120.4412 245.4649,120.806 245.1658,121.2063 244.913,121.6374 244.7095,122.0938 244.5579,122.57 244.46,123.0601 244.417,123.558 244.4296,124.0575 244.4974,124.5527 244.6198,125.0372 244.795,125.5052 245.0212,125.9509 245.2953,126.3687 245.6141,126.7536 245.9736,127.1007 246.3693,127.4059 246.7965,127.6653 247.2498,127.8757 247.7236,128.0345 248.2121,128.1399 248.7093,128.1904 249.209,128.1855 249.7051,128.1252 250.1914,128.0103 250.662,127.8421 251.1111,127.6228 251.5331,127.3551 251.9227,127.0422 252.2753,126.6881 252.5865,126.297 252.8523,125.8739 253.0696,125.4238 253.2357,124.9525 253.3485,124.4656 253.4066,123.9693 "/>
<polygon points="620.6149,123.6951 620.5872,123.1961 620.5043,122.7033 620.3672,122.2227 620.1777,121.7603 619.9382,121.3217 619.6514,120.9124 619.321,120.5375 618.9512,120.2014 618.5463,119.9085 618.1115,119.6622 617.6519,119.4657 617.1735,119.3214 616.682,119.231 616.1835,119.1956 615.6842,119.2158 615.1901,119.2912 614.7075,119.4209 614.2422,119.6033 613.8001,119.8361 613.3865,120.1166 613.0065,120.4412 612.6649,120.806 612.3658,121.2063 612.113,121.6374 611.9095,122.0938 611.7579,122.57 611.66,123.0601 611.617,123.558 611.6296,124.0575 611.6974,124.5527 611.8197,125.0372 611.9951,125.5052 612.2211,125.9509 612.4953,126.3687 612.814,126.7536 613.1735,127.1007 613.5693,127.4059 613.9965,127.6653 614.4497,127.8757 614.9235,128.0345 615.412,128.1399 615.9092,128.1904 616.4089,128.1855 616.905,128.1252 617.3914,128.0103 617.862,127.8421 618.3111,127.6228 618.733,127.3551 619.1227,127.0422 619.4753,126.6881 619.7864,126.297 620.0523,125.8739 620.2697,125.4238 620.4357,124.9525 620.5485,124.4656 620.6066,123.9693 "/>
</svg>
