<svg version="1.1">
<polygon points="17.61743,78.49804 17.20881,78.7861 16.8151,79.09422 16.43728,79.42164 16.0763,79.76753 15.73305,80.13103 15.4084,80.51122 15.10316,80.90717 14.81809,81.31789 14.55391,81.74233 14.31126,82.17945 14.09077,82.62815 13.89298,83.08731 13.71838,83.55578 13.56742,84.03239 13.44046,84.51595 13.33784,85.00525 13.25979,85.49907 13.20652,85.99617 13.17817,86.49532 13.17479,86.99525 13.19641,87.49473 13.24297,87.99251 13.31434,88.48733 13.41035,88.97797 13.53077,89.4632 13.67529,89.9418 13.84355,90.41259 14.03513,90.87437 14.24954,91.32601 14.48627,91.76637 14.7447,92.19434 15.0242,92.60886 15.32407,93.00889 15.64356,93.39343 15.98186,93.76153 16.33815,94.11226 16.71151,94.44474 17.10103,94.75815 17.50572,95.0517 17.92458,95.32465 18.35656,95.57633 18.80058,95.80611 19.25552,96.0134 19.72026,96.19771 20.19363,96.35855 20.67444,96.49554 21.1615,96.60831 21.65359,96.69661 22.14948,96.76021 22.64793,96.79893 23.14768,96.81271 23.6475,96.80148 24.14614,96.76528 24.64235,96.70422 25.13488,96.61842 25.62251,96.50813 26.10401,96.37359 26.57819,96.21516 27.04386,96.03323 27.49986,95.82825 27.94504,95.60073 28.37829,95.35126 28.79853,95.08044 29.20472,94.78895 29.59582,94.47752 29.97087,94.14695 30.32894,93.79803 30.66911,93.43166 30.99055,93.04875 31.29245,92.65025 31.48782,92.36844 31.77915,91.96219 32.0967,91.5761 32.43908,91.21183 32.80478,90.87099 33.19222,90.55508 33.59969,90.26547 34.02542,90.00343 34.46754,89.7701 34.92411,89.56652 35.39315,89.39356 35.87259,89.25198 36.36034,89.14241 36.85427,89.06532 37.35221,89.02106 37.852,89.0098 38.35143,89.03161 38.84833,89.08638 39.34052,89.17389 39.82585,89.29374 40.3022,89.4454 40.76748,89.62823 41.21965,89.84142 41.65674,90.08403 42.07684,90.355 42.4781,90.65315 42.85878,90.97718 43.21721,91.32566 43.55182,91.69707 43.86114,92.0898 44.14382,92.50211 44.39863,92.93221 44.62445,93.3782 44.82029,93.83815 44.9853,94.31004 45.11876,94.79181 45.22007,95.28134 45.2888,95.7765 45.32465,96.27513 45.32746,96.77503 45.29721,97.27402 45.23405,97.76993 45.18508,98.04203 45.09983,98.53466 45.03931,99.03093 45.00367,99.5296 44.993,100.0294 45.00732,100.5292 45.0466,101.0276 45.11074,101.5234 45.19958,102.0154 45.3129,102.5023 45.45042,102.983 45.61179,103.4562 45.7966,103.9207 46.0044,104.3754 46.23467,104.8192 46.48682,105.2509 46.76024,105.6694 47.05424,106.0738 47.36808,106.463 47.70097,106.836 48.0521,107.1919 48.42057,107.5298 48.80547,107.8488 49.20583,108.1483 49.62066,108.4273 50.04892,108.6853 50.48953,108.9215 50.94141,109.1354 51.4034,109.3265 51.87437,109.4942 52.35313,109.6382 52.8385,109.7581 53.32924,109.8536 53.82415,109.9244 54.32198,109.9704 54.82148,109.9915 55.32141,109.9875 55.82053,109.9586 56.31757,109.9048 56.8113,109.8262 57.30049,109.7231 57.78391,109.5956 58.26035,109.4441 58.72863,109.269 59.18756,109.0707 59.63602,108.8497 60.07287,108.6065 60.49702,108.3419 60.90742,108.0564 61.30303,107.7507 61.68287,107.4256 62.04599,107.082 62.39148,106.7206 62.71848,106.3424 63.02616,105.9484 63.31377,105.5394 63.58058,105.1166 63.82593,104.681 64.04919,104.2337 64.24983,103.7758 64.42732,103.3084 64.58124,102.8327 64.71119,102.35 64.81684,101.8613 64.89795,101.368 64.95429,100.8712 64.98574,100.3723 64.99221,99.87237 64.97369,99.37276 64.93022,98.87471 64.86191,98.37945 64.80079,98.04203 64.71953,97.54877 64.67105,97.05122 64.65558,96.55154 64.67316,96.05195 64.72374,95.5546 64.80708,95.06169 64.92283,94.57536 65.07047,94.09776 65.24935,93.63095 65.45871,93.17699 65.69762,92.73787 65.96503,92.31549 66.25978,91.91172 66.58058,91.52832 66.92603,91.16696 67.29459,90.82923 67.68468,90.5166 68.0946,90.23045 68.52252,89.97201 68.9666,89.74243 69.42487,89.54271 69.89536,89.37372 70.37598,89.2362 70.86464,89.13075 71.3592,89.05784 71.85751,89.01778 72.35736,89.01075 72.85659,89.03677 73.35301,89.09575 73.84444,89.18741 74.32874,89.31136 74.80379,89.46704 75.26751,89.65379 75.71786,89.8708 76.15289,90.11709 76.57069,90.3916 76.96942,90.69313 77.34734,91.02036 77.70281,91.37186 78.03427,91.74609 78.34026,92.14141 78.49804,92.36844 78.7861,92.77705 79.09422,93.17077 79.42164,93.54858 79.76752,93.90957 80.13103,94.25282 80.51122,94.57746 80.90717,94.88271 81.31789,95.16777 81.74233,95.43196 82.17945,95.6746 82.62815,95.8951 83.0873,96.09289 83.55578,96.26748 84.03239,96.41845 84.51595,96.5454 85.00525,96.64803 85.49907,96.72607 85.99617,96.77934 86.49531,96.8077 86.99525,96.81107 87.49473,96.78945 87.9925,96.7429 88.48733,96.67152 88.97797,96.57551 89.4632,96.45509 89.9418,96.31058 90.41259,96.14232 90.87437,95.95074 91.32601,95.73632 91.76637,95.4996 92.19434,95.24117 92.60886,94.96166 93.00889,94.6618 93.39343,94.34231 93.76153,94.004 94.11226,93.64772 94.44474,93.27435 94.75816,92.88483 95.0517,92.48014 95.32465,92.06128 95.57634,91.6293 95.80611,91.18529 96.01341,90.73034 96.19771,90.2656 96.35855,89.79224 96.49554,89.31142 96.60831,88.82436 96.69662,88.33227 96.76021,87.83639 96.79893,87.33794 96.81271,86.83818 96.80148,86.33836 96.76529,85.83972 96.70422,85.34352 96.61842,84.85098 96.50813,84.36336 96.37359,83.88185 96.21516,83.40767 96.03323,82.942 95.82825,82.48601 95.60073,82.04082 95.35126,81.60757 95.08044,81.18733 94.78895,80.78115 94.47752,80.39004 94.14695,80.01499 93.79803,79.65693 93.43166,79.31675 93.04875,78.99531 92.65025,78.69341 92.36844,78.49804 91.96219,78.20671 91.5761,77.88917 91.21183,77.54679 90.87099,77.18108 90.55508,76.79365 90.26547,76.38617 90.00343,75.96044 89.7701,75.51833 89.56652,75.06175 89.39356,74.59271 89.25198,74.11327 89.14241,73.62552 89.06532,73.13159 89.02106,72.63364 89.0098,72.13387 89.03161,71.63443 89.08638,71.13754 89.17389,70.64534 89.29374,70.16001 89.4454,69.68367 89.62823,69.21839 89.84142,68.76621 90.08403,68.32912 90.355,67.90903 90.65315,67.50776 90.97718,67.12708 91.32566,66.76865 91.69707,66.43404 92.0898,66.12473 92.50211,65.84204 92.93221,65.58723 93.3782,65.36141 93.83815,65.16557 94.31004,65.00056 94.79181,64.86711 95.28134,64.76579 95.7765,64.69706 96.27513,64.66122 96.77503,64.65841 97.27402,64.68865 97.76993,64.75182 98.04203,64.80079 98.53466,64.88604 99.03093,64.94656 99.5296,64.9822 100.0294,64.99287 100.5292,64.97855 101.0276,64.93927 101.5234,64.87513 102.0154,64.78629 102.5023,64.67297 102.983,64.53545 103.4562,64.37408 103.9207,64.18927 104.3754,63.98147 104.8192,63.7512 105.2509,63.49905 105.6694,63.22563 106.0738,62.93163 106.463,62.61779 106.836,62.2849 107.1919,61.93377 107.5298,61.5653 107.8488,61.1804 108.1483,60.78004 108.4273,60.36521 108.6853,59.93695 108.9215,59.49634 109.1354,59.04446 109.3265,58.58247 109.4942,58.1115 109.6382,57.63274 109.7581,57.14737 109.8536,56.65663 109.9244,56.16172 109.9704,55.66389 109.9915,55.16439 109.9875,54.66446 109.9586,54.16534 109.9048,53.6683 109.8262,53.17457 109.7231,52.68538 109.5956,52.20197 109.4441,51.72552 109.269,51.25724 109.0707,50.79831 108.8497,50.34985 108.6065,49.913 108.3419,49.48885 108.0564,49.07845 107.7507,48.68284 107.4256,48.303 107.082,47.93988 106.7206,47.59439 106.3424,47.2674 105.9484,46.95971 105.5394,46.6721 105.1166,46.40529 104.681,46.15994 104.2337,45.93667 103.7758,45.73604 103.3084,45.55855 102.8327,45.40463 102.35,45.27468 101.8613,45.16903 101.368,45.08792 100.8712,45.03158 100.3723,45.00013 99.87237,44.99366 99.37276,45.01218 98.87471,45.05565 98.37945,45.12396 98.04203,45.18508 97.54877,45.26634 97.05122,45.31482 96.55154,45.33029 96.05195,45.31271 95.5546,45.26213 95.06169,45.17879 94.57537,45.06304 94.09776,44.9154 93.63095,44.73651 93.17699,44.52716 92.73787,44.28825 92.3155,44.02083 91.91173,43.72608 91.52832,43.40528 91.16696,43.05984 90.82923,42.69127 90.5166,42.30118 90.23045,41.89127 89.97202,41.46335 89.74243,41.01927 89.54271,40.56099 89.37372,40.09052 89.2362,39.60989 89.13075,39.12123 89.05784,38.62667 89.01778,38.12837 89.01075,37.62851 89.03677,37.12928 89.09575,36.63286 89.18741,36.14142 89.31135,35.65712 89.46704,35.18208 89.65379,34.71836 89.87079,34.268 90.11709,33.83298 90.3916,33.41518 90.69313,33.01645 91.02036,32.63852 91.37186,32.28305 91.74609,31.9516 92.1414,31.64561 92.36844,31.48783 92.77706,31.19976 93.17077,30.89164 93.54858,30.56423 93.90957,30.21834 94.25282,29.85484 94.57746,29.47464 94.88271,29.07869 95.16777,28.66798 95.43196,28.24353 95.6746,27.80642 95.8951,27.35772 96.09289,26.89856 96.26749,26.43009 96.41845,25.95348 96.5454,25.46992 96.64803,24.98062 96.72607,24.4868 96.77934,23.9897 96.8077,23.49055 96.81107,22.99062 96.78945,22.49114 96.7429,21.99336 96.67152,21.49853 96.57551,21.00789 96.45509,20.52266 96.31058,20.04406 96.14232,19.57327 95.95074,19.11149 95.73632,18.65985 95.4996,18.2195 95.24117,17.79153 94.96166,17.37701 94.6618,16.97698 94.34231,16.59243 94.004,16.22433 93.64772,15.8736 93.27435,15.54112 92.88483,15.22771 92.48014,14.93416 92.06128,14.66121 91.6293,14.40953 91.18529,14.17975 90.73034,13.97246 90.2656,13.78815 89.79224,13.62731 89.31142,13.49033 88.82436,13.37755 88.33227,13.28925 87.83638,13.22566 87.33794,13.18693 86.83818,13.17316 86.33836,13.18439 85.83972,13.22058 85.34352,13.28165 84.85098,13.36744 84.36336,13.47774 83.88185,13.61227 83.40767,13.77071 82.942,13.95264 82.48601,14.15762 82.04082,14.38513 81.60757,14.63461 81.18733,14.90543 80.78115,15.19692 80.39004,15.50834 80.01499,15.83892 79.65693,16.18783 79.31675,16.5542 78.99531,16.93712 78.69341,17.33562 78.49804,17.61743 78.20671,18.02367 77.88916,18.40977 77.54679,18.77404 77.18108,19.11487 76.79365,19.43078 76.38617,19.72039 75.96044,19.98243 75.51833,20.21576 75.06175,20.41934 74.59271,20.5923 74.11327,20.73388 73.62552,20.84345 73.13159,20.92054 72.63364,20.96481 72.13387,20.97606 71.63443,20.95425 71.13754,20.89948 70.64534,20.81198 70.16001,20.69213 69.68366,20.54046 69.21839,20.35763 68.76621,20.14444 68.32912,19.90183 67.90903,19.63086 67.50776,19.33271 67.12708,19.00868 66.76865,18.6602 66.43404,18.28879 66.12473,17.89607 65.84204,17.48376 65.58723,17.05366 65.36141,16.60766 65.16557,16.14771 65.00056,15.67582 64.8671,15.19405 64.76579,14.70452 64.69706,14.20936 64.66121,13.71074 64.6584,13.21083 64.68865,12.71184 64.75182,12.21594 64.80079,11.94384 64.88604,11.45121 64.94656,10.95494 64.98219,10.45626 64.99287,9.956428 64.97855,9.456685 64.93927,8.958282 64.87512,8.462466 64.78629,7.970476 64.67297,7.48354 64.53545,7.002876 64.37408,6.529686 64.18927,6.065153 63.98147,5.610436 63.7512,5.166674 63.49904,4.734975 63.22562,4.316418 62.93163,3.912049 62.61779,3.522879 62.28489,3.149881 61.93377,2.793987 61.5653,2.456087 61.1804,2.137025 60.78004,1.837598 60.36521,1.558556 59.93695,1.300595 59.49633,1.064361 59.04446,0.8504432 58.58247,0.6593769 58.1115,0.4916396 57.63273,0.3476506 57.14737,0.2277699 56.65662,0.1322968 56.16172,0.06147029 55.66389,0.01546719 55.16439,-0.005597445 54.66446,-0.001670945 54.16534,0.02723686 53.6683,0.08105371 53.17457,0.1596451 52.68538,0.2628145 52.20196,0.3903042 51.72552,0.5417954 51.25724,0.7169095 50.79831,0.9152089 50.34985,1.136198 49.913,1.379324 49.48885,1.64398 49.07845,1.929503 48.68284,2.235181 48.303,2.56025 47.93988,2.903896 47.59439,3.265261 47.2674,3.643442 46.95971,4.037493 46.6721,4.44643 46.40529,4.869229 46.15994,5.304836 45.93668,5.752161 45.73604,6.210084 45.55855,6.677464 45.40463,7.15313 45.27468,7.635894 45.16903,8.12455 45.08792,8.617875 45.03158,9.114638 45.00013,9.613596 44.99366,10.1135 45.01218,10.61311 45.05565,11.11116 45.12396,11.60642 45.18508,11.94384 45.26634,12.4371 45.31482,12.93465 45.33029,13.43432 45.3127,13.93392 45.26213,14.43126 45.17879,14.92417 45.06304,15.4105 44.9154,15.88811 44.73651,16.35491 44.52715,16.80887 44.28825,17.248 44.02083,17.67037 43.72608,18.07414 43.40528,18.45754 43.05984,18.8189 42.69127,19.15663 42.30117,19.46926 41.89127,19.75542 41.46334,20.01385 41.01927,20.24343 40.56099,20.44316 40.09051,20.61215 39.60989,20.74966 39.12122,20.85511 38.62666,20.92802 38.12836,20.96808 37.6285,20.97511 37.12927,20.94909 36.63285,20.89012 36.14141,20.79846 35.65712,20.67451 35.18207,20.51882 34.71835,20.33207 34.268,20.11507 33.83297,19.86877 33.41518,19.59426 33.01645,19.29273 32.63852,18.9655 32.28305,18.614 31.95159,18.23977 31.6456,17.84445 31.48782,17.61743 31.19976,17.20881 30.89164,16.8151 30.56422,16.43728 30.21834,16.0763 29.85484,15.73305 29.47464,15.4084 29.07869,15.10316 28.66798,14.81809 28.24353,14.55391 27.80641,14.31126 27.35772,14.09077 26.89856,13.89298 26.43009,13.71838 25.95348,13.56742 25.46992,13.44046 24.98062,13.33784 24.4868,13.25979 23.98969,13.20652 23.49055,13.17817 22.99062,13.17479 22.49113,13.19641 21.99336,13.24297 21.49853,13.31434 21.00789,13.41036 20.52266,13.53077 20.04406,13.67529 19.57327,13.84355 19.11149,14.03513 18.65985,14.24954 18.2195,14.48627 17.79153,14.7447 17.37701,15.0242 16.97698,15.32407 16.59243,15.64356 16.22433,15.98186 15.87361,16.33815 15.54112,16.71151 15.22771,17.10103 14.93417,17.50572 14.66121,17.92458 14.40953,18.35656 14.17975,18.80058 13.97246,19.25552 13.78816,19.72026 13.62731,20.19363 13.49033,20.67444 13.37755,21.1615 13.28925,21.65359 13.22566,22.14948 13.18693,22.64793 13.17316,23.14768 13.18439,23.6475 13.22058,24.14614 13.28165,24.64235 13.36744,25.13488 13.47774,25.62251 13.61228,26.10401 13.77071,26.57819 13.95264,27.04386 14.15762,27.49986 14.38513,27.94504 14.63461,28.37829 14.90543,28.79853 15.19692,29.20472 15.50834,29.59582 15.83892,29.97087 16.18783,30.32894 16.5542,30.66911 16.93712,30.99055 17.33562,31.29245 17.61743,31.48782 18.02367,31.77915 18.40977,32.0967 18.77404,32.43908 19.11487,32.80478 19.43078,33.19222 19.72039,33.59969 19.98243,34.02542 20.21576,34.46754 20.41934,34.92411 20.5923,35.39315 20.73388,35.87259 20.84345,36.36034 20.92054,36.85427 20.96481,37.35222 20.97606,37.852 20.95425,38.35143 20.89948,38.84833 20.81198,39.34052 20.69213,39.82585 20.54046,40.3022 20.35763,40.76748 20.14444,41.21965 19.90183,41.65674 19.63086,42.07684 19.33271,42.4781 19.00868,42.85878 18.6602,43.21721 18.28879,43.55182 17.89607,43.86114 17.48376,44.14382 17.05366,44.39863 16.60766,44.62445 16.14771,44.82029 15.67582,44.9853 15.19406,45.11876 14.70452,45.22007 14.20936,45.2888 13.71074,45.32465 13.21084,45.32746 12.71184,45.29721 12.21594,45.23405 11.94384,45.18508 11.45121,45.09983 10.95494,45.03931 10.45626,45.00367 9.956428,44.993 9.456685,45.00732 8.958282,45.0466 8.462466,45.11074 7.970476,45.19958 7.48354,45.31291 7.002876,45.45042 6.529686,45.61179 6.065153,45.7966 5.610436,46.0044 5.166674,46.23467 4.734975,46.48683 4.316418,46.76025 3.912049,47.05424 3.522879,47.36808 3.149881,47.70098 2.793987,48.0521 2.456087,48.42057 2.137025,48.80547 1.837598,49.20583 1.558556,49.62066 1.300595,50.04892 1.064361,50.48954 0.8504432,50.94141 0.6593769,51.4034 0.4916396,51.87437 0.3476506,52.35314 0.2277699,52.8385 0.1322968,53.32925 0.06147029,53.82415 0.01546719,54.32198 -0.005597445,54.82148 -0.001670945,55.32141 0.02723686,55.82053 0.08105371,56.31757 0.1596451,56.8113 0.2628145,57.30049 0.3903042,57.78391 0.5417954,58.26035 0.7169095,58.72863 0.9152089,59.18756 1.136198,59.63602 1.379324,60.07287 1.64398,60.49702 1.929503,60.90742 2.235181,61.30303 2.56025,61.68287 2.903896,62.04599 3.265261,62.39148 3.643442,62.71848 4.037493,63.02616 4.44643,63.31377 4.869229,63.58058 5.304836,63.82593 5.752161,64.04919 6.210084,64.24982 6.677464,64.42732 7.15313,64.58124 7.635894,64.71118 8.12455,64.81684 8.617875,64.89795 9.114638,64.95429 9.613596,64.98574 10.1135,64.99221 10.61311,64.97369 11.11116,64.93021 11.60642,64.86191 11.94384,64.80079 12.4371,64.71953 12.93465,64.67106 13.43432,64.65558 13.93392,64.67316 14.43126,64.72374 14.92417,64.80708 15.4105,64.92283 15.88811,65.07047 16.35491,65.24936 16.80887,65.45872 17.248,65.69762 17.67037,65.96503 18.07414,66.25979 18.45754,66.58059 18.8189,66.92603 19.15663,67.2946 19.46926,67.68469 19.75542,68.0946 20.01385,68.52253 20.24343,68.9666 20.44315,69.42488 20.61214,69.89536 20.74966,70.37598 20.85511,70.86464 20.92802,71.35921 20.96808,71.85751 20.97511,72.35737 20.94909,72.8566 20.89011,73.35301 20.79845,73.84445 20.67451,74.32875 20.51882,74.80379 20.33206,75.26751 20.11506,75.71786 19.86877,76.15289 19.59426,76.57069 19.29272,76.96942 18.96549,77.34734 18.61399,77.70281 18.23977,78.03427 17.84445,78.34026 "/>
<polygon points="64.99294,54.99293 64.98044,54.49314 64.94298,53.9946 64.88065,53.49855 64.7936,53.00624 64.68206,52.51889 64.5463,52.03773 64.38667,51.56395 64.20354,51.09875 63.99741,50.64328 63.76876,50.19868 63.51818,49.76606 63.2463,49.34651 62.95378,48.94107 62.64136,48.55075 62.30983,48.17654 61.96001,47.81937 61.59277,47.48013 61.20904,47.15966 60.80977,46.85878 60.39596,46.57822 59.96865,46.3187 59.5289,46.08086 59.07782,45.86529 58.61652,45.67254 58.14617,45.50309 57.66793,45.35735 57.18301,45.2357 56.69262,45.13844 56.19797,45.0658 55.70032,45.01798 55.20089,44.99509 54.70095,44.99719 54.20174,45.02428 53.7045,45.07628 53.21048,45.15307 52.72092,45.25445 52.23704,45.38018 51.76004,45.52993 51.29113,45.70333 50.83147,45.89995 50.38221,46.1193 49.94448,46.36084 49.51936,46.62394 49.10793,46.90796 48.7112,47.2122 48.33017,47.53588 47.96581,47.8782 47.619,48.2383 47.29062,48.61528 46.98149,49.00821 46.6924,49.4161 46.42405,49.83792 46.17711,50.27263 45.95221,50.71914 45.74991,51.17632 45.57071,51.64305 45.41506,52.11816 45.28335,52.60044 45.17591,53.08871 45.09301,53.58174 45.03485,54.07829 45.00158,54.57713 44.99329,55.07701 45.00999,55.57668 45.05164,56.07489 45.11814,56.5704 45.20932,57.06196 45.32495,57.54835 45.46476,58.02836 45.62837,58.50077 45.81539,58.96442 46.02536,59.41815 46.25773,59.86081 46.51194,60.29131 46.78735,60.70856 47.08327,61.11152 47.39895,61.4992 47.73362,61.87061 48.08643,62.22483 48.45651,62.56097 48.84293,62.8782 49.24471,63.17572 49.66086,63.45278 50.09034,63.7087 50.53208,63.94284 50.98496,64.1546 51.44786,64.34347 51.91963,64.50896 52.39907,64.65067 52.885,64.76824 53.3762,64.86137 53.87143,64.92985 54.36948,64.97348 54.86908,64.99216 55.36898,64.98586 55.86795,64.95457 56.36473,64.89839 56.85809,64.81745 57.34678,64.71196 57.82959,64.58217 58.3053,64.42841 58.77274,64.25107 59.23073,64.05058 59.67813,63.82747 60.11382,63.58226 60.53671,63.31559 60.94574,63.02811 61.33989,62.72056 61.71818,62.39368 62.07966,62.04831 62.42342,61.68531 62.74862,61.30557 63.05443,60.91006 63.34008,60.49976 63.60488,60.07569 63.84815,59.63892 64.06928,59.19054 64.26774,58.73166 64.443,58.26344 64.59465,57.78705 64.7223,57.30367 64.82563,56.81451 64.90438,56.32081 64.95836,55.82378 64.98743,55.32468 "/>
<polygon points="12.99293,54.99293 12.95136,54.49524 12.8278,54.01135 12.62568,53.55465 12.35059,53.13782 12.01017,52.7724 11.61384,52.46852 11.17259,52.2346 10.69864,52.07712 10.20514,52.00045 9.705761,52.00671 9.214337,52.09573 8.744491,52.26504 8.309243,52.50995 7.920657,52.82367 7.5895,53.19751 7.324952,53.62111 7.134342,54.08273 7.022954,54.56957 6.993875,55.06815 7.047909,55.56464 7.183561,56.04528 7.39707,56.49676 7.682519,56.90657 8.031999,57.26334 8.435822,57.55719 8.882798,57.77997 9.360539,57.92552 9.855807,57.9898 10.35488,57.97102 10.84391,57.86971 11.30937,57.68867 11.73834,57.43292 12.11894,57.10956 12.44062,56.72753 12.69446,56.29744 12.87344,55.83119 12.97259,55.34171 "/>
<polygon points="26.17313,23.17313 26.13156,22.67544 26.008,22.19154 25.80587,21.73485 25.53079,21.31802 25.19036,20.9526 24.79403,20.64871 24.35278,20.41479 23.87884,20.25731 23.38534,20.18064 22.88596,20.1869 22.39453,20.27592 21.92469,20.44523 21.48944,20.69015 21.10085,21.00387 20.7697,21.37771 20.50515,21.80131 20.31454,22.26292 20.20315,22.74977 20.17407,23.24834 20.2281,23.74483 20.36376,24.22548 20.57726,24.67696 20.86271,25.08676 21.21219,25.44353 21.61602,25.73738 22.06299,25.96017 22.54074,26.10571 23.036,26.16999 23.53507,26.15121 24.02411,26.0499 24.48956,25.86886 24.91853,25.61312 25.29913,25.28975 25.62081,24.90773 25.87466,24.47763 26.05363,24.01138 26.15278,23.5219 "/>
<polygon points="102.9929,54.99293 102.9514,54.49524 102.8278,54.01135 102.6257,53.55465 102.3506,53.13782 102.0102,52.7724 101.6138,52.46852 101.1726,52.2346 100.6986,52.07712 100.2051,52.00045 99.70576,52.00671 99.21434,52.09573 98.74449,52.26504 98.30925,52.50995 97.92066,52.82367 97.58951,53.19751 97.32496,53.62111 97.13435,54.08273 97.02296,54.56957 96.99388,55.06815 97.04791,55.56464 97.18356,56.04528 97.39707,56.49676 97.68253,56.90657 98.03201,57.26334 98.43583,57.55719 98.8828,57.77997 99.36054,57.92552 99.85581,57.9898 100.3549,57.97102 100.8439,57.86971 101.3094,57.68867 101.7383,57.43292 102.1189,57.10956 102.4406,56.72753 102.6945,56.29744 102.8734,55.83119 102.9726,55.34171 "/>
<polygon points="26.17313,86.81274 26.13156,86.31505 26.008,85.83115 25.80587,85.37446 25.53079,84.95763 25.19036,84.59221 24.79403,84.28832 24.35278,84.05441 23.87884,83.89692 23.38534,83.82025 22.88596,83.82652 22.39453,83.91553 21.92469,84.08485 21.48944,84.32976 21.10085,84.64348 20.7697,85.01732 20.50515,85.44092 20.31454,85.90253 20.20315,86.38937 20.17407,86.88795 20.2281,87.38444 20.36376,87.86508 20.57726,88.31657 20.86271,88.72637 21.21219,89.08315 21.61602,89.37699 22.06299,89.59978 22.54074,89.74532 23.036,89.8096 23.53507,89.79082 24.02411,89.68951 24.48956,89.50848 24.91853,89.25273 25.29913,88.92936 25.62081,88.54734 25.87466,88.11724 26.05363,87.65099 26.15278,87.16151 "/>
<polygon points="57.99293,9.992931 57.95136,9.495243 57.8278,9.011347 57.62568,8.554655 57.35059,8.137822 57.01017,7.772401 56.61384,7.468518 56.17259,7.234596 55.69864,7.077117 55.20514,7.000446 54.70576,7.006708 54.21434,7.095727 53.74449,7.265039 53.30924,7.50995 52.92066,7.823674 52.5895,8.197515 52.32495,8.621114 52.13434,9.08273 52.02295,9.569571 51.99387,10.06815 52.04791,10.56463 52.18356,11.04528 52.39707,11.49676 52.68252,11.90657 53.032,12.26334 53.43582,12.55719 53.8828,12.77997 54.36054,12.92552 54.85581,12.9898 55.35487,12.97102 55.84391,12.86971 56.30936,12.68867 56.73833,12.43292 57.11893,12.10956 57.44062,11.72753 57.69446,11.29744 57.87344,10.83119 57.97259,10.34171 "/>
<polygon points="89.81274,23.17313 89.77116,22.67544 89.64761,22.19154 89.44549,21.73485 89.17039,21.31802 88.82997,20.9526 88.43365,20.64871 87.99239,20.41479 87.51845,20.25731 87.02495,20.18064 86.52557,20.1869 86.03414,20.27592 85.56429,20.44523 85.12905,20.69015 84.74046,21.00387 84.40931,21.37771 84.14476,21.80131 83.95415,22.26292 83.84276,22.74977 83.81368,23.24834 83.86771,23.74483 84.00336,24.22548 84.21687,24.67696 84.50233,25.08676 84.85181,25.44353 85.25563,25.73738 85.70261,25.96017 86.18034,26.10571 86.67561,26.16999 87.17468,26.15121 87.66372,26.0499 88.12917,25.86886 88.55814,25.61312 88.93874,25.28975 89.26042,24.90773 89.51427,24.47763 89.69324,24.01138 89.7924,23.5219 "/>
<polygon points="57.99293,99.99294 57.95136,99.49525 57.8278,99.01135 57.62568,98.55466 57.35059,98.13783 57.01017,97.77241 56.61384,97.46852 56.17259,97.2346 55.69864,97.07712 55.20514,97.00045 54.70576,97.00671 54.21434,97.09573 53.74449,97.26505 53.30924,97.50996 52.92066,97.82368 52.5895,98.19752 52.32495,98.62112 52.13434,99.08273 52.02295,99.56957 51.99387,100.0681 52.04791,100.5646 52.18356,101.0453 52.39707,101.4968 52.68252,101.9066 53.032,102.2633 53.43582,102.5572 53.8828,102.78 54.36054,102.9255 54.85581,102.9898 55.35487,102.971 55.84391,102.8697 56.30936,102.6887 56.73833,102.4329 57.11893,102.1096 57.44062,101.7275 57.69446,101.2974 57.87344,100.8312 57.97259,100.3417 "/>
<polygon points="89.81274,86.81274 89.77116,86.31505 89.64761,85.83115 89.44549,85.37446 89.17039,84.95763 88.82997,84.59221 88.43365,84.28832 87.99239,84.05441 87.51845,83.89692 87.02495,83.82025 86.52557,83.82652 86.03414,83.91553 85.56429,84.08485 85.12905,84.32976 84.74046,84.64348 84.40931,85.01732 84.14476,85.44092 83.95415,85.90253 83.84276,86.38937 83.81368,86.88795 83.86771,87.38444 84.00336,87.86508 84.21687,88.31657 84.50233,88.72637 84.85181,89.08315 85.25563,89.37699 85.70261,89.59978 86.18034,89.74532 86.67561,89.8096 87.17468,89.79082 87.66372,89.68951 88.12917,89.50848 88.55814,89.25273 88.93874,88.92936 89.26042,88.54734 89.51427,88.11724 89.69324,87.65099 89.7924,87.16151 "/>
</svg>
