	<svg version="1.1" id="svg2" xmlns="http://www.w3.org/2000/svg" xmlns:xlink="http://www.w3.org/1999/xlink"   xml:space="preserve">
<polygon fill="none" stroke="#010101" stroke-miterlimit="10" points="74.99721,29.99721 77.39433,29.38512 79.20456,27.69872 79.98468,25.35089 79.54369,22.91647 77.98957,20.99149 75.7028,20.04724 73.24329,20.31492 71.2132,21.72899 70.10956,23.94323 69.99721,24.99721 69.38512,27.39433 67.69872,29.20456 65.35089,29.98468 62.91647,29.5437 60.99149,27.98957 60.04725,25.70281 60.31492,23.24329 61.72899,21.2132 63.94323,20.10956 64.99721,19.99721 67.39433,19.38512 69.20456,17.69872 69.98468,15.35089 69.54369,12.91647 67.98957,10.99149 65.7028,10.04724 63.24329,10.31492 61.2132,11.72899 60.10956,13.94323 59.99721,14.99721 59.38512,17.39433 57.69872,19.20456 55.35089,19.98468 52.91647,19.5437 50.99149,17.98957 50.04725,15.70281 50.31492,13.24329 51.72899,11.2132 53.94323,10.10956 54.99721,9.997208 57.39434,9.38512 59.20456,7.698719 59.98468,5.350894 59.54369,2.916474 57.98957,0.99149 55.70281,0.04724525 53.24329,0.314924 51.2132,1.728989 50.10956,3.943228 49.99721,4.997208 49.38512,7.394335 47.69872,9.204562 45.35089,9.984682 42.91647,9.543694 40.99149,7.989569 40.04725,5.702808 39.99721,4.997208 39.38512,2.60008 37.69872,0.7898527 35.35089,0.00973273 32.91647,0.4507204 30.99149,2.004846 30.04725,4.291607 30.31492,6.751123 31.72899,8.781219 33.94323,9.884858 34.99721,9.997208 37.39434,10.60929 39.20456,12.2957 39.98468,14.64352 39.54369,17.07794 37.98957,19.00293 35.70281,19.94717 33.24329,19.67949 31.2132,18.26543 30.10956,16.05119 29.99721,14.99721 29.38512,12.60008 27.69872,10.78985 25.35089,10.00973 22.91647,10.45072 20.99149,12.00485 20.04725,14.29161 20.31492,16.75112 21.72899,18.78122 23.94323,19.88486 24.99721,19.99721 27.39433,20.60929 29.20456,22.2957 29.98468,24.64352 29.5437,27.07794 27.98957,29.00293 25.70281,29.94717 23.24329,29.67949 21.2132,28.26543 20.10956,26.05119 19.99721,24.99721 19.38512,22.60008 17.69872,20.78985 15.35089,20.00973 12.91647,20.45072 10.99149,22.00485 10.04725,24.29161 10.31492,26.75112 11.72899,28.78122 13.94323,29.88486 14.99721,29.99721 17.39433,30.60929 19.20456,32.2957 19.98468,34.64352 19.5437,37.07794 17.98957,39.00293 15.70281,39.94717 13.24329,39.67949 11.2132,38.26543 10.10956,36.05119 9.997208,34.99721 9.38512,32.60008 7.698719,30.78985 5.350894,30.00973 2.916474,30.45072 0.99149,32.00484 0.04724525,34.29161 0.314924,36.75112 1.728989,38.78122 3.943228,39.88486 4.997208,39.99721 7.394335,40.60929 9.204562,42.2957 9.984682,44.64352 9.997208,44.99721 10.60929,47.39434 12.2957,49.20456 14.64352,49.98468 17.07794,49.54369 19.00293,47.98957 19.94717,45.70281 19.99721,44.99721 20.60929,42.60008 22.2957,40.78985 24.64352,40.00973 27.07794,40.45072 29.00293,42.00485 29.94717,44.29161 29.99721,44.99721 30.60929,47.39434 32.2957,49.20456 34.64352,49.98468 37.07794,49.54369 39.00293,47.98957 39.94717,45.70281 39.99721,44.99721 39.38512,42.60008 37.69872,40.78985 35.35089,40.00973 34.99721,39.99721 32.60008,39.38512 30.78985,37.69872 30.00973,35.35089 30.45072,32.91647 32.00484,30.99149 34.29161,30.04725 36.75112,30.31492 38.78122,31.72899 39.88486,33.94323 39.99721,34.99721 40.60929,37.39434 42.2957,39.20456 44.64352,39.98468 47.07794,39.54369 49.00293,37.98957 49.94717,35.70281 49.67949,33.24329 48.26543,31.2132 46.05119,30.10956 44.99721,29.99721 42.60008,29.38512 40.78985,27.69872 40.00973,25.35089 40.45072,22.91647 42.00484,20.99149 44.29161,20.04725 46.75112,20.31492 48.78122,21.72899 49.88486,23.94323 49.99721,24.99721 50.60929,27.39433 52.2957,29.20456 54.64352,29.98468 54.99721,29.99721 57.39434,30.60929 59.20456,32.2957 59.98468,34.64352 59.54369,37.07794 57.98957,39.00293 55.70281,39.94717 54.99721,39.99721 52.60008,40.60929 50.78985,42.2957 50.00973,44.64352 50.45072,47.07794 52.00484,49.00293 54.29161,49.94717 56.75112,49.67949 58.78122,48.26543 59.88486,46.05119 59.99721,44.99721 60.60929,42.60008 62.2957,40.78985 64.64352,40.00973 67.07794,40.45072 69.00292,42.00485 69.94717,44.29161 69.99721,44.99721 69.99721,59.99721 69.99721,59.99721 69.38512,62.39434 67.69872,64.20456 65.35089,64.98468 62.91647,64.54369 60.99149,62.98957 60.04725,60.70281 59.99721,59.99721 59.38512,57.60008 57.69872,55.78985 55.35089,55.00973 52.91647,55.45072 50.99149,57.00484 50.04725,59.29161 50.31492,61.75112 51.72899,63.78122 53.94323,64.88486 54.99721,64.99721 57.39434,65.60929 59.20456,67.29569 59.98468,69.64352 59.54369,72.07794 57.98957,74.00292 55.70281,74.94717 54.99721,74.99721 52.60008,75.6093 50.78985,77.2957 50.00973,79.64352 49.99721,79.99721 49.38512,82.39433 47.69872,84.20457 45.35089,84.98469 42.91648,84.5437 40.99149,82.98958 40.04724,80.70282 40.31491,78.2433 41.72897,76.2132 43.94321,75.10956 44.99721,74.99722 47.39434,74.38513 49.20456,72.69873 49.98468,70.3509 49.54369,67.91648 47.98957,65.9915 45.70281,65.04726 43.24329,65.31493 41.2132,66.729 40.10956,68.94323 39.99721,69.99721 39.38512,72.39433 37.69872,74.20457 35.35089,74.98469 32.91648,74.5437 30.99149,72.98958 30.04724,70.70282 30.31491,68.2433 31.72897,66.2132 33.94321,65.10956 34.99721,64.99721 37.39434,64.38512 39.20456,62.69872 39.98468,60.35089 39.99721,59.99721 39.38512,57.60008 37.69872,55.78985 35.35089,55.00973 32.91647,55.45072 30.99149,57.00485 30.04725,59.29161 29.99721,59.99721 29.38512,62.39434 27.69872,64.20456 25.35089,64.98468 22.91647,64.54369 20.99149,62.98957 20.04725,60.70281 19.99721,59.99721 19.38512,57.60008 17.69872,55.78985 15.35089,55.00973 12.91647,55.45072 10.99149,57.00485 10.04725,59.29161 9.997208,59.99721 9.38512,62.39434 7.69872,64.20456 5.350894,64.98468 4.997208,64.99721 2.60008,65.60929 0.789852,67.29569 0.00973097,69.64352 0.4507175,72.07794 2.004843,74.00292 4.291604,74.94717 6.751121,74.67949 8.781219,73.26543 9.884858,71.05119 9.997208,69.99721 10.6093,67.60008 12.2957,65.78986 14.64353,65.00974 17.07795,65.45074 19.00293,67.00487 19.94717,69.29163 19.67949,71.75114 18.26542,73.78123 16.05117,74.88486 14.99721,74.99721 12.60008,75.60929 10.78985,77.29569 10.00973,79.64352 10.45072,82.07794 12.00484,84.00292 14.2916,84.94717 16.75112,84.67949 18.78122,83.26543 19.88486,81.05119 19.99721,79.99721 20.6093,77.60008 22.2957,75.78986 24.64353,75.00974 27.07795,75.45074 29.00293,77.00487 29.94717,79.29163 29.67948,81.75114 28.26541,83.78123 26.05117,84.88486 24.99721,84.99721 22.60008,85.60929 20.78985,87.29569 20.00973,89.64352 20.45071,92.07793 22.00484,94.00292 24.2916,94.94717 26.75111,94.6795 28.78121,93.26543 29.88486,91.0512 29.99721,89.99721 30.6093,87.60008 32.2957,85.78986 34.64353,85.00974 37.07795,85.45073 39.00293,87.00486 39.94717,89.29162 39.67949,91.75114 38.26542,93.78123 36.05118,94.88486 34.99721,94.99721 32.60008,95.60929 30.78985,97.29568 30.00973,99.64351 30.45071,102.0779 32.00483,104.0029 34.29159,104.9472 36.7511,104.6795 38.7812,103.2654 39.88485,101.0512 39.99721,99.99721 40.60929,97.60008 42.2957,95.78986 44.64352,95.00974 47.07794,95.45072 49.00293,97.00484 49.94717,99.29161 49.99721,99.99721 50.6093,102.3943 52.2957,104.2046 54.64352,104.9847 57.07795,104.5437 59.00293,102.9896 59.94717,100.7028 59.67949,98.24329 58.26543,96.2132 56.05119,95.10956 54.99721,94.99721 52.60008,94.38512 50.78986,92.69872 50.00974,90.35089 50.45073,87.91647 52.00487,85.99149 54.29163,85.04726 56.75114,85.31495 58.78123,86.72903 59.88486,88.94327 59.99721,89.99721 60.60929,92.39433 62.2957,94.20456 64.64352,94.98468 67.07794,94.54369 69.00292,92.98957 69.94717,90.7028 69.67949,88.24329 68.26543,86.2132 66.05119,85.10956 64.99721,84.99721 62.60008,84.38512 60.78986,82.69872 60.00974,80.35089 60.45073,77.91647 62.00487,75.99149 64.29163,75.04726 66.75114,75.31495 68.78123,76.72903 69.88486,78.94327 69.99721,79.99721 70.60929,82.39433 72.29569,84.20456 74.64352,84.98468 77.07794,84.54369 79.00292,82.98957 79.94717,80.7028 79.67949,78.24329 78.26543,76.2132 76.05119,75.10956 74.99721,74.99721 72.60008,74.38512 70.78986,72.69871 70.00975,70.35088 70.45074,67.91647 72.00488,65.99149 74.29165,65.04726 76.75116,65.31495 78.78125,66.72903 79.88486,68.94328 79.99721,69.99721 80.60929,72.39433 82.29569,74.20456 84.64352,74.98468 87.07794,74.54369 89.00292,72.98957 89.94717,70.7028 89.67949,68.24329 88.26543,66.2132 86.05119,65.10956 84.99721,64.99721 82.60008,64.38512 80.78986,62.69872 80.00974,60.35089 79.99721,59.99721 79.99721,44.99721 79.99721,44.99721 80.6093,42.60008 82.29569,40.78985 84.64352,40.00973 84.99721,39.9972 87.39433,39.38512 89.20456,37.69872 89.98468,35.35089 89.54369,32.91647 87.98957,30.99149 85.7028,30.04724 83.24329,30.31492 81.2132,31.72899 80.10956,33.94323 79.99721,34.99721 79.38512,37.39434 77.69872,39.20456 75.35089,39.98468 72.91647,39.54368 70.99149,37.98955 70.04726,35.70279 70.31495,33.24327 71.72903,31.21318 73.94327,30.10956 "/>
</svg>
