	<svg version="1.1" id="svg2" xmlns="http://www.w3.org/2000/svg" xmlns:xlink="http://www.w3.org/1999/xlink"   xml:space="preserve">
<polygon fill="none" stroke="#010101" stroke-miterlimit="10" points="120,1.5 118.5,6.110668E-13 111.2426,6.110668E-13 111.2426,2.116574E-06 109.1213,0.8786796 105.8787,4.12132 105.8787,4.12132 103.7574,5 86.24264,5 86.24264,5 84.12132,4.12132 80.87868,0.8786796 80.87868,0.8786783 78.75736,5.897505E-13 41.24264,0 41.24264,-1.230007E-06 39.12132,0.8786796 35.87868,4.12132 35.87868,4.12132 33.75736,5 16.24264,5 16.24264,5 14.12132,4.12132 10.87868,0.8786796 10.87868,0.8786798 8.75736,6.110668E-13 1.5,6.110668E-13 1.5,0 0,1.5 0,28.5 1.311302E-06,28.5 1.5,30 8.75736,30 8.75736,30 10.87868,29.12132 14.12132,25.87868 14.12132,25.87868 16.24264,25 33.75736,25 33.75736,25 35.87868,25.87868 39.12132,29.12132 39.12132,29.12132 41.24264,30 78.75736,30 78.75736,30 80.87868,29.12132 84.12132,25.87868 84.12132,25.87868 86.24264,25 103.7574,25 103.7574,25 105.8787,25.87868 109.1213,29.12132 109.1213,29.12132 111.2426,30 118.5,30 118.5,29.99999 120,28.5 120,1.5 "/>
</svg>
