	<svg version="1.1" id="svg2" xmlns="http://www.w3.org/2000/svg" xmlns:xlink="http://www.w3.org/1999/xlink"   xml:space="preserve">
<polygon fill="none" stroke="#010101" stroke-miterlimit="10" points="11.49721,0 11.49721,5.5 11.49721,5.5 12.49721,5.5 12.49721,5.5 13.09568,7.301144 12.49721,7.5 4.997208,7.5 4.997208,7.5 2.60008,8.112087 0.7898528,9.798489 0.009732747,12.14631 0.4507203,14.58073 2.004847,16.50572 4.291607,17.44996 4.997208,17.5 12.49721,17.5 12.49721,17.5 13.09568,19.30114 12.49721,19.5 11.49721,19.5 11.49721,19.5 11.49721,25 11.49721,25 111.4972,25 111.4972,25 111.4972,19.5 111.4972,19.5 110.4972,19.5 110.4972,19.5 109.8987,17.69886 110.4972,17.5 117.9972,17.5 117.9972,17.5 120.3943,16.88791 122.2046,15.20151 122.9847,12.85369 122.5437,10.41927 120.9896,8.494282 118.7028,7.550037 117.9972,7.5 110.4972,7.5 110.4972,7.5 109.8987,5.698856 110.4972,5.5 111.4972,5.5 111.4972,5.5 111.4972,0 111.4972,0 11.49721,0 "/>
</svg>
