	<svg version="1.1" id="svg2" xmlns="http://www.w3.org/2000/svg" xmlns:xlink="http://www.w3.org/1999/xlink"   xml:space="preserve">
<polygon fill="none" stroke="#010101" stroke-miterlimit="10" points="660.5964,170.0162 662.0106,169.4304 680.839,150.6019 680.839,150.6019 681.4248,149.1877 681.4248,130.7819 681.4248,130.7819 681.3671,130.3051 649.7528,1.523183 649.7528,1.523183 647.9705,0.006404231 647.8105,6.878433E-16 641.4248,6.878433E-16 641.4248,6.878433E-16 641.4248,113.3495 641.4248,113.3495 40,113.3495 40,113.3495 40,6.878433E-16 40,6.878433E-16 33.61427,6.878433E-16 33.61427,1.507168E-06 31.7163,1.369356 31.67194,1.523183 0.05766996,130.3051 0.05767091,130.3051 5.68E-14,130.7819 5.68E-14,149.1877 2.709279E-06,149.1877 0.5857865,150.6019 19.41421,169.4304 19.41421,169.4304 20.82843,170.0161 44.71239,170.0161 44.71239,170.0161 660.5964,170.0161 "/>
</svg>
