	<svg version="1.1" id="svg2" xmlns="http://www.w3.org/2000/svg" xmlns:xlink="http://www.w3.org/1999/xlink"   xml:space="preserve">
<polygon fill="none" stroke="#010101" stroke-miterlimit="10" points="113.7513,75.08606 118.0003,71.73144 118.0003,71.73144 120.3058,70.87468 120.479,70.87093 150.7041,70.87093 150.7041,70.87093 150.4959,68.37974 150.2048,65.89686 149.8311,63.42506 149.3752,60.9671 148.8377,58.52569 148.2191,56.10355 147.6847,54.24263 151.7419,48.23253 151.7419,48.23253 149.0631,41.76537 149.0631,41.76537 141.9444,40.38444 141.9444,40.38444 140.7251,38.20211 139.4337,36.06163 138.0716,33.96538 136.6405,31.91569 135.1418,29.91483 133.5773,27.96503 132.3215,26.49144 109.4585,49.35443 109.4585,49.35443 107.3307,50.61665 104.8582,50.70421 102.6464,49.59568 101.2368,47.56246 100.9746,45.10236 101.9239,42.81769 102.3874,42.28336 125.2504,19.42037 125.2504,19.42037 123.3417,17.80606 121.3801,16.25624 119.3681,14.77267 117.3077,13.35697 115.2013,12.01073 113.0511,10.73544 111.3574,9.797416 109.9765,2.678783 109.9765,2.678783 103.5093,0 103.5093,0 97.49922,4.057166 97.49922,4.057168 95.09386,3.376252 92.66714,2.775878 90.22176,2.256713 87.76043,1.819334 85.2859,1.464227 82.8009,1.191786 80.87093,1.037786 80.87093,31.26291 80.87093,31.26291 80.11478,33.60329 80.01043,33.74153 76.65581,37.99059 76.65581,37.99059 75.08606,37.99059 71.73144,33.74153 71.73144,33.74153 70.87468,31.43607 70.87093,31.26291 70.87093,1.037786 70.87093,1.03779 68.37974,1.245996 65.89686,1.537111 63.42506,1.910812 60.9671,2.366682 58.52569,2.904217 56.10355,3.522817 54.24263,4.057171 48.23253,6.354313E-06 48.23253,6.354313E-06 41.76537,2.678791 41.76537,2.678791 40.38444,9.797424 40.38444,9.797421 38.20211,11.01679 36.06163,12.30821 33.96538,13.67025 31.91569,15.1014 29.91483,16.60006 27.96503,18.16457 26.49144,19.42037 49.35443,42.28336 49.35443,42.28336 50.61664,44.4112 50.70419,46.88369 49.59565,49.09548 47.56243,50.50505 45.10233,50.76728 42.81767,49.81797 42.28336,49.35443 19.42037,26.49144 19.42037,26.49144 17.80606,28.40021 16.25624,30.36172 14.77267,32.37379 13.35697,34.43418 12.01073,36.54061 10.73544,38.69074 9.797416,40.38445 2.678783,41.76539 2.678783,41.76539 0,48.23255 0,48.23255 4.057166,54.24265 4.057168,54.24265 3.376252,56.64801 2.775878,59.07473 2.256713,61.52011 1.819333,63.98144 1.464226,66.45597 1.191785,68.94097 1.037786,70.87093 31.26291,70.87093 31.26291,70.87093 33.60329,71.62708 33.74153,71.73144 37.99059,75.08606 37.99059,75.08606 37.99059,76.65581 33.74153,80.01043 33.74153,80.01043 31.43607,80.86719 31.26291,80.87093 1.037786,80.87093 1.037789,80.87093 1.245995,83.36213 1.53711,85.84501 1.910811,88.3168 2.366681,90.77477 2.904216,93.21618 3.522817,95.63832 4.057171,97.49924 6.354313E-06,103.5093 6.354313E-06,103.5093 2.678791,109.9765 2.678791,109.9765 9.797424,111.3574 9.797422,111.3574 11.01679,113.5398 12.30821,115.6802 13.67025,117.7765 15.1014,119.8262 16.60006,121.827 18.16457,123.7768 19.42037,125.2504 42.28336,102.3874 42.28336,102.3874 44.4112,101.1252 46.88369,101.0377 49.09548,102.1462 50.50505,104.1794 50.76728,106.6395 49.81797,108.9242 49.35443,109.4585 26.49144,132.3215 26.49144,132.3215 28.40021,133.9358 30.36172,135.4856 32.37378,136.9692 34.43418,138.3849 36.54061,139.7311 38.69073,141.0064 40.38445,141.9445 41.76539,149.0631 41.76539,149.0631 48.23255,151.7419 48.23255,151.7419 54.24265,147.6847 54.24265,147.6847 56.64801,148.3656 59.07473,148.966 61.52011,149.4852 63.98144,149.9225 66.45597,150.2776 68.94097,150.5501 70.87093,150.7041 70.87093,120.479 70.87093,120.479 71.62708,118.1386 71.73144,118.0003 75.08606,113.7513 75.08606,113.7513 76.65581,113.7513 80.01043,118.0003 80.01043,118.0003 80.86719,120.3058 80.87093,120.479 80.87093,150.7041 80.87093,150.7041 83.36213,150.4959 85.84501,150.2048 88.3168,149.8311 90.77477,149.3752 93.21618,148.8377 95.63832,148.2191 97.49924,147.6847 103.5093,151.7419 103.5093,151.7419 109.9765,149.0631 109.9765,149.0631 111.3574,141.9444 111.3574,141.9444 113.5398,140.7251 115.6802,139.4337 117.7765,138.0716 119.8262,136.6405 121.827,135.1418 123.7768,133.5773 125.2504,132.3215 102.3874,109.4585 102.3874,109.4585 101.1252,107.3307 101.0377,104.8582 102.1462,102.6464 104.1794,101.2368 106.6395,100.9746 108.9242,101.9239 109.4585,102.3874 132.3215,125.2504 132.3215,125.2504 133.9358,123.3417 135.4856,121.3801 136.9692,119.3681 138.3849,117.3077 139.7311,115.2013 141.0064,113.0511 141.9445,111.3574 149.0631,109.9765 149.0631,109.9765 151.7419,103.5093 151.7419,103.5093 147.6847,97.49922 147.6847,97.49922 148.3656,95.09386 148.966,92.66714 149.4852,90.22176 149.9225,87.76043 150.2776,85.2859 150.5501,82.8009 150.7041,80.87093 120.479,80.87093 120.479,80.87093 118.1386,80.11478 118.0003,80.01043 113.7513,76.65581 113.7513,76.65581 "/>
</svg>
