	<svg version="1.1" id="svg2" xmlns="http://www.w3.org/2000/svg" xmlns:xlink="http://www.w3.org/1999/xlink"   xml:space="preserve">
<polygon fill="none" stroke="#010101" stroke-miterlimit="10" points="34.02875,79.73761 48.96682,64.65244 48.96682,64.65244 48.96682,58.02886 48.96682,58.02886 49.21961,55.54598 49.96758,53.16499 51.18006,50.9836 52.80728,49.09131 54.78247,47.56579 57.02457,46.46964 59.44158,45.84783 61.28682,45.70886 79.73761,45.70886 79.73761,45.70886 64.65244,30.77079 64.65244,30.77079 58.02886,30.77079 58.02886,30.77079 55.54598,30.51801 53.16499,29.77003 50.9836,28.55755 49.09131,26.93033 47.56579,24.95514 46.46964,22.71304 45.84783,20.29603 45.70886,18.45079 45.70886,0 45.70886,0 30.77079,15.08518 30.77079,15.08518 30.77079,21.70875 30.77079,21.70875 30.51801,24.19163 29.77003,26.57262 28.55755,28.75401 26.93033,30.6463 24.95514,32.17182 22.71304,33.26797 20.29603,33.88978 18.45079,34.02875 0,34.02875 0,34.02875 15.08518,48.96682 15.08518,48.96682 21.70875,48.96682 21.70875,48.96682 24.19163,49.21961 26.57262,49.96758 28.75401,51.18006 30.6463,52.80728 32.17182,54.78247 33.26797,57.02457 33.88978,59.44158 34.02875,61.28682 34.02875,79.73761 "/>
</svg>
