	<svg version="1.1" id="svg2" xmlns="http://www.w3.org/2000/svg" xmlns:xlink="http://www.w3.org/1999/xlink"   xml:space="preserve">
<polygon fill="none" stroke="#010101" stroke-miterlimit="10" points="0,170 0.06248698,172.499 0.2497917,174.9917 0.5614461,177.4719 0.9966711,179.9335 1.554379,182.3702 2.233176,184.776 3.031365,187.1449 3.946951,189.4709 4.977646,191.7483 6.120873,193.9713 7.373776,196.1344 8.733222,198.2321 10.19581,200.2593 11.75789,202.2109 13.41556,204.0819 15.16467,205.8678 17.00084,207.564 18.9195,209.1664 20.91585,210.6708 22.98488,212.0735 25.12144,213.3712 27.32019,214.5604 29.57562,215.6382 31.8821,216.6019 34.23387,217.4492 36.62505,218.1779 39.04965,218.7862 41.50163,219.2725 43.97485,219.6357 46.46312,219.8747 48.96024,219.9892 51.45996,219.9787 53.95603,219.8432 56.44221,219.5832 58.91229,219.1993 61.3601,218.6924 63.77951,218.0638 66.16447,217.315 68.50904,216.448 70.80735,215.4649 73.05364,214.3681 75.24232,213.1605 77.3679,211.8449 79.42507,210.4248 81.4087,208.9036 83.31382,207.2852 85.13567,205.5737 86.86971,203.7731 88.51158,201.8882 90.05721,199.9236 91.5027,197.8842 92.84446,195.775 94.07913,193.6015 95.20363,191.369 96.21514,189.083 97.11114,186.7494 97.88938,184.3738 98.54792,181.9624 99.08512,179.5211 99.49963,177.0559 99.79042,174.5732 99.95676,172.079 100,170 100,15 100,15 85,0 85,0 15,0 15,0 0,15 0,15 0,170 "/>
</svg>
