	<svg version="1.1" id="svg2" xmlns="http://www.w3.org/2000/svg" xmlns:xlink="http://www.w3.org/1999/xlink"   xml:space="preserve">
<polygon fill="none" stroke="#010101" stroke-miterlimit="10" points="110.322,127.2641 101.3156,97.68485 101.3156,97.68485 89.83598,101.1802 89.83598,101.1802 86.8838,91.48444 86.8838,91.48444 84.98045,89.86772 83.36065,87.96699 82.06622,85.83134 81.13062,83.51592 80.57796,81.08053 80.42256,78.58807 80.66842,76.10289 81.30917,73.68919 82.32829,71.40929 83.69945,69.32207 85.38723,67.48145 86.8838,66.25636 89.83598,56.56059 89.83598,56.56059 101.3156,60.05595 101.3156,60.05595 110.322,30.4767 110.322,30.4767 10.22853,0 10.22853,0 0,33.59318 0,33.59318 0,124.1476 0,124.1476 10.22853,157.7408 10.22853,157.7408 110.322,127.2641 "/>
</svg>
