	<svg version="1.1" id="svg2" xmlns="http://www.w3.org/2000/svg" xmlns:xlink="http://www.w3.org/1999/xlink"   xml:space="preserve">
<polygon fill="none" stroke="#010101" stroke-miterlimit="10" points="101.6778,156.0964 88.92534,111.8994 88.92535,111.8994 91.29945,111.1178 93.60905,110.1624 95.84146,109.0384 97.98437,107.7519 100.026,106.31 101.9551,104.7207 103.761,102.9928 105.4338,101.1357 106.9643,99.15965 108.344,97.07558 109.5655,94.89492 110.6218,92.6297 111.5073,90.29238 112.217,87.89584 112.7471,85.45326 113.0946,82.9781 113.2576,80.484 113.2352,77.98467 113.0275,75.49389 112.6357,73.02536 112.062,70.59267 111.3094,68.20924 110.3821,65.88817 109.2853,63.64225 108.025,61.48383 106.6081,59.42482 105.0424,57.47654 103.3366,55.64972 101.5,53.95443 99.54276,52.39999 97.47562,50.99496 95.31,49.74708 93.0578,48.66322 90.73144,47.74936 88.3437,47.01051 85.90777,46.45075 83.43703,46.07316 80.94508,45.87983 78.44567,45.8718 75.95255,46.04914 73.47944,46.41086 71.03996,46.95496 68.64754,47.67847 66.31536,48.57738 64.05626,49.64675 61.88267,50.8807 59.80656,52.27242 57.83937,53.81426 55.99193,55.49773 54.2744,57.31355 52.69625,59.25173 51.26616,61.3016 49.99202,63.45187 48.88082,65.6907 47.9387,68.00576 47.17084,70.38431 46.58146,72.81325 46.17382,75.27921 45.95016,77.7686 45.91171,80.26772 46.05867,82.76283 46.39025,85.24015 46.90461,87.68607 47.59893,90.08712 48.46938,92.43008 49.51117,94.70203 50.71856,96.89049 52.0849,98.98338 53.60267,100.9692 55.26352,102.837 57.05829,104.5765 58.97712,106.1781 61.00942,107.6331 63.14401,108.9333 65.36915,110.0717 67.67257,111.0419 70.04159,111.8387 70.24934,111.8994 57.49689,156.0964 57.49689,156.0964 55.10614,155.3657 52.73949,154.5605 50.39927,153.6814 48.08777,152.7293 45.80728,151.7052 43.56004,150.61 41.34825,149.4449 39.1741,148.211 37.03973,146.9094 34.94724,145.5416 32.89869,144.1088 30.89608,142.6125 28.9414,141.054 27.03657,139.435 25.18347,137.7571 23.38391,136.0219 21.63967,134.231 19.95246,132.3863 18.32395,130.4896 16.75574,128.5428 15.24937,126.5477 13.80633,124.5064 12.42803,122.4208 11.11583,120.2929 9.871023,118.125 8.694837,115.9191 7.588426,113.6773 6.55288,111.402 5.589219,109.0953 4.698391,106.7595 3.881273,104.3969 3.138669,102.0099 2.47131,99.6007 1.879853,97.17178 1.36488,94.72549 0.9268976,92.26426 0.5663372,89.7905 0.2835536,87.30664 0.07882518,84.81514 -0.0476466,82.31844 -0.09573725,79.819 -0.06539943,77.31928 0.043337,74.82175 0.230365,72.32886 0.4955005,69.84306 0.8384815,67.36681 1.258971,64.90253 1.756555,62.45265 2.330745,60.0196 2.980973,57.60575 3.706602,55.21348 4.506917,52.84516 5.381129,50.5031 6.328378,48.18962 7.347733,45.90699 8.43819,43.65747 9.598675,41.44326 10.82805,39.26653 12.12509,37.12945 13.48854,35.0341 14.91705,32.98256 16.4092,30.97683 17.96354,29.0189 19.57854,27.11069 21.25259,25.25408 22.98407,23.4509 24.77125,21.70292 26.61239,20.01186 28.50566,18.37938 30.44922,16.8071 32.44114,15.29657 34.47946,13.84926 36.56218,12.4666 38.68725,11.14995 40.85257,9.900616 43.05602,8.719818 45.29543,7.608721 47.56858,6.568419 49.87325,5.599935 52.20717,4.704222 54.56804,3.882163 56.95353,3.134566 59.36129,2.462167 61.78897,1.865628 64.23416,1.345536 66.69447,0.9024028 69.16747,0.536665 71.65071,0.2486822 74.14178,0.03873798 76.6382,-0.09296106 79.13752,-0.1462853 81.6373,-0.1211819 84.13506,-0.01767508 86.62835,0.1641333 89.11471,0.4240643 91.59169,0.761862 94.05685,1.177194 96.50777,1.669652 98.94205,2.23875 101.3573,2.883929 103.7511,3.604553 106.1211,4.399914 108.465,5.269229 110.7804,6.211641 113.0652,7.226223 115.317,8.311978 117.5337,9.467835 119.713,10.69266 121.8528,11.98524 123.951,13.34431 126.0055,14.76853 128.0144,16.2565 129.9755,17.80675 131.8871,19.41776 133.7473,21.08794 135.5541,22.81565 137.3058,24.59919 139.0007,26.43679 140.6371,28.32667 142.2135,30.26694 143.7282,32.25571 145.1797,34.29102 146.5668,36.37086 147.8878,38.49318 149.1417,40.6559 150.3271,42.85689 151.4429,45.09398 152.4879,47.36497 153.4612,49.66763 154.3618,51.99968 155.1888,54.35884 155.9414,56.74278 156.6188,59.14915 157.2204,61.57559 157.7456,64.01971 158.1939,66.4791 158.5648,68.95133 158.858,71.43399 159.0731,73.92462 159.21,76.42078 159.2686,78.92 159.2487,81.41983 159.1504,83.9178 158.9738,86.41146 158.719,88.89835 158.3864,91.37604 157.9762,93.84206 157.4889,96.29401 156.9248,98.72945 156.2847,101.146 155.5691,103.5413 154.7787,105.913 153.9142,108.2587 152.9767,110.5761 151.9668,112.863 150.8858,115.117 149.7345,117.3361 148.5143,119.518 147.2262,121.6604 145.8715,123.7615 144.4515,125.819 142.9678,127.8309 141.4216,129.7953 139.8146,131.7103 138.1483,133.5739 136.4243,135.3843 134.6445,137.1397 132.8104,138.8385 130.924,140.4789 128.987,142.0592 127.0014,143.5781 124.9691,145.0339 122.8921,146.4253 120.7726,147.7508 118.6125,149.0092 116.414,150.1991 114.1792,151.3196 111.9104,152.3694 109.6098,153.3475 107.2796,154.2529 104.9222,155.0848 102.5398,155.8424 "/>
</svg>
