	<svg version="1.1" id="svg2" xmlns="http://www.w3.org/2000/svg" xmlns:xlink="http://www.w3.org/1999/xlink"   xml:space="preserve">
<polygon fill="none" stroke="#010101" stroke-miterlimit="10" points="23.47084,77.45556 22.47084,77.45438 22.47084,77.45438 22.46027,86.45438 22.46027,86.45438 23.06954,88.85222 24.75381,90.66443 27.10072,91.44731 27.45439,91.46025 46.45438,91.48257 46.45438,91.48257 46.44967,95.48257 46.44967,95.48257 71.44965,95.51195 71.44965,95.51195 71.40844,130.5993 71.40844,130.5993 73.88689,130.2895 76.384,130.3463 78.84581,130.7685 81.21916,131.5469 83.45279,132.6647 85.49846,134.0979 86.83304,135.311 92.33183,135.3175 92.33183,135.3175 94.72968,134.7082 95.86909,133.8572 108.9555,120.8015 108.9555,120.8015 110.2202,118.6751 110.4241,117.2677 110.5366,21.55782 110.5366,21.55782 109.9273,19.15998 108.243,17.34777 105.8961,16.56489 105.5425,16.55195 86.54247,16.52962 86.54247,16.52962 84.14463,17.13889 82.33242,18.82317 81.54954,21.17007 81.5366,21.52375 81.51662,38.52374 81.51662,38.52374 51.51665,38.48848 51.51665,38.48848 49.1188,39.09775 47.30659,40.78202 46.52371,43.12893 46.51077,43.4826 46.50137,51.4826 46.50137,51.4826 27.50139,51.46028 27.50139,51.46028 25.10354,52.06955 23.29133,53.75382 22.50846,56.10073 22.49552,56.4544 22.48612,64.45439 22.48612,64.45439 23.48611,64.45557 23.48611,64.45557 25.92437,64.9333 28.00525,66.29098 29.4247,68.33022 29.97533,70.75305 29.57667,73.20548 28.28698,75.32916 26.2947,76.8138 23.89093,77.44247 "/>
</svg>
