	<svg version="1.1" id="svg2" xmlns="http://www.w3.org/2000/svg" xmlns:xlink="http://www.w3.org/1999/xlink"   xml:space="preserve">
<polygon fill="none" stroke="#010101" stroke-miterlimit="10" points="107.3543,6.400556 104.9267,6.917239 102.9159,8.372195 102.061,9.591023 63.44393,82.46112 63.44393,82.46112 23.85388,82.51566 23.85388,82.51566 21.4263,83.03235 19.41553,84.4873 18.16564,86.63156 17.86215,88.52392 17.89522,112.5239 17.89521,112.5239 18.4119,114.9515 19.86686,116.9622 22.01112,118.2121 23.90347,118.5156 88.72749,118.4263 88.72749,118.4263 91.15507,117.9096 91.99398,117.4538 105.8896,108.4027 105.8896,108.4027 121.3896,108.3813 121.3896,108.3813 121.4034,118.3813 121.4034,118.3813 185.4033,118.2931 185.4033,118.2931 187.8309,117.7765 189.8417,116.3215 191.0916,114.1772 191.3951,112.2849 191.3055,47.27023 191.3055,47.27023 190.7888,44.84265 189.5423,43.03001 154.5088,8.092958 154.5088,8.092958 152.4269,6.741751 150.2638,6.341445 107.3543,6.400558 "/>
</svg>
