	<svg version="1.1" id="svg2" xmlns="http://www.w3.org/2000/svg" xmlns:xlink="http://www.w3.org/1999/xlink"   xml:space="preserve">
<polygon fill="none" stroke="#010101" stroke-miterlimit="10" points="43.24203,5.56282 41.68848,10.07467 41.68848,10.07467 37.01773,8.28174 37.01773,8.28174 38.48368,4.02431 38.48368,4.02431 28,0 28,0 12.7,0 12.7,0 12.7,5 12.7,5 7.7,5 7.7,5 7.7,0 7.7,0 5.5,0 5.5,-2.384186E-07 3.207227,0.855535 2.035339,3.003889 2,3.5 2,22 2,22 2.855535,24.29277 5.003889,25.46466 5.5,25.5 20.9265,25.5 20.9265,25.5 34.73942,30.25617 34.73942,30.25617 28.78207,47.55758 28.78207,47.55758 25,46.25531 25,46.25531 25,43.5 25,43.5 22,40.5 22,40.5 14,40.5 14,40.5 14,45.5 14,45.5 9,45.5 9,45.5 9,40.5 9,40.5 3.5,40.5 3.5,40.5 1.207228,41.35554 0.03533942,43.50389 0,44 0,61.5 -1.907347E-06,61.5 0.855535,63.79277 3.003889,64.96466 3.5,65 18.9238,65 18.9238,65 22.91352,66.37377 22.91352,66.37377 16.5,85 16.5,85 12.5,85 12.5,85 12.5,78 12.5,78 3.5,78 3.5,78 1.207227,78.85553 0.03533893,81.00388 0,81.5 0,96.5 3.099447E-06,96.5 0.855535,98.79277 3.003889,99.96466 3.5,100 26,100 26,100 26,93.5 26,93.5 31,93.5 31,93.5 31,100 31,100 425,100 425,100 425,93.5 425,93.5 430,93.5 430,93.5 430,100 430,100 431.5,100 431.5,100 433.7928,99.14449 434.9647,96.99613 435,96.5 435,67.5 435,67.5 434.1444,65.20722 431.9961,64.03534 431.5,64 265.0044,64 265.0044,64 262.5044,63.99306 260.0045,63.97222 257.5048,63.9375 255.0052,63.88889 252.506,63.8264 250.0072,63.75002 247.5088,63.65976 245.011,63.55563 242.5138,63.43761 240.0173,63.30573 237.5215,63.15998 235.0266,63.00037 232.5327,62.8269 230.0397,62.63957 227.5478,62.4384 225.0571,62.22339 222.5676,61.99454 220.0794,61.75187 217.5926,61.49538 215.1073,61.22507 212.6235,60.94097 210.1413,60.64307 207.6608,60.33138 205.1821,60.00592 202.7052,59.66669 200.2302,59.31371 197.7573,58.94698 195.2864,58.56652 192.8177,58.17234 190.3512,57.76445 187.887,57.34286 185.4252,56.90759 182.9658,56.45865 180.509,55.99606 178.0547,55.51982 175.6032,55.02995 173.1544,54.52647 170.7085,54.0094 168.2655,53.47874 165.8254,52.93452 163.3884,52.37676 160.9546,51.80546 158.5239,51.22065 156.0966,50.62235 153.6726,50.01057 151.252,49.38533 148.835,48.74666 146.4216,48.09457 144.0118,47.42908 141.6057,46.75021 139.2034,46.05799 136.8051,45.35243 134.4107,44.63356 132.0203,43.90139 129.634,43.15596 127.2519,42.39729 124.874,41.62539 122.5005,40.84029 120.1314,40.04202 117.7667,39.23059 115.4066,38.40604 113.0511,37.5684 110.7003,36.71768 108.3543,35.85392 106.0131,34.97713 103.6768,34.08735 101.3455,33.18461 99.0192,32.26893 96.69806,31.34034 94.38211,30.39886 92.07143,29.44454 89.76608,28.47739 87.46614,27.49746 85.17168,26.50476 82.88277,25.49932 80.59949,24.48119 78.32188,23.45039 76.05006,22.40695 73.78405,21.3509 71.52395,20.28228 69.26982,19.20113 67.02174,18.10746 64.77975,17.00133 62.54396,15.88275 60.31441,14.75178 58.09118,13.60843 55.87434,12.45275 53.66395,11.28477 51.46008,10.10453 49.2628,8.912066 47.07219,7.707411 44.88829,6.490606 "/>
</svg>
