	<svg version="1.1" id="svg2" xmlns="http://www.w3.org/2000/svg" xmlns:xlink="http://www.w3.org/1999/xlink"   xml:space="preserve">
<polygon fill="none" stroke="#010101" stroke-miterlimit="10" points="17.61742,78.49803 15.73304,80.13102 14.31126,82.17944 13.44046,84.51594 13.17479,86.99524 13.53076,89.4632 14.48626,91.76635 15.98186,93.76152 17.92457,95.32465 20.19362,96.35854 22.64792,96.79893 25.13487,96.61842 27.49985,95.82825 29.59582,94.47753 31.29245,92.65025 31.48782,92.36844 33.19222,90.55508 35.39315,89.39356 37.852,89.0098 40.3022,89.4454 42.4781,90.65315 44.14382,92.50211 45.11875,94.7918 45.29721,97.27402 45.18508,98.04203 45.00732,100.5292 45.45042,102.983 46.48682,105.2509 48.0521,107.1919 50.04892,108.6853 52.35313,109.6382 54.82148,109.9915 57.30049,109.7231 59.63602,108.8497 61.68287,107.4256 63.31377,105.5394 64.42732,103.3084 64.95429,100.8712 64.86191,98.37945 64.80079,98.04203 64.72374,95.5546 65.45872,93.17699 66.92603,91.16696 68.9666,89.74243 71.35921,89.05784 73.84444,89.18741 76.15289,90.11709 78.03427,91.74609 78.49803,92.36845 80.13102,94.25282 82.17944,95.67461 84.51594,96.5454 86.99524,96.81107 89.4632,96.4551 91.76636,95.4996 93.76152,94.00401 95.32465,92.06129 96.35855,89.79224 96.79893,87.33794 96.61842,84.85099 95.82825,82.48601 94.47752,80.39005 92.65025,78.69341 92.36844,78.49804 90.55508,76.79364 89.39356,74.59271 89.0098,72.13386 89.44541,69.68366 90.65316,67.50776 92.50211,65.84204 94.79181,64.8671 97.27402,64.68864 98.04203,64.80079 100.5292,64.97855 102.983,64.53545 105.2509,63.49905 107.1919,61.93377 108.6853,59.93695 109.6382,57.63274 109.9915,55.16439 109.7231,52.68538 108.8497,50.34985 107.4256,48.303 105.5394,46.6721 103.3084,45.55855 100.8712,45.03158 98.37945,45.12396 98.04203,45.18508 95.5546,45.26213 93.17699,44.52716 91.16696,43.05984 89.74243,41.01927 89.05784,38.62667 89.18741,36.14142 90.11709,33.83298 91.74609,31.9516 92.36843,31.48781 94.25281,29.85483 95.67459,27.8064 96.54539,25.4699 96.81106,22.9906 96.45508,20.52265 95.49958,18.21949 94.00397,16.22433 92.06126,14.6612 89.79221,13.62731 87.33791,13.18693 84.85096,13.36745 82.48598,14.15763 80.39002,15.50836 78.69339,17.33564 78.49804,17.61743 76.79364,19.43078 74.59271,20.5923 72.13386,20.97606 69.68366,20.54044 67.50776,19.33269 65.84205,17.48374 64.86711,15.19404 64.68866,12.71182 64.80078,11.94383 64.97854,9.456683 64.53544,7.002874 63.49903,4.734972 61.93376,2.793986 59.93694,1.300595 57.63272,0.3476516 55.16437,-0.005593916 52.68537,0.2628213 50.34983,1.136208 48.30299,2.560264 46.67209,4.446448 45.55854,6.677485 45.03158,9.114662 45.12396,11.60645 45.18508,11.94384 45.26213,14.43126 44.52716,16.80887 43.05984,18.8189 41.01927,20.24343 38.62667,20.92803 36.14142,20.79846 33.83297,19.86878 31.9516,18.23978 31.48782,17.61743 29.85484,15.73305 27.80641,14.31126 25.46991,13.44046 22.99061,13.1748 20.52266,13.53077 18.2195,14.48627 16.22433,15.98187 14.66121,17.92459 13.62731,20.19363 13.18693,22.64793 13.36744,25.13488 14.15762,27.49986 15.50834,29.59583 17.33562,31.29246 17.61743,31.48782 19.43078,33.19222 20.5923,35.39315 20.97606,37.852 20.54045,40.3022 19.3327,42.4781 17.48375,44.14382 15.19405,45.11875 12.71184,45.29721 11.94384,45.18508 9.456685,45.00732 7.002876,45.45042 4.734974,46.48683 2.793987,48.0521 1.300595,50.04892 0.3476504,52.35314 -0.005597463,54.82148 0.2628145,57.30049 1.136198,59.63602 2.56025,61.68287 4.44643,63.31377 6.677464,64.42732 9.114638,64.95429 11.60642,64.86191 11.94384,64.80079 14.43126,64.72374 16.80887,65.45872 18.8189,66.92603 20.24343,68.9666 20.92803,71.3592 20.79846,73.84444 19.86878,76.15289 18.23978,78.03427 "/>
</svg>
